M48
; DRILL file {KiCad (6.0.5)} date Thu Jun  2 14:20:17 2022
; FORMAT={3:3/ absolute / metric / suppress leading zeros}
; #@! TF.CreationDate,2022-06-02T14:20:17-07:00
; #@! TF.GenerationSoftware,Kicad,Pcbnew,(6.0.5)
; #@! TF.FileFunction,MixedPlating,1,2
FMAT,2
METRIC,TZ
; #@! TA.AperFunction,Plated,PTH,ComponentDrill
T1C0.330
; #@! TA.AperFunction,Plated,PTH,ViaDrill
T2C0.400
; #@! TA.AperFunction,Plated,PTH,ComponentDrill
T3C1.000
%
G90
G05
T1
X54645Y-69081
X54645Y-70581
X56145Y-69081
X56145Y-70581
X57645Y-69081
X57645Y-70581
T2
X7366Y-22098
X7366Y-27940
X11500Y-7000
X12192Y-20828
X12700Y-31496
X13716Y-18288
X14478Y-37338
X16510Y-37338
X17000Y-7000
X17780Y-23368
X22500Y-7000
X51816Y-72644
X52578Y-73660
X56769Y-65532
X57150Y-74549
X57404Y-64516
X57404Y-77724
X57976Y-65849
X58674Y-65151
X58800Y-85310
X59944Y-73025
X61087Y-73533
X61976Y-71628
X62000Y-13900
X62992Y-78232
X64135Y-90424
X64500Y-96000
X65024Y-92329
X66000Y-96000
X66000Y-97900
X66167Y-86868
X66400Y-45600
X68072Y-83820
X68499Y-89571
X68600Y-91200
X68900Y-96393
X69088Y-92139
X69723Y-79248
X70358Y-75057
X71120Y-75819
X71527Y-86770
X71600Y-92400
X72072Y-83629
X72160Y-87550
X73216Y-92075
X73800Y-96300
X74168Y-84455
X75184Y-85979
X75300Y-95800
X75438Y-84328
X76300Y-96271
X76454Y-85852
X76500Y-56500
X76800Y-100450
X76810Y-102310
X77050Y-94750
X77180Y-86840
X77900Y-84020
X78330Y-87620
X78590Y-82370
X79640Y-94850
X84580Y-94700
X87250Y-101610
X88630Y-84630
X89916Y-88519
X91186Y-57277
X96330Y-103850
X96901Y-82677
X97620Y-96940
X98806Y-82677
X99600Y-99700
X111214Y-102163
X111379Y-85090
X112268Y-81407
X112649Y-46736
X113845Y-90390
X114895Y-90390
X115170Y-95040
X139639Y-41891
X140381Y-41149
X146000Y-44400
X158400Y-61100
T3
X24628Y-33528
X27168Y-33528
X84582Y-89916
X87122Y-89916
X101600Y-103505
X104140Y-103505
X106680Y-103505
X109220Y-103505
X111760Y-103505
X114300Y-103505
T0
M30
