G04 #@! TF.GenerationSoftware,KiCad,Pcbnew,(6.0.5)*
G04 #@! TF.CreationDate,2022-06-02T14:20:13-07:00*
G04 #@! TF.ProjectId,mobo,6d6f626f-2e6b-4696-9361-645f70636258,rev?*
G04 #@! TF.SameCoordinates,Original*
G04 #@! TF.FileFunction,Soldermask,Top*
G04 #@! TF.FilePolarity,Negative*
%FSLAX46Y46*%
G04 Gerber Fmt 4.6, Leading zero omitted, Abs format (unit mm)*
G04 Created by KiCad (PCBNEW (6.0.5)) date 2022-06-02 14:20:13*
%MOMM*%
%LPD*%
G01*
G04 APERTURE LIST*
G04 Aperture macros list*
%AMRoundRect*
0 Rectangle with rounded corners*
0 $1 Rounding radius*
0 $2 $3 $4 $5 $6 $7 $8 $9 X,Y pos of 4 corners*
0 Add a 4 corners polygon primitive as box body*
4,1,4,$2,$3,$4,$5,$6,$7,$8,$9,$2,$3,0*
0 Add four circle primitives for the rounded corners*
1,1,$1+$1,$2,$3*
1,1,$1+$1,$4,$5*
1,1,$1+$1,$6,$7*
1,1,$1+$1,$8,$9*
0 Add four rect primitives between the rounded corners*
20,1,$1+$1,$2,$3,$4,$5,0*
20,1,$1+$1,$4,$5,$6,$7,0*
20,1,$1+$1,$6,$7,$8,$9,0*
20,1,$1+$1,$8,$9,$2,$3,0*%
G04 Aperture macros list end*
%ADD10RoundRect,0.243750X0.456250X-0.243750X0.456250X0.243750X-0.456250X0.243750X-0.456250X-0.243750X0*%
%ADD11RoundRect,0.243750X-0.243750X-0.456250X0.243750X-0.456250X0.243750X0.456250X-0.243750X0.456250X0*%
%ADD12RoundRect,0.243750X-0.456250X0.243750X-0.456250X-0.243750X0.456250X-0.243750X0.456250X0.243750X0*%
%ADD13RoundRect,0.243750X0.243750X0.456250X-0.243750X0.456250X-0.243750X-0.456250X0.243750X-0.456250X0*%
%ADD14R,3.500000X2.300000*%
%ADD15R,0.900000X1.200000*%
%ADD16C,1.000000*%
%ADD17R,4.200000X2.400000*%
%ADD18R,1.700000X1.700000*%
%ADD19O,1.700000X1.700000*%
%ADD20RoundRect,0.250000X-0.450000X0.262500X-0.450000X-0.262500X0.450000X-0.262500X0.450000X0.262500X0*%
%ADD21RoundRect,0.250000X0.450000X-0.262500X0.450000X0.262500X-0.450000X0.262500X-0.450000X-0.262500X0*%
%ADD22R,1.000000X1.550000*%
%ADD23R,1.000000X0.700000*%
%ADD24RoundRect,0.150000X0.150000X-0.825000X0.150000X0.825000X-0.150000X0.825000X-0.150000X-0.825000X0*%
%ADD25R,2.310000X2.460000*%
%ADD26R,0.450000X1.050000*%
%ADD27R,2.000000X1.500000*%
%ADD28R,2.000000X3.800000*%
%ADD29RoundRect,0.075000X-0.521491X0.415425X0.415425X-0.521491X0.521491X-0.415425X-0.415425X0.521491X0*%
%ADD30RoundRect,0.075000X-0.521491X-0.415425X-0.415425X-0.521491X0.521491X0.415425X0.415425X0.521491X0*%
%ADD31R,1.060000X0.650000*%
%ADD32R,2.100000X1.800000*%
%ADD33RoundRect,0.250000X0.262500X0.450000X-0.262500X0.450000X-0.262500X-0.450000X0.262500X-0.450000X0*%
%ADD34RoundRect,0.197500X0.632500X-0.197500X0.632500X0.197500X-0.632500X0.197500X-0.632500X-0.197500X0*%
%ADD35R,2.000000X10.000000*%
%ADD36R,0.740000X2.400000*%
%ADD37R,1.550000X1.000000*%
%ADD38RoundRect,0.250000X0.250000X0.475000X-0.250000X0.475000X-0.250000X-0.475000X0.250000X-0.475000X0*%
%ADD39RoundRect,0.250000X-0.250000X-0.475000X0.250000X-0.475000X0.250000X0.475000X-0.250000X0.475000X0*%
G04 APERTURE END LIST*
D10*
X70866000Y-82217500D03*
X70866000Y-80342500D03*
D11*
X73302500Y-80200000D03*
X75177500Y-80200000D03*
X73309000Y-82296000D03*
X75184000Y-82296000D03*
D12*
X61976000Y-84152500D03*
X61976000Y-86027500D03*
D13*
X67231500Y-77724000D03*
X65356500Y-77724000D03*
D10*
X61976000Y-82217500D03*
X61976000Y-80342500D03*
D13*
X58849500Y-76708000D03*
X56974500Y-76708000D03*
D12*
X60452000Y-68912500D03*
X60452000Y-70787500D03*
X97790000Y-98757500D03*
X97790000Y-100632500D03*
D11*
X79972500Y-82360000D03*
X81847500Y-82360000D03*
X79972500Y-80110000D03*
X81847500Y-80110000D03*
D10*
X111700000Y-88417500D03*
X111700000Y-86542500D03*
D12*
X113665000Y-78564500D03*
X113665000Y-80439500D03*
X111125000Y-78564500D03*
X111125000Y-80439500D03*
D13*
X109522500Y-87757000D03*
X107647500Y-87757000D03*
D10*
X98171000Y-86408500D03*
X98171000Y-84533500D03*
X95504000Y-86408500D03*
X95504000Y-84533500D03*
X7366000Y-20828000D03*
X7366000Y-18953000D03*
X7366000Y-26591500D03*
X7366000Y-24716500D03*
D14*
X103665000Y-80264000D03*
X98265000Y-80264000D03*
D15*
X110235000Y-90932000D03*
X106935000Y-90932000D03*
D16*
X66030000Y-101570000D03*
X32070000Y-9180000D03*
X202300000Y-60950000D03*
D17*
X102870000Y-85380000D03*
X102870000Y-89880000D03*
D18*
X84582000Y-89916000D03*
D19*
X87122000Y-89916000D03*
D18*
X24628000Y-33528000D03*
D19*
X27168000Y-33528000D03*
D20*
X9906000Y-24741500D03*
X9906000Y-26566500D03*
X9906000Y-18899500D03*
X9906000Y-20724500D03*
D13*
X63675500Y-88392000D03*
X61800500Y-88392000D03*
D21*
X81026000Y-55268500D03*
X81026000Y-53443500D03*
X91186000Y-55268500D03*
X91186000Y-53443500D03*
D10*
X113754000Y-88402000D03*
X113754000Y-86527000D03*
D12*
X113284000Y-82707000D03*
X113284000Y-84582000D03*
D22*
X7024000Y-9821000D03*
X7024000Y-15071000D03*
X8724000Y-15071000D03*
X8724000Y-9821000D03*
X7024000Y-30903000D03*
X7024000Y-36153000D03*
X8724000Y-36153000D03*
X8724000Y-30903000D03*
D23*
X64676000Y-10991000D03*
X64676000Y-9091000D03*
X62276000Y-10041000D03*
D24*
X110490000Y-100265000D03*
X111760000Y-100265000D03*
X113030000Y-100265000D03*
X114300000Y-100265000D03*
X114300000Y-95315000D03*
X113030000Y-95315000D03*
X111760000Y-95315000D03*
X110490000Y-95315000D03*
D25*
X56145000Y-69831000D03*
D26*
X58420000Y-67056000D03*
X57770000Y-67056000D03*
X57120000Y-67056000D03*
X56470000Y-67056000D03*
X55820000Y-67056000D03*
X55170000Y-67056000D03*
X54520000Y-67056000D03*
X53870000Y-67056000D03*
X53870000Y-72606000D03*
X54520000Y-72606000D03*
X55170000Y-72606000D03*
X55820000Y-72606000D03*
X56470000Y-72606000D03*
X57120000Y-72606000D03*
X57770000Y-72606000D03*
X58420000Y-72606000D03*
D27*
X107925000Y-100090000D03*
X107925000Y-97790000D03*
D28*
X101625000Y-97790000D03*
D27*
X107925000Y-95490000D03*
D29*
X70121212Y-85536124D03*
X69767658Y-85889678D03*
X69414105Y-86243231D03*
X69060551Y-86596785D03*
X68706998Y-86950338D03*
X68353445Y-87303891D03*
X67999891Y-87657445D03*
X67646338Y-88010998D03*
X67292785Y-88364551D03*
X66939231Y-88718105D03*
X66585678Y-89071658D03*
X66232124Y-89425212D03*
D30*
X66232124Y-91422788D03*
X66585678Y-91776342D03*
X66939231Y-92129895D03*
X67292785Y-92483449D03*
X67646338Y-92837002D03*
X67999891Y-93190555D03*
X68353445Y-93544109D03*
X68706998Y-93897662D03*
X69060551Y-94251215D03*
X69414105Y-94604769D03*
X69767658Y-94958322D03*
X70121212Y-95311876D03*
D29*
X72118788Y-95311876D03*
X72472342Y-94958322D03*
X72825895Y-94604769D03*
X73179449Y-94251215D03*
X73533002Y-93897662D03*
X73886555Y-93544109D03*
X74240109Y-93190555D03*
X74593662Y-92837002D03*
X74947215Y-92483449D03*
X75300769Y-92129895D03*
X75654322Y-91776342D03*
X76007876Y-91422788D03*
D30*
X76007876Y-89425212D03*
X75654322Y-89071658D03*
X75300769Y-88718105D03*
X74947215Y-88364551D03*
X74593662Y-88010998D03*
X74240109Y-87657445D03*
X73886555Y-87303891D03*
X73533002Y-86950338D03*
X73179449Y-86596785D03*
X72825895Y-86243231D03*
X72472342Y-85889678D03*
X72118788Y-85536124D03*
D31*
X109685000Y-84897000D03*
X109685000Y-83947000D03*
X109685000Y-82997000D03*
X107485000Y-82997000D03*
X107485000Y-83947000D03*
X107485000Y-84897000D03*
D32*
X67744000Y-80130000D03*
X64844000Y-80130000D03*
X64844000Y-82430000D03*
X67744000Y-82430000D03*
D13*
X55293500Y-76708000D03*
X53418500Y-76708000D03*
D11*
X13125000Y-7000000D03*
X15000000Y-7000000D03*
X18562500Y-7000000D03*
X20437500Y-7000000D03*
X24062500Y-7000000D03*
X25937500Y-7000000D03*
D33*
X14912500Y-9500000D03*
X13087500Y-9500000D03*
X20412500Y-9500000D03*
X18587500Y-9500000D03*
X25912500Y-9500000D03*
X24087500Y-9500000D03*
D11*
X79972500Y-86920000D03*
X81847500Y-86920000D03*
D12*
X58430000Y-81942500D03*
X58430000Y-83817500D03*
D34*
X88169500Y-53650000D03*
X84169500Y-53650000D03*
X84169500Y-55450000D03*
X88169500Y-55450000D03*
D35*
X138400000Y-59900000D03*
X140940000Y-59900000D03*
X143480000Y-59900000D03*
X146020000Y-59900000D03*
X148560000Y-59900000D03*
D36*
X79550000Y-100690000D03*
X79550000Y-96790000D03*
X80820000Y-100690000D03*
X80820000Y-96790000D03*
X82090000Y-100690000D03*
X82090000Y-96790000D03*
X83360000Y-100690000D03*
X83360000Y-96790000D03*
X84630000Y-100690000D03*
X84630000Y-96790000D03*
D37*
X94700000Y-102450000D03*
X89450000Y-102450000D03*
X94700000Y-100750000D03*
X89450000Y-100750000D03*
D38*
X81860000Y-84640000D03*
X79960000Y-84640000D03*
D37*
X74700000Y-102450000D03*
X69450000Y-102450000D03*
X69450000Y-100750000D03*
X74700000Y-100750000D03*
D39*
X78670000Y-90280000D03*
X80570000Y-90280000D03*
D18*
X101600000Y-103505000D03*
D19*
X104140000Y-103505000D03*
X106680000Y-103505000D03*
X109220000Y-103505000D03*
X111760000Y-103505000D03*
X114300000Y-103505000D03*
M02*
