%FSLAX45Y45*%
G04 Gerber Fmt 4.5, Leading zero omitted, Abs format (unit mm)*
G04 Created by KiCad (PCBNEW (6.0.5)) date 2022-06-02 14:20:18*
%MOMM*%
%LPD*%
G01*
G04 APERTURE LIST*
%TA.AperFunction,Profile*%
%ADD10C,0.050000*%
%TD*%
%ADD11C,0.200000*%
%ADD12C,0.033000*%
%ADD13C,0.040000*%
%ADD14C,0.100000*%
G04 APERTURE END LIST*
D10*
X6757000Y-10540000D02*
X6957000Y-10340000D01*
X6957000Y-10340000D02*
X7457000Y-10340000D01*
X7457000Y-10340000D02*
X7657000Y-10540000D01*
X7657000Y-10540000D02*
X8760000Y-10540000D01*
X7160000Y-7040000D02*
G75*
G03*
X7160000Y-7040000I-150000J0D01*
G01*
X5060000Y-5540000D02*
G75*
G03*
X5060000Y-5540000I-150000J0D01*
G01*
X6360000Y-10040000D02*
G75*
G03*
X6360000Y-10040000I-150000J0D01*
G01*
X9460000Y-10340000D02*
X9660000Y-10540000D01*
X13660000Y-6540000D02*
X20610000Y-6540000D01*
X963600Y-540000D02*
X10610000Y-540000D01*
X10360000Y-6040000D02*
G75*
G03*
X10360000Y-6040000I-150000J0D01*
G01*
X11360000Y-4940000D02*
G75*
G03*
X11360000Y-4940000I-150000J0D01*
G01*
X10960000Y-1340000D02*
G75*
G03*
X10960000Y-1340000I-150000J0D01*
G01*
X9760000Y-1140000D02*
G75*
G03*
X9760000Y-1140000I-150000J0D01*
G01*
X963600Y-4040000D02*
X610000Y-3686400D01*
X610000Y-893500D02*
X963600Y-540000D01*
X2610000Y-4040000D02*
X963600Y-4040000D01*
X7160000Y-6040000D02*
G75*
G03*
X7160000Y-6040000I-150000J0D01*
G01*
X4695800Y-9125800D02*
X4695800Y-6125800D01*
X13660000Y-4540000D02*
X11610000Y-4540000D01*
X8960000Y-10340000D02*
X9460000Y-10340000D01*
X6757000Y-10540000D02*
X6110000Y-10540000D01*
X6110000Y-10540000D02*
X4695800Y-9125800D01*
X3960000Y-2540000D02*
G75*
G03*
X3960000Y-2540000I-150000J0D01*
G01*
X20610000Y-6540000D02*
G75*
G03*
X15610000Y-1540000I-5000000J0D01*
G01*
X610000Y-3686400D02*
X610000Y-893500D01*
X4695800Y-6125800D02*
X2610000Y-4040000D01*
X11610000Y-1540000D02*
X15610000Y-1540000D01*
X13660000Y-6540000D02*
X13660000Y-4540000D01*
X8935000Y-3840000D02*
G75*
G03*
X8935000Y-3840000I-325000J0D01*
G01*
X5345800Y-9025800D02*
G75*
G03*
X5345800Y-9025800I-150000J0D01*
G01*
X8760000Y-10540000D02*
X8960000Y-10340000D01*
X11610000Y-4540000D02*
X11610000Y-10540000D01*
X17360000Y-5940000D02*
G75*
G03*
X17360000Y-5940000I-150000J0D01*
G01*
X11610000Y-10540000D02*
X9660000Y-10540000D01*
X10610000Y-540000D02*
X11610000Y-1540000D01*
X10360000Y-7040000D02*
G75*
G03*
X10360000Y-7040000I-150000J0D01*
G01*
D11*
D12*
X5448000Y-6891600D02*
X5481000Y-6924600D01*
X5481000Y-6891600D02*
X5448000Y-6924600D01*
X5448000Y-7041600D02*
X5481000Y-7074600D01*
X5481000Y-7041600D02*
X5448000Y-7074600D01*
X5598000Y-6891600D02*
X5631000Y-6924600D01*
X5631000Y-6891600D02*
X5598000Y-6924600D01*
X5598000Y-7041600D02*
X5631000Y-7074600D01*
X5631000Y-7041600D02*
X5598000Y-7074600D01*
X5748000Y-6891600D02*
X5781000Y-6924600D01*
X5781000Y-6891600D02*
X5748000Y-6924600D01*
X5748000Y-7041600D02*
X5781000Y-7074600D01*
X5781000Y-7041600D02*
X5748000Y-7074600D01*
D13*
X756600Y-2209800D02*
G75*
G03*
X756600Y-2209800I-20000J0D01*
G01*
X756600Y-2794000D02*
G75*
G03*
X756600Y-2794000I-20000J0D01*
G01*
X1170000Y-700000D02*
G75*
G03*
X1170000Y-700000I-20000J0D01*
G01*
X1239200Y-2082800D02*
G75*
G03*
X1239200Y-2082800I-20000J0D01*
G01*
X1290000Y-3149600D02*
G75*
G03*
X1290000Y-3149600I-20000J0D01*
G01*
X1391600Y-1828800D02*
G75*
G03*
X1391600Y-1828800I-20000J0D01*
G01*
X1467800Y-3733800D02*
G75*
G03*
X1467800Y-3733800I-20000J0D01*
G01*
X1671000Y-3733800D02*
G75*
G03*
X1671000Y-3733800I-20000J0D01*
G01*
X1720000Y-700000D02*
G75*
G03*
X1720000Y-700000I-20000J0D01*
G01*
X1798000Y-2336800D02*
G75*
G03*
X1798000Y-2336800I-20000J0D01*
G01*
X2270000Y-700000D02*
G75*
G03*
X2270000Y-700000I-20000J0D01*
G01*
X5201600Y-7264400D02*
G75*
G03*
X5201600Y-7264400I-20000J0D01*
G01*
X5277800Y-7366001D02*
G75*
G03*
X5277800Y-7366001I-20000J0D01*
G01*
X5696900Y-6553200D02*
G75*
G03*
X5696900Y-6553200I-20000J0D01*
G01*
X5735000Y-7454900D02*
G75*
G03*
X5735000Y-7454900I-20000J0D01*
G01*
X5760400Y-6451600D02*
G75*
G03*
X5760400Y-6451600I-20000J0D01*
G01*
X5760400Y-7772400D02*
G75*
G03*
X5760400Y-7772400I-20000J0D01*
G01*
X5817550Y-6584950D02*
G75*
G03*
X5817550Y-6584950I-20000J0D01*
G01*
X5887400Y-6515100D02*
G75*
G03*
X5887400Y-6515100I-20000J0D01*
G01*
X5900000Y-8531000D02*
G75*
G03*
X5900000Y-8531000I-20000J0D01*
G01*
X6014400Y-7302500D02*
G75*
G03*
X6014400Y-7302500I-20000J0D01*
G01*
X6128700Y-7353300D02*
G75*
G03*
X6128700Y-7353300I-20000J0D01*
G01*
X6217600Y-7162800D02*
G75*
G03*
X6217600Y-7162800I-20000J0D01*
G01*
X6220000Y-1390000D02*
G75*
G03*
X6220000Y-1390000I-20000J0D01*
G01*
X6319200Y-7823200D02*
G75*
G03*
X6319200Y-7823200I-20000J0D01*
G01*
X6433500Y-9042400D02*
G75*
G03*
X6433500Y-9042400I-20000J0D01*
G01*
X6470000Y-9600000D02*
G75*
G03*
X6470000Y-9600000I-20000J0D01*
G01*
X6522400Y-9232900D02*
G75*
G03*
X6522400Y-9232900I-20000J0D01*
G01*
X6620000Y-9600000D02*
G75*
G03*
X6620000Y-9600000I-20000J0D01*
G01*
X6620000Y-9790000D02*
G75*
G03*
X6620000Y-9790000I-20000J0D01*
G01*
X6636700Y-8686800D02*
G75*
G03*
X6636700Y-8686800I-20000J0D01*
G01*
X6660000Y-4560000D02*
G75*
G03*
X6660000Y-4560000I-20000J0D01*
G01*
X6827200Y-8382000D02*
G75*
G03*
X6827200Y-8382000I-20000J0D01*
G01*
X6869912Y-8957088D02*
G75*
G03*
X6869912Y-8957088I-20000J0D01*
G01*
X6880000Y-9120000D02*
G75*
G03*
X6880000Y-9120000I-20000J0D01*
G01*
X6910000Y-9639300D02*
G75*
G03*
X6910000Y-9639300I-20000J0D01*
G01*
X6928800Y-9213850D02*
G75*
G03*
X6928800Y-9213850I-20000J0D01*
G01*
X6992300Y-7924800D02*
G75*
G03*
X6992300Y-7924800I-20000J0D01*
G01*
X7055800Y-7505700D02*
G75*
G03*
X7055800Y-7505700I-20000J0D01*
G01*
X7132000Y-7581900D02*
G75*
G03*
X7132000Y-7581900I-20000J0D01*
G01*
X7172650Y-8677000D02*
G75*
G03*
X7172650Y-8677000I-20000J0D01*
G01*
X7180000Y-9240000D02*
G75*
G03*
X7180000Y-9240000I-20000J0D01*
G01*
X7227250Y-8362950D02*
G75*
G03*
X7227250Y-8362950I-20000J0D01*
G01*
X7236000Y-8755000D02*
G75*
G03*
X7236000Y-8755000I-20000J0D01*
G01*
X7341550Y-9207500D02*
G75*
G03*
X7341550Y-9207500I-20000J0D01*
G01*
X7400000Y-9630000D02*
G75*
G03*
X7400000Y-9630000I-20000J0D01*
G01*
X7436800Y-8445500D02*
G75*
G03*
X7436800Y-8445500I-20000J0D01*
G01*
X7538400Y-8597900D02*
G75*
G03*
X7538400Y-8597900I-20000J0D01*
G01*
X7550000Y-9580000D02*
G75*
G03*
X7550000Y-9580000I-20000J0D01*
G01*
X7563800Y-8432800D02*
G75*
G03*
X7563800Y-8432800I-20000J0D01*
G01*
X7650000Y-9627103D02*
G75*
G03*
X7650000Y-9627103I-20000J0D01*
G01*
X7665400Y-8585200D02*
G75*
G03*
X7665400Y-8585200I-20000J0D01*
G01*
X7670000Y-5650000D02*
G75*
G03*
X7670000Y-5650000I-20000J0D01*
G01*
X7700000Y-10045000D02*
G75*
G03*
X7700000Y-10045000I-20000J0D01*
G01*
X7701000Y-10231000D02*
G75*
G03*
X7701000Y-10231000I-20000J0D01*
G01*
X7725000Y-9475000D02*
G75*
G03*
X7725000Y-9475000I-20000J0D01*
G01*
X7738000Y-8684000D02*
G75*
G03*
X7738000Y-8684000I-20000J0D01*
G01*
X7810000Y-8402000D02*
G75*
G03*
X7810000Y-8402000I-20000J0D01*
G01*
X7853000Y-8762000D02*
G75*
G03*
X7853000Y-8762000I-20000J0D01*
G01*
X7879000Y-8237000D02*
G75*
G03*
X7879000Y-8237000I-20000J0D01*
G01*
X7984000Y-9485000D02*
G75*
G03*
X7984000Y-9485000I-20000J0D01*
G01*
X8478000Y-9470000D02*
G75*
G03*
X8478000Y-9470000I-20000J0D01*
G01*
X8745000Y-10161000D02*
G75*
G03*
X8745000Y-10161000I-20000J0D01*
G01*
X8883000Y-8463000D02*
G75*
G03*
X8883000Y-8463000I-20000J0D01*
G01*
X9011600Y-8851900D02*
G75*
G03*
X9011600Y-8851900I-20000J0D01*
G01*
X9138600Y-5727700D02*
G75*
G03*
X9138600Y-5727700I-20000J0D01*
G01*
X9653000Y-10385000D02*
G75*
G03*
X9653000Y-10385000I-20000J0D01*
G01*
X9710100Y-8267700D02*
G75*
G03*
X9710100Y-8267700I-20000J0D01*
G01*
X9782000Y-9694000D02*
G75*
G03*
X9782000Y-9694000I-20000J0D01*
G01*
X9900600Y-8267700D02*
G75*
G03*
X9900600Y-8267700I-20000J0D01*
G01*
X9980000Y-9970000D02*
G75*
G03*
X9980000Y-9970000I-20000J0D01*
G01*
X11141400Y-10216280D02*
G75*
G03*
X11141400Y-10216280I-20000J0D01*
G01*
X11157900Y-8509000D02*
G75*
G03*
X11157900Y-8509000I-20000J0D01*
G01*
X11246800Y-8140700D02*
G75*
G03*
X11246800Y-8140700I-20000J0D01*
G01*
X11284900Y-4673600D02*
G75*
G03*
X11284900Y-4673600I-20000J0D01*
G01*
X11404500Y-9039000D02*
G75*
G03*
X11404500Y-9039000I-20000J0D01*
G01*
X11509500Y-9039000D02*
G75*
G03*
X11509500Y-9039000I-20000J0D01*
G01*
X11537000Y-9504000D02*
G75*
G03*
X11537000Y-9504000I-20000J0D01*
G01*
X13983877Y-4189123D02*
G75*
G03*
X13983877Y-4189123I-20000J0D01*
G01*
X14058123Y-4114877D02*
G75*
G03*
X14058123Y-4114877I-20000J0D01*
G01*
X14620000Y-4440000D02*
G75*
G03*
X14620000Y-4440000I-20000J0D01*
G01*
X15860000Y-6110000D02*
G75*
G03*
X15860000Y-6110000I-20000J0D01*
G01*
D14*
X2462800Y-3302800D02*
X2462800Y-3402800D01*
X2412800Y-3352800D02*
X2512800Y-3352800D01*
X2716800Y-3302800D02*
X2716800Y-3402800D01*
X2666800Y-3352800D02*
X2766800Y-3352800D01*
X8458200Y-8941600D02*
X8458200Y-9041600D01*
X8408200Y-8991600D02*
X8508200Y-8991600D01*
X8712200Y-8941600D02*
X8712200Y-9041600D01*
X8662200Y-8991600D02*
X8762200Y-8991600D01*
X10160000Y-10300500D02*
X10160000Y-10400500D01*
X10110000Y-10350500D02*
X10210000Y-10350500D01*
X10414000Y-10300500D02*
X10414000Y-10400500D01*
X10364000Y-10350500D02*
X10464000Y-10350500D01*
X10668000Y-10300500D02*
X10668000Y-10400500D01*
X10618000Y-10350500D02*
X10718000Y-10350500D01*
X10922000Y-10300500D02*
X10922000Y-10400500D01*
X10872000Y-10350500D02*
X10972000Y-10350500D01*
X11176000Y-10300500D02*
X11176000Y-10400500D01*
X11126000Y-10350500D02*
X11226000Y-10350500D01*
X11430000Y-10300500D02*
X11430000Y-10400500D01*
X11380000Y-10350500D02*
X11480000Y-10350500D01*
D11*
X865119Y-10852976D02*
X865119Y-10652976D01*
X912738Y-10652976D01*
X941309Y-10662500D01*
X960357Y-10681548D01*
X969881Y-10700595D01*
X979405Y-10738690D01*
X979405Y-10767262D01*
X969881Y-10805357D01*
X960357Y-10824405D01*
X941309Y-10843452D01*
X912738Y-10852976D01*
X865119Y-10852976D01*
X1065119Y-10852976D02*
X1065119Y-10719643D01*
X1065119Y-10757738D02*
X1074643Y-10738690D01*
X1084167Y-10729167D01*
X1103214Y-10719643D01*
X1122262Y-10719643D01*
X1188929Y-10852976D02*
X1188929Y-10719643D01*
X1188929Y-10652976D02*
X1179405Y-10662500D01*
X1188929Y-10672024D01*
X1198452Y-10662500D01*
X1188929Y-10652976D01*
X1188929Y-10672024D01*
X1312738Y-10852976D02*
X1293690Y-10843452D01*
X1284167Y-10824405D01*
X1284167Y-10652976D01*
X1417500Y-10852976D02*
X1398452Y-10843452D01*
X1388929Y-10824405D01*
X1388929Y-10652976D01*
X1646071Y-10852976D02*
X1646071Y-10652976D01*
X1712738Y-10795833D01*
X1779405Y-10652976D01*
X1779405Y-10852976D01*
X1960357Y-10852976D02*
X1960357Y-10748214D01*
X1950833Y-10729167D01*
X1931786Y-10719643D01*
X1893690Y-10719643D01*
X1874643Y-10729167D01*
X1960357Y-10843452D02*
X1941309Y-10852976D01*
X1893690Y-10852976D01*
X1874643Y-10843452D01*
X1865119Y-10824405D01*
X1865119Y-10805357D01*
X1874643Y-10786310D01*
X1893690Y-10776786D01*
X1941309Y-10776786D01*
X1960357Y-10767262D01*
X2055595Y-10719643D02*
X2055595Y-10919643D01*
X2055595Y-10729167D02*
X2074643Y-10719643D01*
X2112738Y-10719643D01*
X2131786Y-10729167D01*
X2141310Y-10738690D01*
X2150833Y-10757738D01*
X2150833Y-10814881D01*
X2141310Y-10833929D01*
X2131786Y-10843452D01*
X2112738Y-10852976D01*
X2074643Y-10852976D01*
X2055595Y-10843452D01*
X2236548Y-10833929D02*
X2246071Y-10843452D01*
X2236548Y-10852976D01*
X2227024Y-10843452D01*
X2236548Y-10833929D01*
X2236548Y-10852976D01*
X2236548Y-10729167D02*
X2246071Y-10738690D01*
X2236548Y-10748214D01*
X2227024Y-10738690D01*
X2236548Y-10729167D01*
X2236548Y-10748214D01*
D12*
X574500Y-11166000D02*
X607500Y-11199000D01*
X607500Y-11166000D02*
X574500Y-11199000D01*
D11*
X903214Y-11072976D02*
X922262Y-11072976D01*
X941309Y-11082500D01*
X950833Y-11092024D01*
X960357Y-11111071D01*
X969881Y-11149167D01*
X969881Y-11196786D01*
X960357Y-11234881D01*
X950833Y-11253928D01*
X941309Y-11263452D01*
X922262Y-11272976D01*
X903214Y-11272976D01*
X884167Y-11263452D01*
X874643Y-11253928D01*
X865119Y-11234881D01*
X855595Y-11196786D01*
X855595Y-11149167D01*
X865119Y-11111071D01*
X874643Y-11092024D01*
X884167Y-11082500D01*
X903214Y-11072976D01*
X1055595Y-11253928D02*
X1065119Y-11263452D01*
X1055595Y-11272976D01*
X1046071Y-11263452D01*
X1055595Y-11253928D01*
X1055595Y-11272976D01*
X1131786Y-11072976D02*
X1255595Y-11072976D01*
X1188929Y-11149167D01*
X1217500Y-11149167D01*
X1236548Y-11158690D01*
X1246071Y-11168214D01*
X1255595Y-11187262D01*
X1255595Y-11234881D01*
X1246071Y-11253928D01*
X1236548Y-11263452D01*
X1217500Y-11272976D01*
X1160357Y-11272976D01*
X1141310Y-11263452D01*
X1131786Y-11253928D01*
X1322262Y-11072976D02*
X1446071Y-11072976D01*
X1379405Y-11149167D01*
X1407976Y-11149167D01*
X1427024Y-11158690D01*
X1436548Y-11168214D01*
X1446071Y-11187262D01*
X1446071Y-11234881D01*
X1436548Y-11253928D01*
X1427024Y-11263452D01*
X1407976Y-11272976D01*
X1350833Y-11272976D01*
X1331786Y-11263452D01*
X1322262Y-11253928D01*
X1569881Y-11072976D02*
X1588928Y-11072976D01*
X1607976Y-11082500D01*
X1617500Y-11092024D01*
X1627024Y-11111071D01*
X1636548Y-11149167D01*
X1636548Y-11196786D01*
X1627024Y-11234881D01*
X1617500Y-11253928D01*
X1607976Y-11263452D01*
X1588928Y-11272976D01*
X1569881Y-11272976D01*
X1550833Y-11263452D01*
X1541309Y-11253928D01*
X1531786Y-11234881D01*
X1522262Y-11196786D01*
X1522262Y-11149167D01*
X1531786Y-11111071D01*
X1541309Y-11092024D01*
X1550833Y-11082500D01*
X1569881Y-11072976D01*
X1722262Y-11272976D02*
X1722262Y-11139643D01*
X1722262Y-11158690D02*
X1731786Y-11149167D01*
X1750833Y-11139643D01*
X1779405Y-11139643D01*
X1798452Y-11149167D01*
X1807976Y-11168214D01*
X1807976Y-11272976D01*
X1807976Y-11168214D02*
X1817500Y-11149167D01*
X1836548Y-11139643D01*
X1865119Y-11139643D01*
X1884167Y-11149167D01*
X1893690Y-11168214D01*
X1893690Y-11272976D01*
X1988928Y-11272976D02*
X1988928Y-11139643D01*
X1988928Y-11158690D02*
X1998452Y-11149167D01*
X2017500Y-11139643D01*
X2046071Y-11139643D01*
X2065119Y-11149167D01*
X2074643Y-11168214D01*
X2074643Y-11272976D01*
X2074643Y-11168214D02*
X2084167Y-11149167D01*
X2103214Y-11139643D01*
X2131786Y-11139643D01*
X2150833Y-11149167D01*
X2160357Y-11168214D01*
X2160357Y-11272976D01*
X2550833Y-11063452D02*
X2379405Y-11320595D01*
X2807976Y-11072976D02*
X2827024Y-11072976D01*
X2846071Y-11082500D01*
X2855595Y-11092024D01*
X2865119Y-11111071D01*
X2874643Y-11149167D01*
X2874643Y-11196786D01*
X2865119Y-11234881D01*
X2855595Y-11253928D01*
X2846071Y-11263452D01*
X2827024Y-11272976D01*
X2807976Y-11272976D01*
X2788929Y-11263452D01*
X2779405Y-11253928D01*
X2769881Y-11234881D01*
X2760357Y-11196786D01*
X2760357Y-11149167D01*
X2769881Y-11111071D01*
X2779405Y-11092024D01*
X2788929Y-11082500D01*
X2807976Y-11072976D01*
X2960357Y-11253928D02*
X2969881Y-11263452D01*
X2960357Y-11272976D01*
X2950833Y-11263452D01*
X2960357Y-11253928D01*
X2960357Y-11272976D01*
X3093690Y-11072976D02*
X3112738Y-11072976D01*
X3131786Y-11082500D01*
X3141309Y-11092024D01*
X3150833Y-11111071D01*
X3160357Y-11149167D01*
X3160357Y-11196786D01*
X3150833Y-11234881D01*
X3141309Y-11253928D01*
X3131786Y-11263452D01*
X3112738Y-11272976D01*
X3093690Y-11272976D01*
X3074643Y-11263452D01*
X3065119Y-11253928D01*
X3055595Y-11234881D01*
X3046071Y-11196786D01*
X3046071Y-11149167D01*
X3055595Y-11111071D01*
X3065119Y-11092024D01*
X3074643Y-11082500D01*
X3093690Y-11072976D01*
X3350833Y-11272976D02*
X3236548Y-11272976D01*
X3293690Y-11272976D02*
X3293690Y-11072976D01*
X3274643Y-11101548D01*
X3255595Y-11120595D01*
X3236548Y-11130119D01*
X3417500Y-11072976D02*
X3541309Y-11072976D01*
X3474643Y-11149167D01*
X3503214Y-11149167D01*
X3522262Y-11158690D01*
X3531786Y-11168214D01*
X3541309Y-11187262D01*
X3541309Y-11234881D01*
X3531786Y-11253928D01*
X3522262Y-11263452D01*
X3503214Y-11272976D01*
X3446071Y-11272976D01*
X3427024Y-11263452D01*
X3417500Y-11253928D01*
X3665119Y-11072976D02*
X3684167Y-11072976D01*
X3703214Y-11082500D01*
X3712738Y-11092024D01*
X3722262Y-11111071D01*
X3731786Y-11149167D01*
X3731786Y-11196786D01*
X3722262Y-11234881D01*
X3712738Y-11253928D01*
X3703214Y-11263452D01*
X3684167Y-11272976D01*
X3665119Y-11272976D01*
X3646071Y-11263452D01*
X3636548Y-11253928D01*
X3627024Y-11234881D01*
X3617500Y-11196786D01*
X3617500Y-11149167D01*
X3627024Y-11111071D01*
X3636548Y-11092024D01*
X3646071Y-11082500D01*
X3665119Y-11072976D01*
X3807976Y-11072976D02*
X3807976Y-11111071D01*
X3884167Y-11072976D02*
X3884167Y-11111071D01*
X4179405Y-11349167D02*
X4169881Y-11339643D01*
X4150833Y-11311071D01*
X4141309Y-11292024D01*
X4131786Y-11263452D01*
X4122262Y-11215833D01*
X4122262Y-11177738D01*
X4131786Y-11130119D01*
X4141309Y-11101548D01*
X4150833Y-11082500D01*
X4169881Y-11053929D01*
X4179405Y-11044405D01*
X4341310Y-11072976D02*
X4303214Y-11072976D01*
X4284167Y-11082500D01*
X4274643Y-11092024D01*
X4255595Y-11120595D01*
X4246071Y-11158690D01*
X4246071Y-11234881D01*
X4255595Y-11253928D01*
X4265119Y-11263452D01*
X4284167Y-11272976D01*
X4322262Y-11272976D01*
X4341310Y-11263452D01*
X4350833Y-11253928D01*
X4360357Y-11234881D01*
X4360357Y-11187262D01*
X4350833Y-11168214D01*
X4341310Y-11158690D01*
X4322262Y-11149167D01*
X4284167Y-11149167D01*
X4265119Y-11158690D01*
X4255595Y-11168214D01*
X4246071Y-11187262D01*
X4598452Y-11272976D02*
X4598452Y-11072976D01*
X4684167Y-11272976D02*
X4684167Y-11168214D01*
X4674643Y-11149167D01*
X4655595Y-11139643D01*
X4627024Y-11139643D01*
X4607976Y-11149167D01*
X4598452Y-11158690D01*
X4807976Y-11272976D02*
X4788929Y-11263452D01*
X4779405Y-11253928D01*
X4769881Y-11234881D01*
X4769881Y-11177738D01*
X4779405Y-11158690D01*
X4788929Y-11149167D01*
X4807976Y-11139643D01*
X4836548Y-11139643D01*
X4855595Y-11149167D01*
X4865119Y-11158690D01*
X4874643Y-11177738D01*
X4874643Y-11234881D01*
X4865119Y-11253928D01*
X4855595Y-11263452D01*
X4836548Y-11272976D01*
X4807976Y-11272976D01*
X4988929Y-11272976D02*
X4969881Y-11263452D01*
X4960357Y-11244405D01*
X4960357Y-11072976D01*
X5141310Y-11263452D02*
X5122262Y-11272976D01*
X5084167Y-11272976D01*
X5065119Y-11263452D01*
X5055595Y-11244405D01*
X5055595Y-11168214D01*
X5065119Y-11149167D01*
X5084167Y-11139643D01*
X5122262Y-11139643D01*
X5141310Y-11149167D01*
X5150833Y-11168214D01*
X5150833Y-11187262D01*
X5055595Y-11206309D01*
X5227024Y-11263452D02*
X5246071Y-11272976D01*
X5284167Y-11272976D01*
X5303214Y-11263452D01*
X5312738Y-11244405D01*
X5312738Y-11234881D01*
X5303214Y-11215833D01*
X5284167Y-11206309D01*
X5255595Y-11206309D01*
X5236548Y-11196786D01*
X5227024Y-11177738D01*
X5227024Y-11168214D01*
X5236548Y-11149167D01*
X5255595Y-11139643D01*
X5284167Y-11139643D01*
X5303214Y-11149167D01*
X5379405Y-11349167D02*
X5388929Y-11339643D01*
X5407976Y-11311071D01*
X5417500Y-11292024D01*
X5427024Y-11263452D01*
X5436548Y-11215833D01*
X5436548Y-11177738D01*
X5427024Y-11130119D01*
X5417500Y-11101548D01*
X5407976Y-11082500D01*
X5388929Y-11053929D01*
X5379405Y-11044405D01*
D13*
X607500Y-11446500D02*
G75*
G03*
X607500Y-11446500I-20000J0D01*
G01*
D11*
X903214Y-11336976D02*
X922262Y-11336976D01*
X941309Y-11346500D01*
X950833Y-11356024D01*
X960357Y-11375071D01*
X969881Y-11413167D01*
X969881Y-11460786D01*
X960357Y-11498881D01*
X950833Y-11517928D01*
X941309Y-11527452D01*
X922262Y-11536976D01*
X903214Y-11536976D01*
X884167Y-11527452D01*
X874643Y-11517928D01*
X865119Y-11498881D01*
X855595Y-11460786D01*
X855595Y-11413167D01*
X865119Y-11375071D01*
X874643Y-11356024D01*
X884167Y-11346500D01*
X903214Y-11336976D01*
X1055595Y-11517928D02*
X1065119Y-11527452D01*
X1055595Y-11536976D01*
X1046071Y-11527452D01*
X1055595Y-11517928D01*
X1055595Y-11536976D01*
X1236548Y-11403643D02*
X1236548Y-11536976D01*
X1188929Y-11327452D02*
X1141310Y-11470309D01*
X1265119Y-11470309D01*
X1379405Y-11336976D02*
X1398452Y-11336976D01*
X1417500Y-11346500D01*
X1427024Y-11356024D01*
X1436548Y-11375071D01*
X1446071Y-11413167D01*
X1446071Y-11460786D01*
X1436548Y-11498881D01*
X1427024Y-11517928D01*
X1417500Y-11527452D01*
X1398452Y-11536976D01*
X1379405Y-11536976D01*
X1360357Y-11527452D01*
X1350833Y-11517928D01*
X1341310Y-11498881D01*
X1331786Y-11460786D01*
X1331786Y-11413167D01*
X1341310Y-11375071D01*
X1350833Y-11356024D01*
X1360357Y-11346500D01*
X1379405Y-11336976D01*
X1569881Y-11336976D02*
X1588928Y-11336976D01*
X1607976Y-11346500D01*
X1617500Y-11356024D01*
X1627024Y-11375071D01*
X1636548Y-11413167D01*
X1636548Y-11460786D01*
X1627024Y-11498881D01*
X1617500Y-11517928D01*
X1607976Y-11527452D01*
X1588928Y-11536976D01*
X1569881Y-11536976D01*
X1550833Y-11527452D01*
X1541309Y-11517928D01*
X1531786Y-11498881D01*
X1522262Y-11460786D01*
X1522262Y-11413167D01*
X1531786Y-11375071D01*
X1541309Y-11356024D01*
X1550833Y-11346500D01*
X1569881Y-11336976D01*
X1722262Y-11536976D02*
X1722262Y-11403643D01*
X1722262Y-11422690D02*
X1731786Y-11413167D01*
X1750833Y-11403643D01*
X1779405Y-11403643D01*
X1798452Y-11413167D01*
X1807976Y-11432214D01*
X1807976Y-11536976D01*
X1807976Y-11432214D02*
X1817500Y-11413167D01*
X1836548Y-11403643D01*
X1865119Y-11403643D01*
X1884167Y-11413167D01*
X1893690Y-11432214D01*
X1893690Y-11536976D01*
X1988928Y-11536976D02*
X1988928Y-11403643D01*
X1988928Y-11422690D02*
X1998452Y-11413167D01*
X2017500Y-11403643D01*
X2046071Y-11403643D01*
X2065119Y-11413167D01*
X2074643Y-11432214D01*
X2074643Y-11536976D01*
X2074643Y-11432214D02*
X2084167Y-11413167D01*
X2103214Y-11403643D01*
X2131786Y-11403643D01*
X2150833Y-11413167D01*
X2160357Y-11432214D01*
X2160357Y-11536976D01*
X2550833Y-11327452D02*
X2379405Y-11584595D01*
X2807976Y-11336976D02*
X2827024Y-11336976D01*
X2846071Y-11346500D01*
X2855595Y-11356024D01*
X2865119Y-11375071D01*
X2874643Y-11413167D01*
X2874643Y-11460786D01*
X2865119Y-11498881D01*
X2855595Y-11517928D01*
X2846071Y-11527452D01*
X2827024Y-11536976D01*
X2807976Y-11536976D01*
X2788929Y-11527452D01*
X2779405Y-11517928D01*
X2769881Y-11498881D01*
X2760357Y-11460786D01*
X2760357Y-11413167D01*
X2769881Y-11375071D01*
X2779405Y-11356024D01*
X2788929Y-11346500D01*
X2807976Y-11336976D01*
X2960357Y-11517928D02*
X2969881Y-11527452D01*
X2960357Y-11536976D01*
X2950833Y-11527452D01*
X2960357Y-11517928D01*
X2960357Y-11536976D01*
X3093690Y-11336976D02*
X3112738Y-11336976D01*
X3131786Y-11346500D01*
X3141309Y-11356024D01*
X3150833Y-11375071D01*
X3160357Y-11413167D01*
X3160357Y-11460786D01*
X3150833Y-11498881D01*
X3141309Y-11517928D01*
X3131786Y-11527452D01*
X3112738Y-11536976D01*
X3093690Y-11536976D01*
X3074643Y-11527452D01*
X3065119Y-11517928D01*
X3055595Y-11498881D01*
X3046071Y-11460786D01*
X3046071Y-11413167D01*
X3055595Y-11375071D01*
X3065119Y-11356024D01*
X3074643Y-11346500D01*
X3093690Y-11336976D01*
X3350833Y-11536976D02*
X3236548Y-11536976D01*
X3293690Y-11536976D02*
X3293690Y-11336976D01*
X3274643Y-11365548D01*
X3255595Y-11384595D01*
X3236548Y-11394119D01*
X3531786Y-11336976D02*
X3436548Y-11336976D01*
X3427024Y-11432214D01*
X3436548Y-11422690D01*
X3455595Y-11413167D01*
X3503214Y-11413167D01*
X3522262Y-11422690D01*
X3531786Y-11432214D01*
X3541309Y-11451262D01*
X3541309Y-11498881D01*
X3531786Y-11517928D01*
X3522262Y-11527452D01*
X3503214Y-11536976D01*
X3455595Y-11536976D01*
X3436548Y-11527452D01*
X3427024Y-11517928D01*
X3607976Y-11336976D02*
X3741309Y-11336976D01*
X3655595Y-11536976D01*
X3807976Y-11336976D02*
X3807976Y-11375071D01*
X3884167Y-11336976D02*
X3884167Y-11375071D01*
X4179405Y-11613167D02*
X4169881Y-11603643D01*
X4150833Y-11575071D01*
X4141309Y-11556024D01*
X4131786Y-11527452D01*
X4122262Y-11479833D01*
X4122262Y-11441738D01*
X4131786Y-11394119D01*
X4141309Y-11365548D01*
X4150833Y-11346500D01*
X4169881Y-11317928D01*
X4179405Y-11308405D01*
X4284167Y-11422690D02*
X4265119Y-11413167D01*
X4255595Y-11403643D01*
X4246071Y-11384595D01*
X4246071Y-11375071D01*
X4255595Y-11356024D01*
X4265119Y-11346500D01*
X4284167Y-11336976D01*
X4322262Y-11336976D01*
X4341310Y-11346500D01*
X4350833Y-11356024D01*
X4360357Y-11375071D01*
X4360357Y-11384595D01*
X4350833Y-11403643D01*
X4341310Y-11413167D01*
X4322262Y-11422690D01*
X4284167Y-11422690D01*
X4265119Y-11432214D01*
X4255595Y-11441738D01*
X4246071Y-11460786D01*
X4246071Y-11498881D01*
X4255595Y-11517928D01*
X4265119Y-11527452D01*
X4284167Y-11536976D01*
X4322262Y-11536976D01*
X4341310Y-11527452D01*
X4350833Y-11517928D01*
X4360357Y-11498881D01*
X4360357Y-11460786D01*
X4350833Y-11441738D01*
X4341310Y-11432214D01*
X4322262Y-11422690D01*
X4436548Y-11356024D02*
X4446071Y-11346500D01*
X4465119Y-11336976D01*
X4512738Y-11336976D01*
X4531786Y-11346500D01*
X4541310Y-11356024D01*
X4550833Y-11375071D01*
X4550833Y-11394119D01*
X4541310Y-11422690D01*
X4427024Y-11536976D01*
X4550833Y-11536976D01*
X4788929Y-11536976D02*
X4788929Y-11336976D01*
X4874643Y-11536976D02*
X4874643Y-11432214D01*
X4865119Y-11413167D01*
X4846071Y-11403643D01*
X4817500Y-11403643D01*
X4798452Y-11413167D01*
X4788929Y-11422690D01*
X4998452Y-11536976D02*
X4979405Y-11527452D01*
X4969881Y-11517928D01*
X4960357Y-11498881D01*
X4960357Y-11441738D01*
X4969881Y-11422690D01*
X4979405Y-11413167D01*
X4998452Y-11403643D01*
X5027024Y-11403643D01*
X5046071Y-11413167D01*
X5055595Y-11422690D01*
X5065119Y-11441738D01*
X5065119Y-11498881D01*
X5055595Y-11517928D01*
X5046071Y-11527452D01*
X5027024Y-11536976D01*
X4998452Y-11536976D01*
X5179405Y-11536976D02*
X5160357Y-11527452D01*
X5150833Y-11508405D01*
X5150833Y-11336976D01*
X5331786Y-11527452D02*
X5312738Y-11536976D01*
X5274643Y-11536976D01*
X5255595Y-11527452D01*
X5246071Y-11508405D01*
X5246071Y-11432214D01*
X5255595Y-11413167D01*
X5274643Y-11403643D01*
X5312738Y-11403643D01*
X5331786Y-11413167D01*
X5341310Y-11432214D01*
X5341310Y-11451262D01*
X5246071Y-11470309D01*
X5417500Y-11527452D02*
X5436548Y-11536976D01*
X5474643Y-11536976D01*
X5493690Y-11527452D01*
X5503214Y-11508405D01*
X5503214Y-11498881D01*
X5493690Y-11479833D01*
X5474643Y-11470309D01*
X5446071Y-11470309D01*
X5427024Y-11460786D01*
X5417500Y-11441738D01*
X5417500Y-11432214D01*
X5427024Y-11413167D01*
X5446071Y-11403643D01*
X5474643Y-11403643D01*
X5493690Y-11413167D01*
X5569881Y-11613167D02*
X5579405Y-11603643D01*
X5598452Y-11575071D01*
X5607976Y-11556024D01*
X5617500Y-11527452D01*
X5627024Y-11479833D01*
X5627024Y-11441738D01*
X5617500Y-11394119D01*
X5607976Y-11365548D01*
X5598452Y-11346500D01*
X5579405Y-11317928D01*
X5569881Y-11308405D01*
D14*
X557500Y-11660500D02*
X557500Y-11760500D01*
X507500Y-11710500D02*
X607500Y-11710500D01*
D11*
X969881Y-11800976D02*
X855595Y-11800976D01*
X912738Y-11800976D02*
X912738Y-11600976D01*
X893690Y-11629548D01*
X874643Y-11648595D01*
X855595Y-11658119D01*
X1055595Y-11781928D02*
X1065119Y-11791452D01*
X1055595Y-11800976D01*
X1046071Y-11791452D01*
X1055595Y-11781928D01*
X1055595Y-11800976D01*
X1188929Y-11600976D02*
X1207976Y-11600976D01*
X1227024Y-11610500D01*
X1236548Y-11620024D01*
X1246071Y-11639071D01*
X1255595Y-11677167D01*
X1255595Y-11724786D01*
X1246071Y-11762881D01*
X1236548Y-11781928D01*
X1227024Y-11791452D01*
X1207976Y-11800976D01*
X1188929Y-11800976D01*
X1169881Y-11791452D01*
X1160357Y-11781928D01*
X1150833Y-11762881D01*
X1141310Y-11724786D01*
X1141310Y-11677167D01*
X1150833Y-11639071D01*
X1160357Y-11620024D01*
X1169881Y-11610500D01*
X1188929Y-11600976D01*
X1379405Y-11600976D02*
X1398452Y-11600976D01*
X1417500Y-11610500D01*
X1427024Y-11620024D01*
X1436548Y-11639071D01*
X1446071Y-11677167D01*
X1446071Y-11724786D01*
X1436548Y-11762881D01*
X1427024Y-11781928D01*
X1417500Y-11791452D01*
X1398452Y-11800976D01*
X1379405Y-11800976D01*
X1360357Y-11791452D01*
X1350833Y-11781928D01*
X1341310Y-11762881D01*
X1331786Y-11724786D01*
X1331786Y-11677167D01*
X1341310Y-11639071D01*
X1350833Y-11620024D01*
X1360357Y-11610500D01*
X1379405Y-11600976D01*
X1569881Y-11600976D02*
X1588928Y-11600976D01*
X1607976Y-11610500D01*
X1617500Y-11620024D01*
X1627024Y-11639071D01*
X1636548Y-11677167D01*
X1636548Y-11724786D01*
X1627024Y-11762881D01*
X1617500Y-11781928D01*
X1607976Y-11791452D01*
X1588928Y-11800976D01*
X1569881Y-11800976D01*
X1550833Y-11791452D01*
X1541309Y-11781928D01*
X1531786Y-11762881D01*
X1522262Y-11724786D01*
X1522262Y-11677167D01*
X1531786Y-11639071D01*
X1541309Y-11620024D01*
X1550833Y-11610500D01*
X1569881Y-11600976D01*
X1722262Y-11800976D02*
X1722262Y-11667643D01*
X1722262Y-11686690D02*
X1731786Y-11677167D01*
X1750833Y-11667643D01*
X1779405Y-11667643D01*
X1798452Y-11677167D01*
X1807976Y-11696214D01*
X1807976Y-11800976D01*
X1807976Y-11696214D02*
X1817500Y-11677167D01*
X1836548Y-11667643D01*
X1865119Y-11667643D01*
X1884167Y-11677167D01*
X1893690Y-11696214D01*
X1893690Y-11800976D01*
X1988928Y-11800976D02*
X1988928Y-11667643D01*
X1988928Y-11686690D02*
X1998452Y-11677167D01*
X2017500Y-11667643D01*
X2046071Y-11667643D01*
X2065119Y-11677167D01*
X2074643Y-11696214D01*
X2074643Y-11800976D01*
X2074643Y-11696214D02*
X2084167Y-11677167D01*
X2103214Y-11667643D01*
X2131786Y-11667643D01*
X2150833Y-11677167D01*
X2160357Y-11696214D01*
X2160357Y-11800976D01*
X2550833Y-11591452D02*
X2379405Y-11848595D01*
X2807976Y-11600976D02*
X2827024Y-11600976D01*
X2846071Y-11610500D01*
X2855595Y-11620024D01*
X2865119Y-11639071D01*
X2874643Y-11677167D01*
X2874643Y-11724786D01*
X2865119Y-11762881D01*
X2855595Y-11781928D01*
X2846071Y-11791452D01*
X2827024Y-11800976D01*
X2807976Y-11800976D01*
X2788929Y-11791452D01*
X2779405Y-11781928D01*
X2769881Y-11762881D01*
X2760357Y-11724786D01*
X2760357Y-11677167D01*
X2769881Y-11639071D01*
X2779405Y-11620024D01*
X2788929Y-11610500D01*
X2807976Y-11600976D01*
X2960357Y-11781928D02*
X2969881Y-11791452D01*
X2960357Y-11800976D01*
X2950833Y-11791452D01*
X2960357Y-11781928D01*
X2960357Y-11800976D01*
X3093690Y-11600976D02*
X3112738Y-11600976D01*
X3131786Y-11610500D01*
X3141309Y-11620024D01*
X3150833Y-11639071D01*
X3160357Y-11677167D01*
X3160357Y-11724786D01*
X3150833Y-11762881D01*
X3141309Y-11781928D01*
X3131786Y-11791452D01*
X3112738Y-11800976D01*
X3093690Y-11800976D01*
X3074643Y-11791452D01*
X3065119Y-11781928D01*
X3055595Y-11762881D01*
X3046071Y-11724786D01*
X3046071Y-11677167D01*
X3055595Y-11639071D01*
X3065119Y-11620024D01*
X3074643Y-11610500D01*
X3093690Y-11600976D01*
X3227024Y-11600976D02*
X3350833Y-11600976D01*
X3284167Y-11677167D01*
X3312738Y-11677167D01*
X3331786Y-11686690D01*
X3341309Y-11696214D01*
X3350833Y-11715262D01*
X3350833Y-11762881D01*
X3341309Y-11781928D01*
X3331786Y-11791452D01*
X3312738Y-11800976D01*
X3255595Y-11800976D01*
X3236548Y-11791452D01*
X3227024Y-11781928D01*
X3446071Y-11800976D02*
X3484167Y-11800976D01*
X3503214Y-11791452D01*
X3512738Y-11781928D01*
X3531786Y-11753357D01*
X3541309Y-11715262D01*
X3541309Y-11639071D01*
X3531786Y-11620024D01*
X3522262Y-11610500D01*
X3503214Y-11600976D01*
X3465119Y-11600976D01*
X3446071Y-11610500D01*
X3436548Y-11620024D01*
X3427024Y-11639071D01*
X3427024Y-11686690D01*
X3436548Y-11705738D01*
X3446071Y-11715262D01*
X3465119Y-11724786D01*
X3503214Y-11724786D01*
X3522262Y-11715262D01*
X3531786Y-11705738D01*
X3541309Y-11686690D01*
X3712738Y-11667643D02*
X3712738Y-11800976D01*
X3665119Y-11591452D02*
X3617500Y-11734309D01*
X3741309Y-11734309D01*
X3807976Y-11600976D02*
X3807976Y-11639071D01*
X3884167Y-11600976D02*
X3884167Y-11639071D01*
X4179405Y-11877167D02*
X4169881Y-11867643D01*
X4150833Y-11839071D01*
X4141309Y-11820024D01*
X4131786Y-11791452D01*
X4122262Y-11743833D01*
X4122262Y-11705738D01*
X4131786Y-11658119D01*
X4141309Y-11629548D01*
X4150833Y-11610500D01*
X4169881Y-11581928D01*
X4179405Y-11572405D01*
X4360357Y-11800976D02*
X4246071Y-11800976D01*
X4303214Y-11800976D02*
X4303214Y-11600976D01*
X4284167Y-11629548D01*
X4265119Y-11648595D01*
X4246071Y-11658119D01*
X4484167Y-11600976D02*
X4503214Y-11600976D01*
X4522262Y-11610500D01*
X4531786Y-11620024D01*
X4541310Y-11639071D01*
X4550833Y-11677167D01*
X4550833Y-11724786D01*
X4541310Y-11762881D01*
X4531786Y-11781928D01*
X4522262Y-11791452D01*
X4503214Y-11800976D01*
X4484167Y-11800976D01*
X4465119Y-11791452D01*
X4455595Y-11781928D01*
X4446071Y-11762881D01*
X4436548Y-11724786D01*
X4436548Y-11677167D01*
X4446071Y-11639071D01*
X4455595Y-11620024D01*
X4465119Y-11610500D01*
X4484167Y-11600976D01*
X4788929Y-11800976D02*
X4788929Y-11600976D01*
X4874643Y-11800976D02*
X4874643Y-11696214D01*
X4865119Y-11677167D01*
X4846071Y-11667643D01*
X4817500Y-11667643D01*
X4798452Y-11677167D01*
X4788929Y-11686690D01*
X4998452Y-11800976D02*
X4979405Y-11791452D01*
X4969881Y-11781928D01*
X4960357Y-11762881D01*
X4960357Y-11705738D01*
X4969881Y-11686690D01*
X4979405Y-11677167D01*
X4998452Y-11667643D01*
X5027024Y-11667643D01*
X5046071Y-11677167D01*
X5055595Y-11686690D01*
X5065119Y-11705738D01*
X5065119Y-11762881D01*
X5055595Y-11781928D01*
X5046071Y-11791452D01*
X5027024Y-11800976D01*
X4998452Y-11800976D01*
X5179405Y-11800976D02*
X5160357Y-11791452D01*
X5150833Y-11772405D01*
X5150833Y-11600976D01*
X5331786Y-11791452D02*
X5312738Y-11800976D01*
X5274643Y-11800976D01*
X5255595Y-11791452D01*
X5246071Y-11772405D01*
X5246071Y-11696214D01*
X5255595Y-11677167D01*
X5274643Y-11667643D01*
X5312738Y-11667643D01*
X5331786Y-11677167D01*
X5341310Y-11696214D01*
X5341310Y-11715262D01*
X5246071Y-11734309D01*
X5417500Y-11791452D02*
X5436548Y-11800976D01*
X5474643Y-11800976D01*
X5493690Y-11791452D01*
X5503214Y-11772405D01*
X5503214Y-11762881D01*
X5493690Y-11743833D01*
X5474643Y-11734309D01*
X5446071Y-11734309D01*
X5427024Y-11724786D01*
X5417500Y-11705738D01*
X5417500Y-11696214D01*
X5427024Y-11677167D01*
X5446071Y-11667643D01*
X5474643Y-11667643D01*
X5493690Y-11677167D01*
X5569881Y-11877167D02*
X5579405Y-11867643D01*
X5598452Y-11839071D01*
X5607976Y-11820024D01*
X5617500Y-11791452D01*
X5627024Y-11743833D01*
X5627024Y-11705738D01*
X5617500Y-11658119D01*
X5607976Y-11629548D01*
X5598452Y-11610500D01*
X5579405Y-11581928D01*
X5569881Y-11572405D01*
M02*
