G04 #@! TF.GenerationSoftware,KiCad,Pcbnew,(6.0.5)*
G04 #@! TF.CreationDate,2022-06-02T14:19:20-07:00*
G04 #@! TF.ProjectId,indexingWheel,696e6465-7869-46e6-9757-6865656c2e6b,rev?*
G04 #@! TF.SameCoordinates,Original*
G04 #@! TF.FileFunction,Profile,NP*
%FSLAX46Y46*%
G04 Gerber Fmt 4.6, Leading zero omitted, Abs format (unit mm)*
G04 Created by KiCad (PCBNEW (6.0.5)) date 2022-06-02 14:19:20*
%MOMM*%
%LPD*%
G01*
G04 APERTURE LIST*
G04 #@! TA.AperFunction,Profile*
%ADD10C,0.050000*%
G04 #@! TD*
G04 APERTURE END LIST*
D10*
X149826865Y-116405047D02*
G75*
G03*
X150413858Y-116012081I97035J489947D01*
G01*
X171092919Y-98452081D02*
G75*
G03*
X170592858Y-97952081I-500019J-19D01*
G01*
X159749858Y-81976081D02*
X160211858Y-82168081D01*
X143369858Y-109485081D02*
X141248858Y-111607081D01*
X147503875Y-111541040D02*
G75*
G03*
X146850855Y-111812089I-190975J-462060D01*
G01*
X145903858Y-80039081D02*
X145518858Y-79109081D01*
X160211859Y-115236082D02*
G75*
G03*
X160482858Y-114583081I-190959J461982D01*
G01*
X139312858Y-101188081D02*
X139410858Y-101678081D01*
X170402856Y-96024070D02*
G75*
G03*
X170796858Y-95436081I-96956J490970D01*
G01*
X138125858Y-107801081D02*
X140619858Y-106134081D01*
X142400859Y-115604080D02*
G75*
G03*
X144979867Y-116982558I10691941J16901880D01*
G01*
X162815877Y-108778100D02*
G75*
G03*
X162814864Y-109485087I353023J-354000D01*
G01*
X136746858Y-87178081D02*
X135909858Y-86619081D01*
X133580858Y-94311081D02*
X132593858Y-94115081D01*
X162884858Y-83597081D02*
X163300858Y-83874081D01*
X155770858Y-116012081D02*
X155185858Y-113070081D01*
X140187877Y-110546100D02*
G75*
G03*
X140187858Y-111254081I354023J-354000D01*
G01*
X172604858Y-103093081D02*
X173591858Y-103289081D01*
X160482858Y-82821081D02*
X159334858Y-85593081D01*
X169438855Y-87178083D02*
G75*
G03*
X167583652Y-84917627I-16346055J-11524017D01*
G01*
X166201858Y-92460081D02*
X168973858Y-91312081D01*
X138601858Y-84918081D02*
X137889858Y-84206081D01*
X172799858Y-102112081D02*
X173786858Y-102309081D01*
X152342858Y-116202081D02*
X152342858Y-113202081D01*
X155578856Y-112482071D02*
G75*
G03*
X155186860Y-113070090I98044J-490029D01*
G01*
X153592858Y-118696087D02*
G75*
G03*
X156503119Y-118409444I-500058J19994187D01*
G01*
X165565858Y-106134081D02*
X168059858Y-107801081D01*
X139312921Y-101188068D02*
G75*
G03*
X138724849Y-100796083I-490021J-98032D01*
G01*
X143369877Y-88626100D02*
G75*
G03*
X143370852Y-87919075I-352977J354000D01*
G01*
X142400858Y-115604081D02*
X141841858Y-116441081D01*
X164732858Y-90023081D02*
X167226858Y-88356081D01*
X140253858Y-93113081D02*
X140062858Y-93575081D01*
X153842919Y-113202081D02*
G75*
G03*
X153342858Y-112702081I-500019J-19D01*
G01*
X170592858Y-99452058D02*
G75*
G03*
X171092858Y-98952081I42J499958D01*
G01*
X166122918Y-93575056D02*
G75*
G03*
X166775866Y-93846078I461982J190956D01*
G01*
X163168900Y-88979039D02*
G75*
G03*
X163875864Y-88980075I354000J352939D01*
G01*
X138592858Y-99452081D02*
X135592858Y-99452081D01*
X163784858Y-81800081D02*
X164343858Y-80963081D01*
X138596881Y-83499058D02*
G75*
G03*
X137890858Y-84207081I-352981J-354042D01*
G01*
X162884887Y-83597037D02*
G75*
G03*
X162192858Y-83735081I-276987J-415063D01*
G01*
X153592858Y-118696081D02*
X153592858Y-119702081D01*
X145106887Y-110204037D02*
G75*
G03*
X144413853Y-110341088I-277987J-415063D01*
G01*
X140062919Y-103829056D02*
G75*
G03*
X139409850Y-103558084I-462019J-191044D01*
G01*
X156656858Y-112777081D02*
X157242858Y-115719081D01*
X171372858Y-90589081D02*
X172302858Y-90204081D01*
X156849858Y-116307081D02*
X156358858Y-116405081D01*
X162815858Y-87919081D02*
X164936858Y-85797081D01*
X165175933Y-81519131D02*
G75*
G03*
X164343858Y-80963081I-416033J278031D01*
G01*
X166775858Y-103558081D02*
X169547858Y-104706081D01*
X170402858Y-96024081D02*
X167460858Y-96609081D01*
X139409875Y-93846040D02*
G75*
G03*
X140062858Y-93575081I191025J461940D01*
G01*
X149682859Y-118409076D02*
G75*
G03*
X152593063Y-118695684I3410041J19707076D01*
G01*
X165931858Y-104291081D02*
X166122858Y-103829081D01*
X167460858Y-100795081D02*
X170402858Y-101380081D01*
X149335858Y-81097081D02*
X149826858Y-80999081D01*
X132398869Y-102309134D02*
G75*
G03*
X132594858Y-103289081I98031J-489966D01*
G01*
X138724858Y-96609081D02*
X135782858Y-96024081D01*
X135487858Y-102459081D02*
X135389858Y-101968081D01*
X164616858Y-115048081D02*
X165175858Y-115885081D01*
X164616858Y-82356081D02*
X165175858Y-81519081D01*
X147965858Y-85672081D02*
X147503858Y-85863081D01*
X150999912Y-113070092D02*
G75*
G03*
X150606858Y-112481081I-491012J97992D01*
G01*
X141568858Y-82356081D02*
X141009858Y-81519081D01*
X170795912Y-101968092D02*
G75*
G03*
X170402858Y-101381081I-490012J96992D01*
G01*
X138958858Y-88356081D02*
X141452858Y-90023081D01*
X169547859Y-92698082D02*
G75*
G03*
X169818858Y-92045081I-190959J461982D01*
G01*
X152592858Y-78708081D02*
X152592858Y-77702081D01*
X167588881Y-113905058D02*
G75*
G03*
X168294858Y-113197081I353019J353958D01*
G01*
X169438858Y-110226081D02*
X170275858Y-110785081D01*
X160211858Y-115236081D02*
X159749858Y-115428081D01*
X138601856Y-84918079D02*
G75*
G03*
X136746720Y-87178561I14490944J-13783921D01*
G01*
X161771911Y-110342046D02*
G75*
G03*
X161079858Y-110204081I-415011J-277054D01*
G01*
X139308858Y-84211081D02*
X138596858Y-83499081D01*
X163875858Y-108425081D02*
G75*
G03*
X163169858Y-108425081I-353000J-353001D01*
G01*
X171755858Y-91513081D02*
X172685858Y-91128081D01*
X155185858Y-84334081D02*
X155770858Y-81392081D01*
X146435875Y-115428040D02*
G75*
G03*
X147088858Y-115157081I191025J461940D01*
G01*
X150414922Y-81392068D02*
G75*
G03*
X149826858Y-80998081I-491022J-97032D01*
G01*
X167167858Y-95138081D02*
X170109858Y-94552081D01*
X164594889Y-106688102D02*
G75*
G03*
X164731865Y-107381086I415011J-277998D01*
G01*
X163168858Y-88979081D02*
X162815858Y-88626081D01*
X152592858Y-78708077D02*
G75*
G03*
X149682597Y-78994718I500042J-19994123D01*
G01*
X132092858Y-98202119D02*
G75*
G03*
X132092858Y-99202081I42J-499981D01*
G01*
X161205859Y-116982083D02*
G75*
G03*
X163784798Y-115603607I-8113059J18280083D01*
G01*
X144979858Y-116982081D02*
X144594858Y-117912081D01*
X135782856Y-101380071D02*
G75*
G03*
X135388858Y-101968081I97044J-491029D01*
G01*
X149485931Y-78008066D02*
G75*
G03*
X148505858Y-78204081I-490031J-98034D01*
G01*
X171372858Y-106815081D02*
X172302858Y-107200081D01*
X164616857Y-115048080D02*
G75*
G03*
X166877312Y-113192875I-11524057J16346080D01*
G01*
X133499884Y-106276143D02*
G75*
G03*
X133883858Y-107200081I192016J-461957D01*
G01*
X167460865Y-100795048D02*
G75*
G03*
X166871858Y-101188081I-97965J-491052D01*
G01*
X169818858Y-105359081D02*
X169626858Y-105821081D01*
X149335856Y-81097071D02*
G75*
G03*
X148943858Y-81685081I98044J-490029D01*
G01*
X159334858Y-111811081D02*
X160482858Y-114583081D01*
X162815877Y-87919100D02*
G75*
G03*
X162815858Y-88625081I353023J-353000D01*
G01*
X166774858Y-101678081D02*
X166872858Y-101188081D01*
X145522866Y-86923093D02*
G75*
G03*
X145660853Y-86229074I-277966J415993D01*
G01*
X170275867Y-110785068D02*
G75*
G03*
X170831858Y-109953081I278033J415968D01*
G01*
X140253902Y-93113099D02*
G75*
G03*
X139982850Y-92460078I-462002J190999D01*
G01*
X135389858Y-95436081D02*
X135487858Y-94945081D01*
X167592858Y-97952081D02*
X170592858Y-97952081D01*
X134812858Y-106815081D02*
X133882858Y-107200081D01*
X166775875Y-103558040D02*
G75*
G03*
X166122858Y-103829081I-190975J-462060D01*
G01*
X163784858Y-81800082D02*
G75*
G03*
X161205849Y-80421604I-10691958J-16901918D01*
G01*
X153842919Y-81202081D02*
G75*
G03*
X153342858Y-80702081I-500019J-19D01*
G01*
X170109858Y-102852081D02*
X167167858Y-102266081D01*
X146850858Y-85593081D02*
X145702858Y-82821081D01*
X135909866Y-86619069D02*
G75*
G03*
X135353858Y-87451081I-277966J-416031D01*
G01*
X137211858Y-91312081D02*
X139983858Y-92460081D01*
X152342919Y-84202081D02*
G75*
G03*
X152842858Y-84702081I499981J-19D01*
G01*
X136190852Y-88010077D02*
G75*
G03*
X134812381Y-90589090I16901948J-10691923D01*
G01*
X153342858Y-116702058D02*
G75*
G03*
X153842858Y-116202081I42J499958D01*
G01*
X167920911Y-88494046D02*
G75*
G03*
X167226858Y-88356081I-416011J-278054D01*
G01*
X139983858Y-104944081D02*
X137211858Y-106092081D01*
X164936858Y-111607081D02*
G75*
G03*
X165644858Y-111607081I354000J353999D01*
G01*
X159096919Y-115157056D02*
G75*
G03*
X159749858Y-115428081I461981J190956D01*
G01*
X133385859Y-95292081D02*
G75*
G03*
X133099255Y-98202286I19707141J-3410019D01*
G01*
X157948902Y-85019099D02*
G75*
G03*
X158219858Y-85672081I461998J-191001D01*
G01*
X166876856Y-84211083D02*
G75*
G03*
X164616378Y-82355943I-13783956J-14490917D01*
G01*
X136637858Y-104706081D02*
X139409858Y-103558081D01*
X152842858Y-80702081D02*
X153342858Y-80702081D01*
X138125866Y-107801094D02*
G75*
G03*
X137986858Y-108494081I277034J-416006D01*
G01*
X155185912Y-84334092D02*
G75*
G03*
X155578858Y-84923081I490988J-98008D01*
G01*
X172685884Y-91128144D02*
G75*
G03*
X172301858Y-90204081I-191984J462044D01*
G01*
X166872921Y-96216068D02*
G75*
G03*
X167460867Y-96608079I489979J97968D01*
G01*
X156502857Y-78995088D02*
G75*
G03*
X153592653Y-78708478I-3410057J-19707112D01*
G01*
X156068865Y-85020048D02*
G75*
G03*
X156657860Y-84627072I98035J490948D01*
G01*
X162815858Y-108778081D02*
X163168858Y-108425081D01*
X173086859Y-98202081D02*
G75*
G03*
X172800221Y-95291820I-19994159J-500019D01*
G01*
X141248858Y-85797081D02*
G75*
G03*
X140540858Y-85797081I-354000J-353999D01*
G01*
X157679946Y-78203099D02*
G75*
G03*
X156699858Y-78009081I-490046J96999D01*
G01*
X133580853Y-103093082D02*
G75*
G03*
X134429744Y-105891462I19512147J4391082D01*
G01*
X169626919Y-91583056D02*
G75*
G03*
X168973858Y-91312081I-462019J-191044D01*
G01*
X168059858Y-89603081D02*
X165565858Y-91270081D01*
X144594943Y-117912116D02*
G75*
G03*
X145518858Y-118294081I461957J-190984D01*
G01*
X169994858Y-88010081D02*
X170831858Y-87451081D01*
X157483858Y-79190081D02*
X157679858Y-78203081D01*
X142884858Y-83874081D02*
X143300858Y-83597081D01*
X171755858Y-105891081D02*
X172685858Y-106276081D01*
X151125877Y-96852099D02*
G75*
G03*
X151126226Y-100552472I1967023J-1850001D01*
G01*
X136558919Y-105821056D02*
G75*
G03*
X137211858Y-106092081I461981J190956D01*
G01*
X148236902Y-112385099D02*
G75*
G03*
X147965858Y-111732081I-462002J190999D01*
G01*
X134812858Y-90589081D02*
X133882858Y-90204081D01*
X144413911Y-87062046D02*
G75*
G03*
X145105858Y-87200081I414989J276946D01*
G01*
X157483859Y-118214086D02*
G75*
G03*
X160282239Y-117365195I-4391059J19512086D01*
G01*
X139017856Y-102266070D02*
G75*
G03*
X139409858Y-101678081I-97956J489970D01*
G01*
X148942858Y-115719081D02*
X149528858Y-112777081D01*
X168197858Y-108494081D02*
X167920858Y-108910081D01*
X133385858Y-102112081D02*
X132398858Y-102309081D01*
X166774912Y-101678092D02*
G75*
G03*
X167167867Y-102267083I490988J-98008D01*
G01*
X136190858Y-109394081D02*
X135353858Y-109953081D01*
X143300888Y-113807037D02*
G75*
G03*
X143992858Y-113669081I277012J414937D01*
G01*
X163875858Y-108425081D02*
X165997858Y-110546081D01*
X149528858Y-84627081D02*
X148942858Y-81685081D01*
X163300858Y-113530081D02*
X162884858Y-113807081D01*
X167092919Y-98952081D02*
G75*
G03*
X167592867Y-99452081I499981J-19D01*
G01*
X149682858Y-78995081D02*
X149485858Y-78008081D01*
X133882857Y-90204084D02*
G75*
G03*
X133500858Y-91128081I-190957J-462016D01*
G01*
X141568858Y-115048081D02*
X141009858Y-115885081D01*
X165643900Y-85797039D02*
G75*
G03*
X164936858Y-85798081I-353000J-354061D01*
G01*
X139092919Y-98452081D02*
G75*
G03*
X138592849Y-97952081I-500019J-19D01*
G01*
X171092858Y-98452081D02*
X171092858Y-98952081D01*
X158681858Y-85863081D02*
X158219858Y-85672081D01*
X151125858Y-100552081D02*
X155059858Y-100552081D01*
X167092858Y-98952081D02*
X167092858Y-98452081D01*
X142309858Y-88979081D02*
X140187858Y-86858081D01*
X167583857Y-112486080D02*
G75*
G03*
X169438996Y-110225601I-14490957J13783980D01*
G01*
X145702858Y-114583081D02*
X146850858Y-111811081D01*
X169438858Y-87178081D02*
X170275858Y-86619081D01*
X160662858Y-110481081D02*
X161078858Y-110204081D01*
X153592858Y-77702081D02*
G75*
G03*
X152592858Y-77702081I-500000J0D01*
G01*
X151125858Y-96852081D02*
X155059858Y-96852081D01*
X141452866Y-107381094D02*
G75*
G03*
X141590858Y-106689081I-276966J414994D01*
G01*
X147965859Y-85672083D02*
G75*
G03*
X148236855Y-85019073I-190959J461983D01*
G01*
X168295919Y-84206142D02*
G75*
G03*
X167587858Y-83500081I-354019J353042D01*
G01*
X169994858Y-109394081D02*
X170831858Y-109953081D01*
X152342919Y-116202081D02*
G75*
G03*
X152842858Y-116702081I499981J-19D01*
G01*
X141313858Y-106272081D02*
X141590858Y-106688081D01*
X167167856Y-95138071D02*
G75*
G03*
X166775858Y-95726081I98044J-490029D01*
G01*
X153842858Y-113202081D02*
X153842858Y-116202081D01*
X140187858Y-86151081D02*
X140541858Y-85797081D01*
X140541858Y-111607081D02*
X140187858Y-111253081D01*
X160281859Y-80039079D02*
G75*
G03*
X157483498Y-79190249I-7188959J-18662921D01*
G01*
X143369858Y-88626081D02*
X143016858Y-88979081D01*
X149528921Y-84627068D02*
G75*
G03*
X150116858Y-85019081I489979J97968D01*
G01*
X139308861Y-113193078D02*
G75*
G03*
X141569338Y-115048219I13783939J14490878D01*
G01*
X141313911Y-106272046D02*
G75*
G03*
X140619851Y-106134086I-416011J-278054D01*
G01*
X170795858Y-101968081D02*
X170697858Y-102459081D01*
X143300858Y-113807081D02*
X142884858Y-113530081D01*
X152842858Y-80702058D02*
G75*
G03*
X152342858Y-81202081I42J-500042D01*
G01*
X173086858Y-98202081D02*
X174092858Y-98202081D01*
X145973858Y-82168081D02*
X146435858Y-81976081D01*
X136746854Y-110226084D02*
G75*
G03*
X138602064Y-112486535I16346046J11524084D01*
G01*
X160281858Y-117365081D02*
X160666858Y-118295081D01*
X162191858Y-113669081D02*
X160524858Y-111175081D01*
X165997877Y-111253100D02*
G75*
G03*
X165996858Y-110546081I-353977J353000D01*
G01*
X161205858Y-80422081D02*
X161590858Y-79492081D01*
X136366902Y-92045099D02*
G75*
G03*
X136637858Y-92698081I461998J-191001D01*
G01*
X140541900Y-111607039D02*
G75*
G03*
X141248858Y-111606081I353000J353939D01*
G01*
X160662866Y-110481093D02*
G75*
G03*
X160524863Y-111175088I278034J-416007D01*
G01*
X137211875Y-91312040D02*
G75*
G03*
X136558858Y-91583081I-190975J-462060D01*
G01*
X164343898Y-116441054D02*
G75*
G03*
X165175858Y-115885081I416002J277954D01*
G01*
X165997858Y-111253081D02*
X165643858Y-111607081D01*
X139308858Y-113193081D02*
X138596858Y-113905081D01*
X138601858Y-112486081D02*
X137889858Y-113198081D01*
X165565887Y-106134037D02*
G75*
G03*
X164871858Y-106272081I-277987J-416063D01*
G01*
X136746858Y-110226081D02*
X135909858Y-110785081D01*
X152592858Y-119702081D02*
G75*
G03*
X153592858Y-119702081I500000J0D01*
G01*
X152842858Y-112702058D02*
G75*
G03*
X152342858Y-113202090I42J-500042D01*
G01*
X160524890Y-86229102D02*
G75*
G03*
X160662858Y-86923081I416010J-277998D01*
G01*
X157483858Y-118214081D02*
X157679858Y-119201081D01*
X161078887Y-87200038D02*
G75*
G03*
X161771863Y-87063074I278013J414938D01*
G01*
X135092919Y-98952081D02*
G75*
G03*
X135592858Y-99452081I499981J-19D01*
G01*
X170697858Y-94945081D02*
X170795858Y-95436081D01*
X136190858Y-88010081D02*
X135353858Y-87451081D01*
X167226858Y-109048081D02*
X164732858Y-107381081D01*
X156502858Y-78995081D02*
X156699858Y-78008081D01*
X169547858Y-92698081D02*
X166775858Y-93846081D01*
X136558858Y-105821081D02*
X136366858Y-105359081D01*
X150414858Y-81392081D02*
X150999858Y-84334081D01*
X133098858Y-99202081D02*
X132092858Y-99202081D01*
X143016858Y-108425081D02*
X143369858Y-108778081D01*
X139410858Y-95726081D02*
X139312858Y-96216081D01*
X170109865Y-102852048D02*
G75*
G03*
X170698858Y-102459081I98035J490948D01*
G01*
X135487921Y-102459068D02*
G75*
G03*
X136075858Y-102851081I489979J97968D01*
G01*
X166876858Y-113193081D02*
X167588858Y-113905081D01*
X164732866Y-90023093D02*
G75*
G03*
X164594858Y-90715081I277034J-415007D01*
G01*
X144979858Y-80422081D02*
X144594858Y-79492081D01*
X147503858Y-111541081D02*
X147965858Y-111732081D01*
X136366858Y-92045081D02*
X136558858Y-91583081D01*
X141452858Y-107381081D02*
X138958858Y-109048081D01*
X162191911Y-113669046D02*
G75*
G03*
X162884858Y-113808081I415989J276946D01*
G01*
X167583858Y-112486081D02*
X168295858Y-113198081D01*
X168973858Y-106092081D02*
X166201858Y-104944081D01*
X155578858Y-112482081D02*
X156068858Y-112384081D01*
X158219859Y-111732082D02*
G75*
G03*
X157948861Y-112385089I191041J-462018D01*
G01*
X145973859Y-82168082D02*
G75*
G03*
X145702858Y-82821081I191041J-462018D01*
G01*
X140187858Y-110546081D02*
X142309858Y-108425081D01*
X171372856Y-90589082D02*
G75*
G03*
X169994384Y-88010141I-18280056J-8113018D01*
G01*
X133098862Y-99202081D02*
G75*
G03*
X133385495Y-102112342I19994138J499981D01*
G01*
X168973875Y-106092040D02*
G75*
G03*
X169626858Y-105821081I191025J461940D01*
G01*
X147088919Y-82247056D02*
G75*
G03*
X146435858Y-81976081I-462019J-191044D01*
G01*
X135353901Y-109953146D02*
G75*
G03*
X135909858Y-110785081I277999J-415954D01*
G01*
X166872858Y-96216081D02*
X166774858Y-95726081D01*
X134429858Y-91513081D02*
X133499858Y-91128081D01*
X149826858Y-116405081D02*
X149335858Y-116307081D01*
X148505946Y-119201098D02*
G75*
G03*
X149485858Y-119395081I489954J-97002D01*
G01*
X161771858Y-110342081D02*
X163438858Y-112836081D01*
X164871911Y-91132045D02*
G75*
G03*
X165565865Y-91270076I415989J277945D01*
G01*
X161590943Y-79492116D02*
G75*
G03*
X160666858Y-79110081I-462043J191016D01*
G01*
X146850918Y-85593056D02*
G75*
G03*
X147504858Y-85863081I461982J191956D01*
G01*
X172799861Y-102112082D02*
G75*
G03*
X173086461Y-99201876I-19707061J3409982D01*
G01*
X148942912Y-115719092D02*
G75*
G03*
X149335858Y-116308081I490988J-98008D01*
G01*
X135592858Y-97952081D02*
X138592858Y-97952081D01*
X168059866Y-89603094D02*
G75*
G03*
X168198858Y-88910081I-276966J415994D01*
G01*
X165643858Y-85797081D02*
X165997858Y-86151081D01*
X172799858Y-95292081D02*
X173786858Y-95095081D01*
X132593854Y-94115102D02*
G75*
G03*
X132399858Y-95095081I-96954J-489998D01*
G01*
X136075858Y-94552081D02*
X139017858Y-95138081D01*
X174092858Y-99202119D02*
G75*
G03*
X174092858Y-98202081I42J500019D01*
G01*
X158219858Y-111732081D02*
X158681858Y-111541081D01*
X135782858Y-101380081D02*
X138724858Y-100795081D01*
X157242858Y-81685081D02*
X156656858Y-84627081D01*
X139409858Y-93846081D02*
X136637858Y-92698081D01*
X136637859Y-104706082D02*
G75*
G03*
X136366858Y-105359081I191041J-462018D01*
G01*
X157242912Y-81685092D02*
G75*
G03*
X156849858Y-81096081I-491012J97992D01*
G01*
X161205858Y-116982081D02*
X161590858Y-117912081D01*
X165997877Y-86858100D02*
G75*
G03*
X165997858Y-86150081I-353977J354000D01*
G01*
X165997858Y-86858081D02*
X163875858Y-88979081D01*
X137889919Y-113198142D02*
G75*
G03*
X138597858Y-113904081I353981J-352958D01*
G01*
X160666917Y-118295057D02*
G75*
G03*
X161590858Y-117911081I461983J191957D01*
G01*
X144979856Y-80422077D02*
G75*
G03*
X142400918Y-81800555I8113044J-18280023D01*
G01*
X159749875Y-81976040D02*
G75*
G03*
X159096858Y-82247081I-190975J-462060D01*
G01*
X159096858Y-115157081D02*
X157948858Y-112385081D01*
X141841898Y-80963054D02*
G75*
G03*
X141009858Y-81519081I-415998J-278046D01*
G01*
X143016900Y-108425039D02*
G75*
G03*
X142309852Y-108424087I-354000J-353061D01*
G01*
X156068858Y-85020081D02*
X155578858Y-84922081D01*
X137987858Y-88910081D02*
X138264858Y-88494081D01*
X145522858Y-86923081D02*
X145106858Y-87200081D01*
X145903855Y-117365088D02*
G75*
G03*
X148702218Y-118213913I7188945J18662988D01*
G01*
X173591854Y-103289101D02*
G75*
G03*
X173785858Y-102309081I97046J490001D01*
G01*
X155059877Y-100552099D02*
G75*
G03*
X155059490Y-96851690I-1966977J1849999D01*
G01*
X160524858Y-86229081D02*
X162191858Y-83735081D01*
X145660858Y-111175081D02*
X143993858Y-113669081D01*
X170697921Y-94945068D02*
G75*
G03*
X170109858Y-94553081I-490021J-98032D01*
G01*
X153592858Y-78708081D02*
X153592858Y-77702081D01*
X167226888Y-109048037D02*
G75*
G03*
X167920858Y-108910081I278012J415937D01*
G01*
X163438889Y-84568102D02*
G75*
G03*
X163300858Y-83874081I-415989J278002D01*
G01*
X169626858Y-91583081D02*
X169818858Y-92045081D01*
X145106858Y-110204081D02*
X145522858Y-110481081D01*
X148236858Y-112385081D02*
X147088858Y-115157081D01*
X135592858Y-97952058D02*
G75*
G03*
X135092858Y-98452081I42J-500042D01*
G01*
X140619888Y-91270037D02*
G75*
G03*
X141313858Y-91132081I278012J415937D01*
G01*
X143993911Y-83735046D02*
G75*
G03*
X143300858Y-83596081I-416011J-277054D01*
G01*
X166876858Y-84211081D02*
X167588858Y-83499081D01*
X146435858Y-115428081D02*
X145973858Y-115236081D01*
X165931902Y-104291099D02*
G75*
G03*
X166202866Y-104944084I461998J-191001D01*
G01*
X164594858Y-106688081D02*
X164871858Y-106272081D01*
X150116865Y-112384047D02*
G75*
G03*
X149527856Y-112777090I-97965J-491053D01*
G01*
X152342858Y-84202081D02*
X152342858Y-81202081D01*
X169818902Y-105359099D02*
G75*
G03*
X169547858Y-104706081I-462002J190999D01*
G01*
X149682858Y-118409081D02*
X149485858Y-119396081D01*
X145702902Y-114583099D02*
G75*
G03*
X145973858Y-115236081I461998J-191001D01*
G01*
X156358858Y-80999081D02*
X156849858Y-81097081D01*
X134812851Y-106815084D02*
G75*
G03*
X136191332Y-109394021I18280049J8113084D01*
G01*
X147088858Y-82247081D02*
X148236858Y-85019081D01*
X167592858Y-97952058D02*
G75*
G03*
X167092858Y-98452081I42J-500042D01*
G01*
X135389913Y-95436092D02*
G75*
G03*
X135782858Y-96023081I489987J-97008D01*
G01*
X141568862Y-82356087D02*
G75*
G03*
X139308404Y-84211287I11524038J-16346113D01*
G01*
X135092858Y-98952081D02*
X135092858Y-98452081D01*
X156849856Y-116307070D02*
G75*
G03*
X157241858Y-115719081I-97956J489970D01*
G01*
X141590889Y-90716102D02*
G75*
G03*
X141453851Y-90023076I-414989J278002D01*
G01*
X140062858Y-103829081D02*
X140253858Y-104291081D01*
X145903858Y-117365081D02*
X145518858Y-118295081D01*
X157948858Y-85019081D02*
X159096858Y-82247081D01*
X160281858Y-80039081D02*
X160666858Y-79109081D01*
X170592858Y-99452081D02*
X167592858Y-99452081D01*
X141009934Y-115885132D02*
G75*
G03*
X141841858Y-116441081I415966J-277968D01*
G01*
X138958887Y-88356037D02*
G75*
G03*
X138264858Y-88494081I-277987J-416063D01*
G01*
X136075865Y-94552048D02*
G75*
G03*
X135486858Y-94945081I-97965J-491052D01*
G01*
X133385858Y-95292081D02*
X132398858Y-95095081D01*
X143369877Y-109485100D02*
G75*
G03*
X143369858Y-108779081I-352977J353000D01*
G01*
X170831901Y-87451146D02*
G75*
G03*
X170275858Y-86619081I-278001J416046D01*
G01*
X164936858Y-111607081D02*
X162815858Y-109485081D01*
X150606858Y-84922081D02*
X150116858Y-85020081D01*
X172604858Y-94311081D02*
X173591858Y-94115081D01*
X156656921Y-112777068D02*
G75*
G03*
X156068858Y-112385081I-490021J-98032D01*
G01*
X167920858Y-88494081D02*
X168197858Y-88910081D01*
X148701858Y-79190081D02*
X148505858Y-78203081D01*
X133098858Y-98202081D02*
X132092858Y-98202081D01*
X158681875Y-85863040D02*
G75*
G03*
X159334861Y-85592073I191025J461940D01*
G01*
X160482902Y-82821099D02*
G75*
G03*
X160211858Y-82168081I-462002J190999D01*
G01*
X139017858Y-102266081D02*
X136075858Y-102852081D01*
X138264911Y-108910046D02*
G75*
G03*
X138958858Y-109048081I415989J277946D01*
G01*
X168197889Y-108494102D02*
G75*
G03*
X168059858Y-107802081I-414989J277002D01*
G01*
X138724865Y-96609048D02*
G75*
G03*
X139313858Y-96216081I98035J490948D01*
G01*
X159334919Y-111811056D02*
G75*
G03*
X158680858Y-111541081I-462019J-192044D01*
G01*
X163784858Y-115604081D02*
X164343858Y-116441081D01*
X141590858Y-90716081D02*
X141313858Y-91132081D01*
X150606856Y-84922070D02*
G75*
G03*
X150998856Y-84334072I-97956J489970D01*
G01*
X156502858Y-118409081D02*
X156699858Y-119396081D01*
X142884866Y-83874093D02*
G75*
G03*
X142746858Y-84568081I278034J-416007D01*
G01*
X169994857Y-109394080D02*
G75*
G03*
X171373335Y-106815072I-16901957J10691980D01*
G01*
X142746890Y-112836102D02*
G75*
G03*
X142884858Y-113530081I416010J-277998D01*
G01*
X161078858Y-87200081D02*
X160662858Y-86923081D01*
X166201859Y-92460083D02*
G75*
G03*
X165931858Y-93114081I192041J-462017D01*
G01*
X138264858Y-108910081D02*
X137987858Y-108494081D01*
X139092858Y-98452081D02*
X139092858Y-98952081D01*
X140619858Y-91270081D02*
X138125858Y-89603081D01*
X140187877Y-86151100D02*
G75*
G03*
X140188858Y-86858081I354023J-353000D01*
G01*
X171755860Y-105891082D02*
G75*
G03*
X172604690Y-103092721I-18662960J7188982D01*
G01*
X156699932Y-119396066D02*
G75*
G03*
X157679858Y-119200081I489968J97966D01*
G01*
X139410912Y-95726092D02*
G75*
G03*
X139017849Y-95137079I-491012J97992D01*
G01*
X134429863Y-91513083D02*
G75*
G03*
X133581026Y-94311441I18662937J-7189017D01*
G01*
X148701858Y-118214081D02*
X148505858Y-119201081D01*
X167583858Y-84918081D02*
X168295858Y-84206081D01*
X145518916Y-79109057D02*
G75*
G03*
X144594858Y-79493081I-462016J-192043D01*
G01*
X142746858Y-112836081D02*
X144413858Y-110342081D01*
X153342858Y-84702081D02*
X152842858Y-84702081D01*
X152592858Y-118696081D02*
X152592858Y-119702081D01*
X173786869Y-95095134D02*
G75*
G03*
X173590858Y-94115081I-97969J490034D01*
G01*
X142309858Y-88979081D02*
G75*
G03*
X143015858Y-88979081I353000J353001D01*
G01*
X163300866Y-113530094D02*
G75*
G03*
X163438858Y-112836081I-277966J415994D01*
G01*
X164871858Y-91132081D02*
X164594858Y-90716081D01*
X137987890Y-88910102D02*
G75*
G03*
X138125858Y-89602081I415010J-276998D01*
G01*
X144413858Y-87062081D02*
X142746858Y-84568081D01*
X153842858Y-81202081D02*
X153842858Y-84202081D01*
X139983859Y-104944083D02*
G75*
G03*
X140253858Y-104290081I-191959J461983D01*
G01*
X172604854Y-94311082D02*
G75*
G03*
X171755972Y-91512700I-19512154J-4391018D01*
G01*
X150116858Y-112384081D02*
X150606858Y-112482081D01*
X133580858Y-103093081D02*
X132593858Y-103289081D01*
X148701858Y-79190080D02*
G75*
G03*
X145903477Y-80038967I4391042J-19512120D01*
G01*
X153342858Y-84702058D02*
G75*
G03*
X153842858Y-84202072I42J499958D01*
G01*
X156358865Y-80999047D02*
G75*
G03*
X155771858Y-81392081I-96965J-490053D01*
G01*
X143993858Y-83735081D02*
X145660858Y-86229081D01*
X173086858Y-99202081D02*
X174092858Y-99202081D01*
X150999858Y-113070081D02*
X150414858Y-116012081D01*
X163438858Y-84568081D02*
X161771858Y-87062081D01*
X145660889Y-111175102D02*
G75*
G03*
X145522858Y-110481081I-415989J278002D01*
G01*
X142400858Y-81800081D02*
X141841858Y-80963081D01*
X134429858Y-105891081D02*
X133499858Y-106276081D01*
X141248858Y-85797081D02*
X143369858Y-87919081D01*
X152842858Y-112702081D02*
X153342858Y-112702081D01*
X166122858Y-93575081D02*
X165931858Y-93113081D01*
X153342858Y-116702081D02*
X152842858Y-116702081D01*
X155770921Y-116012069D02*
G75*
G03*
X156358858Y-116406081I490979J96969D01*
G01*
X172302857Y-107200084D02*
G75*
G03*
X172684858Y-106276081I191043J461984D01*
G01*
X138592858Y-99452058D02*
G75*
G03*
X139092858Y-98952081I42J499958D01*
G01*
M02*
