G04 #@! TF.GenerationSoftware,KiCad,Pcbnew,(6.0.5)*
G04 #@! TF.CreationDate,2022-06-02T14:19:20-07:00*
G04 #@! TF.ProjectId,indexingWheel,696e6465-7869-46e6-9757-6865656c2e6b,rev?*
G04 #@! TF.SameCoordinates,Original*
G04 #@! TF.FileFunction,Legend,Bot*
G04 #@! TF.FilePolarity,Positive*
%FSLAX46Y46*%
G04 Gerber Fmt 4.6, Leading zero omitted, Abs format (unit mm)*
G04 Created by KiCad (PCBNEW (6.0.5)) date 2022-06-02 14:19:20*
%MOMM*%
%LPD*%
G01*
G04 APERTURE LIST*
%ADD10C,0.150000*%
%ADD11C,0.010000*%
G04 APERTURE END LIST*
D10*
X156142292Y-107187795D02*
X156939911Y-107473509D01*
X156213721Y-107759223D01*
X154904197Y-107187795D02*
X155701816Y-107473509D01*
X154975625Y-107759223D01*
X154511340Y-107854461D02*
X154386340Y-106854461D01*
X154082768Y-107854461D02*
X154017292Y-107330652D01*
X154053006Y-107235414D01*
X154142292Y-107187795D01*
X154285149Y-107187795D01*
X154386340Y-107235414D01*
X154439911Y-107283033D01*
X153178006Y-107854461D02*
X153112530Y-107330652D01*
X153148244Y-107235414D01*
X153237530Y-107187795D01*
X153428006Y-107187795D01*
X153529197Y-107235414D01*
X153172054Y-107806842D02*
X153273244Y-107854461D01*
X153511340Y-107854461D01*
X153600625Y-107806842D01*
X153636340Y-107711604D01*
X153624435Y-107616366D01*
X153564911Y-107521128D01*
X153463721Y-107473509D01*
X153225625Y-107473509D01*
X153124435Y-107425890D01*
X152743483Y-107806842D02*
X152654197Y-107854461D01*
X152463721Y-107854461D01*
X152362530Y-107806842D01*
X152303006Y-107711604D01*
X152297054Y-107663985D01*
X152332768Y-107568747D01*
X152422054Y-107521128D01*
X152564911Y-107521128D01*
X152654197Y-107473509D01*
X152689911Y-107378271D01*
X152683959Y-107330652D01*
X152624435Y-107235414D01*
X152523244Y-107187795D01*
X152380387Y-107187795D01*
X152291102Y-107235414D01*
X151892292Y-107854461D02*
X151767292Y-106854461D01*
X151463721Y-107854461D02*
X151398244Y-107330652D01*
X151433959Y-107235414D01*
X151523244Y-107187795D01*
X151666102Y-107187795D01*
X151767292Y-107235414D01*
X151820863Y-107283033D01*
X150904197Y-107187795D02*
X150178006Y-107473509D01*
X150975625Y-107759223D01*
X149666102Y-107187795D02*
X148939911Y-107473509D01*
X149737530Y-107759223D01*
G36*
X155989191Y-92581414D02*
G01*
X155696756Y-92581414D01*
X155687070Y-92675950D01*
X155670946Y-92801301D01*
X155616837Y-93058547D01*
X155534808Y-93312100D01*
X155424808Y-93562136D01*
X155407656Y-93596061D01*
X155332060Y-93734497D01*
X155253269Y-93858794D01*
X155166041Y-93976130D01*
X155065133Y-94093684D01*
X154945301Y-94218635D01*
X154916093Y-94247595D01*
X154793438Y-94362700D01*
X154676560Y-94460063D01*
X154558281Y-94544929D01*
X154431421Y-94622541D01*
X154288803Y-94698142D01*
X154168726Y-94754651D01*
X153917018Y-94851164D01*
X153661707Y-94919730D01*
X153402617Y-94960404D01*
X153308080Y-94970089D01*
X153308080Y-95262525D01*
X152983525Y-95262525D01*
X152983525Y-94970089D01*
X152888989Y-94960404D01*
X152763638Y-94944280D01*
X152506392Y-94890170D01*
X152252839Y-94808142D01*
X152002803Y-94698142D01*
X151968878Y-94680990D01*
X151830442Y-94605393D01*
X151706145Y-94526603D01*
X151588809Y-94439375D01*
X151471255Y-94338467D01*
X151346304Y-94218635D01*
X151317344Y-94189426D01*
X151202239Y-94066772D01*
X151104876Y-93949894D01*
X151020010Y-93831615D01*
X150942398Y-93704755D01*
X150866797Y-93562136D01*
X150804622Y-93429289D01*
X150711381Y-93183114D01*
X150645199Y-92933090D01*
X150605323Y-92676664D01*
X150595459Y-92581414D01*
X150933516Y-92581414D01*
X150943223Y-92676664D01*
X150968034Y-92843407D01*
X151023951Y-93063889D01*
X151104719Y-93281954D01*
X151208621Y-93493732D01*
X151333936Y-93695351D01*
X151478946Y-93882939D01*
X151497395Y-93904045D01*
X151655825Y-94062726D01*
X151834427Y-94206227D01*
X152029152Y-94332424D01*
X152235949Y-94439195D01*
X152450768Y-94524416D01*
X152669560Y-94585964D01*
X152888275Y-94621716D01*
X152983525Y-94631423D01*
X152983525Y-94133636D01*
X153308080Y-94133636D01*
X153308080Y-94627525D01*
X153360997Y-94625604D01*
X153371145Y-94625206D01*
X153401540Y-94623384D01*
X153432478Y-94619991D01*
X153470738Y-94614006D01*
X153523095Y-94604410D01*
X153596326Y-94590183D01*
X153665412Y-94575187D01*
X153879023Y-94511471D01*
X154089913Y-94423464D01*
X154293401Y-94313885D01*
X154484808Y-94185458D01*
X154659454Y-94040902D01*
X154812659Y-93882939D01*
X154924562Y-93741847D01*
X155054765Y-93543246D01*
X155163969Y-93333556D01*
X155250452Y-93116648D01*
X155312497Y-92896394D01*
X155348382Y-92676664D01*
X155358089Y-92581414D01*
X153943080Y-92581414D01*
X153943080Y-92256859D01*
X155358089Y-92256859D01*
X155348382Y-92161609D01*
X155323571Y-91994865D01*
X155267654Y-91774384D01*
X155186886Y-91556319D01*
X155082984Y-91344541D01*
X154957669Y-91142922D01*
X154812659Y-90955334D01*
X154794210Y-90934228D01*
X154635780Y-90775547D01*
X154457178Y-90632046D01*
X154262453Y-90505848D01*
X154055656Y-90399078D01*
X153840837Y-90313857D01*
X153622045Y-90252309D01*
X153403330Y-90216557D01*
X153308080Y-90206850D01*
X153308080Y-91621859D01*
X152983525Y-91621859D01*
X152983525Y-90206850D01*
X152888275Y-90216557D01*
X152860676Y-90219590D01*
X152641727Y-90258732D01*
X152423215Y-90323400D01*
X152209189Y-90411472D01*
X152003699Y-90520824D01*
X151810795Y-90649334D01*
X151634527Y-90794878D01*
X151478946Y-90955334D01*
X151367044Y-91096426D01*
X151236840Y-91295027D01*
X151127636Y-91504717D01*
X151041153Y-91721625D01*
X150979109Y-91941879D01*
X150943223Y-92161609D01*
X150933516Y-92256859D01*
X151431303Y-92256859D01*
X151431303Y-92581414D01*
X150933516Y-92581414D01*
X150595459Y-92581414D01*
X150302414Y-92581414D01*
X150302414Y-92256859D01*
X150594850Y-92256859D01*
X150604535Y-92162322D01*
X150620659Y-92036972D01*
X150674769Y-91779725D01*
X150756797Y-91526173D01*
X150866797Y-91276136D01*
X150883949Y-91242211D01*
X150959546Y-91103775D01*
X151038336Y-90979479D01*
X151125564Y-90862143D01*
X151226472Y-90744589D01*
X151346304Y-90619638D01*
X151375513Y-90590678D01*
X151498167Y-90475573D01*
X151615045Y-90378210D01*
X151733324Y-90293343D01*
X151860184Y-90215732D01*
X152002803Y-90140131D01*
X152122879Y-90083621D01*
X152374588Y-89987109D01*
X152629898Y-89918542D01*
X152888989Y-89877869D01*
X152983525Y-89868183D01*
X152983525Y-89575748D01*
X153308080Y-89575748D01*
X153308080Y-89868183D01*
X153402617Y-89877869D01*
X153527967Y-89893993D01*
X153785214Y-89948102D01*
X154038766Y-90030131D01*
X154288803Y-90140131D01*
X154322728Y-90157283D01*
X154461164Y-90232879D01*
X154585460Y-90311670D01*
X154702796Y-90398898D01*
X154820350Y-90499806D01*
X154945301Y-90619638D01*
X154974261Y-90648846D01*
X155089366Y-90771501D01*
X155186729Y-90888379D01*
X155271596Y-91006658D01*
X155349207Y-91133518D01*
X155424808Y-91276136D01*
X155481318Y-91396213D01*
X155577830Y-91647921D01*
X155646397Y-91903232D01*
X155687070Y-92162322D01*
X155696756Y-92256859D01*
X155989191Y-92256859D01*
X155989191Y-92581414D01*
G37*
D11*
X155989191Y-92581414D02*
X155696756Y-92581414D01*
X155687070Y-92675950D01*
X155670946Y-92801301D01*
X155616837Y-93058547D01*
X155534808Y-93312100D01*
X155424808Y-93562136D01*
X155407656Y-93596061D01*
X155332060Y-93734497D01*
X155253269Y-93858794D01*
X155166041Y-93976130D01*
X155065133Y-94093684D01*
X154945301Y-94218635D01*
X154916093Y-94247595D01*
X154793438Y-94362700D01*
X154676560Y-94460063D01*
X154558281Y-94544929D01*
X154431421Y-94622541D01*
X154288803Y-94698142D01*
X154168726Y-94754651D01*
X153917018Y-94851164D01*
X153661707Y-94919730D01*
X153402617Y-94960404D01*
X153308080Y-94970089D01*
X153308080Y-95262525D01*
X152983525Y-95262525D01*
X152983525Y-94970089D01*
X152888989Y-94960404D01*
X152763638Y-94944280D01*
X152506392Y-94890170D01*
X152252839Y-94808142D01*
X152002803Y-94698142D01*
X151968878Y-94680990D01*
X151830442Y-94605393D01*
X151706145Y-94526603D01*
X151588809Y-94439375D01*
X151471255Y-94338467D01*
X151346304Y-94218635D01*
X151317344Y-94189426D01*
X151202239Y-94066772D01*
X151104876Y-93949894D01*
X151020010Y-93831615D01*
X150942398Y-93704755D01*
X150866797Y-93562136D01*
X150804622Y-93429289D01*
X150711381Y-93183114D01*
X150645199Y-92933090D01*
X150605323Y-92676664D01*
X150595459Y-92581414D01*
X150933516Y-92581414D01*
X150943223Y-92676664D01*
X150968034Y-92843407D01*
X151023951Y-93063889D01*
X151104719Y-93281954D01*
X151208621Y-93493732D01*
X151333936Y-93695351D01*
X151478946Y-93882939D01*
X151497395Y-93904045D01*
X151655825Y-94062726D01*
X151834427Y-94206227D01*
X152029152Y-94332424D01*
X152235949Y-94439195D01*
X152450768Y-94524416D01*
X152669560Y-94585964D01*
X152888275Y-94621716D01*
X152983525Y-94631423D01*
X152983525Y-94133636D01*
X153308080Y-94133636D01*
X153308080Y-94627525D01*
X153360997Y-94625604D01*
X153371145Y-94625206D01*
X153401540Y-94623384D01*
X153432478Y-94619991D01*
X153470738Y-94614006D01*
X153523095Y-94604410D01*
X153596326Y-94590183D01*
X153665412Y-94575187D01*
X153879023Y-94511471D01*
X154089913Y-94423464D01*
X154293401Y-94313885D01*
X154484808Y-94185458D01*
X154659454Y-94040902D01*
X154812659Y-93882939D01*
X154924562Y-93741847D01*
X155054765Y-93543246D01*
X155163969Y-93333556D01*
X155250452Y-93116648D01*
X155312497Y-92896394D01*
X155348382Y-92676664D01*
X155358089Y-92581414D01*
X153943080Y-92581414D01*
X153943080Y-92256859D01*
X155358089Y-92256859D01*
X155348382Y-92161609D01*
X155323571Y-91994865D01*
X155267654Y-91774384D01*
X155186886Y-91556319D01*
X155082984Y-91344541D01*
X154957669Y-91142922D01*
X154812659Y-90955334D01*
X154794210Y-90934228D01*
X154635780Y-90775547D01*
X154457178Y-90632046D01*
X154262453Y-90505848D01*
X154055656Y-90399078D01*
X153840837Y-90313857D01*
X153622045Y-90252309D01*
X153403330Y-90216557D01*
X153308080Y-90206850D01*
X153308080Y-91621859D01*
X152983525Y-91621859D01*
X152983525Y-90206850D01*
X152888275Y-90216557D01*
X152860676Y-90219590D01*
X152641727Y-90258732D01*
X152423215Y-90323400D01*
X152209189Y-90411472D01*
X152003699Y-90520824D01*
X151810795Y-90649334D01*
X151634527Y-90794878D01*
X151478946Y-90955334D01*
X151367044Y-91096426D01*
X151236840Y-91295027D01*
X151127636Y-91504717D01*
X151041153Y-91721625D01*
X150979109Y-91941879D01*
X150943223Y-92161609D01*
X150933516Y-92256859D01*
X151431303Y-92256859D01*
X151431303Y-92581414D01*
X150933516Y-92581414D01*
X150595459Y-92581414D01*
X150302414Y-92581414D01*
X150302414Y-92256859D01*
X150594850Y-92256859D01*
X150604535Y-92162322D01*
X150620659Y-92036972D01*
X150674769Y-91779725D01*
X150756797Y-91526173D01*
X150866797Y-91276136D01*
X150883949Y-91242211D01*
X150959546Y-91103775D01*
X151038336Y-90979479D01*
X151125564Y-90862143D01*
X151226472Y-90744589D01*
X151346304Y-90619638D01*
X151375513Y-90590678D01*
X151498167Y-90475573D01*
X151615045Y-90378210D01*
X151733324Y-90293343D01*
X151860184Y-90215732D01*
X152002803Y-90140131D01*
X152122879Y-90083621D01*
X152374588Y-89987109D01*
X152629898Y-89918542D01*
X152888989Y-89877869D01*
X152983525Y-89868183D01*
X152983525Y-89575748D01*
X153308080Y-89575748D01*
X153308080Y-89868183D01*
X153402617Y-89877869D01*
X153527967Y-89893993D01*
X153785214Y-89948102D01*
X154038766Y-90030131D01*
X154288803Y-90140131D01*
X154322728Y-90157283D01*
X154461164Y-90232879D01*
X154585460Y-90311670D01*
X154702796Y-90398898D01*
X154820350Y-90499806D01*
X154945301Y-90619638D01*
X154974261Y-90648846D01*
X155089366Y-90771501D01*
X155186729Y-90888379D01*
X155271596Y-91006658D01*
X155349207Y-91133518D01*
X155424808Y-91276136D01*
X155481318Y-91396213D01*
X155577830Y-91647921D01*
X155646397Y-91903232D01*
X155687070Y-92162322D01*
X155696756Y-92256859D01*
X155989191Y-92256859D01*
X155989191Y-92581414D01*
G36*
X153311187Y-92069886D02*
G01*
X153315136Y-92249803D01*
X153495053Y-92253752D01*
X153674969Y-92257702D01*
X153674969Y-92580571D01*
X153495053Y-92584520D01*
X153315136Y-92588470D01*
X153311187Y-92768386D01*
X153307237Y-92948303D01*
X152984368Y-92948303D01*
X152980419Y-92768386D01*
X152976469Y-92588470D01*
X152796553Y-92584520D01*
X152616636Y-92580571D01*
X152616636Y-92257702D01*
X152796553Y-92253752D01*
X152976469Y-92249803D01*
X152980419Y-92069886D01*
X152984368Y-91889970D01*
X153307237Y-91889970D01*
X153311187Y-92069886D01*
G37*
X153311187Y-92069886D02*
X153315136Y-92249803D01*
X153495053Y-92253752D01*
X153674969Y-92257702D01*
X153674969Y-92580571D01*
X153495053Y-92584520D01*
X153315136Y-92588470D01*
X153311187Y-92768386D01*
X153307237Y-92948303D01*
X152984368Y-92948303D01*
X152980419Y-92768386D01*
X152976469Y-92588470D01*
X152796553Y-92584520D01*
X152616636Y-92580571D01*
X152616636Y-92257702D01*
X152796553Y-92253752D01*
X152976469Y-92249803D01*
X152980419Y-92069886D01*
X152984368Y-91889970D01*
X153307237Y-91889970D01*
X153311187Y-92069886D01*
G36*
X151820318Y-102604469D02*
G01*
X151881278Y-102712101D01*
X151641248Y-102712101D01*
X151568858Y-102651141D01*
X151602195Y-102580656D01*
X151697445Y-102553986D01*
X151820318Y-102604469D01*
G37*
G36*
X162276776Y-101568147D02*
G01*
X162372751Y-101582383D01*
X162466870Y-101605959D01*
X162558224Y-101638646D01*
X162645934Y-101680130D01*
X162729156Y-101730011D01*
X162807088Y-101787809D01*
X162878980Y-101852968D01*
X162944138Y-101924860D01*
X163001936Y-102002791D01*
X163051818Y-102086013D01*
X163093302Y-102173724D01*
X163125989Y-102265078D01*
X163149564Y-102359196D01*
X163163801Y-102455172D01*
X163168562Y-102552081D01*
X163163801Y-102648990D01*
X163149564Y-102744966D01*
X163125989Y-102839084D01*
X163093302Y-102930438D01*
X163051818Y-103018149D01*
X163001936Y-103101371D01*
X162944138Y-103179302D01*
X162878980Y-103251194D01*
X162807088Y-103316353D01*
X162729156Y-103374151D01*
X162645934Y-103424032D01*
X162558224Y-103465516D01*
X162466870Y-103498203D01*
X162372751Y-103521779D01*
X162276776Y-103536015D01*
X162179867Y-103540776D01*
X144005849Y-103540776D01*
X143908940Y-103536015D01*
X143812964Y-103521778D01*
X143718846Y-103498203D01*
X143627492Y-103465516D01*
X143539782Y-103424032D01*
X143456560Y-103374151D01*
X143378628Y-103316352D01*
X143306736Y-103251194D01*
X143241578Y-103179302D01*
X143191775Y-103112151D01*
X144006008Y-103112151D01*
X144015533Y-103208830D01*
X144044108Y-103258836D01*
X144127928Y-103278839D01*
X144280328Y-103270266D01*
X144401295Y-103236452D01*
X144470828Y-103173111D01*
X144510833Y-103052143D01*
X144524168Y-102875931D01*
X144524168Y-102655904D01*
X144647993Y-102655904D01*
X144662519Y-102757821D01*
X144706095Y-102829259D01*
X144834683Y-102885456D01*
X145286168Y-102885456D01*
X145223303Y-102974991D01*
X145097573Y-103011186D01*
X144998989Y-103005471D01*
X144924218Y-102988326D01*
X144903263Y-102980706D01*
X144827063Y-102959751D01*
X144722288Y-103045476D01*
X144697523Y-103133106D01*
X144722883Y-103207282D01*
X144798964Y-103260265D01*
X144925766Y-103292054D01*
X145103288Y-103302651D01*
X145236400Y-103290507D01*
X145353795Y-103254074D01*
X145451189Y-103197638D01*
X145524293Y-103125486D01*
X145590968Y-103018594D01*
X145630973Y-102903659D01*
X145644308Y-102780681D01*
X145629894Y-102655904D01*
X145739558Y-102655904D01*
X145754084Y-102757821D01*
X145797660Y-102829259D01*
X145926248Y-102885456D01*
X146377733Y-102885456D01*
X146314868Y-102974991D01*
X146189138Y-103011186D01*
X146090554Y-103005471D01*
X146015783Y-102988326D01*
X145994828Y-102980706D01*
X145918628Y-102959751D01*
X145813853Y-103045476D01*
X145789088Y-103133106D01*
X145814448Y-103207282D01*
X145890529Y-103260265D01*
X146017331Y-103292054D01*
X146194853Y-103302651D01*
X146327965Y-103290507D01*
X146445360Y-103254074D01*
X146542754Y-103197638D01*
X146615858Y-103125486D01*
X146624176Y-103112151D01*
X146859698Y-103112151D01*
X146862555Y-103177874D01*
X146880653Y-103228356D01*
X146929707Y-103265504D01*
X147027338Y-103277886D01*
X147121635Y-103265504D01*
X147172118Y-103228356D01*
X147190215Y-103176921D01*
X147193073Y-103108341D01*
X147193073Y-102774966D01*
X147236888Y-102653046D01*
X147348330Y-102609231D01*
X147467393Y-102650189D01*
X147526448Y-102742581D01*
X147526448Y-103112151D01*
X147529305Y-103177874D01*
X147547403Y-103228356D01*
X147596457Y-103265504D01*
X147694088Y-103277886D01*
X147790767Y-103265027D01*
X147840773Y-103226451D01*
X147856965Y-103176921D01*
X147859823Y-103110246D01*
X147859823Y-102011061D01*
X147964598Y-102011061D01*
X147987458Y-102104406D01*
X148353218Y-103161681D01*
X148366553Y-103194066D01*
X148417035Y-103244549D01*
X148514190Y-103275981D01*
X148611345Y-103244549D01*
X148665638Y-103182636D01*
X148888523Y-102525411D01*
X148964799Y-102750811D01*
X149024464Y-102927137D01*
X149067517Y-103054391D01*
X149093958Y-103132573D01*
X149103788Y-103161681D01*
X149120933Y-103194066D01*
X149151413Y-103232166D01*
X149256188Y-103275981D01*
X149356200Y-103247406D01*
X149408588Y-103190256D01*
X149421923Y-103161681D01*
X149682270Y-102413016D01*
X150349658Y-102413016D01*
X150385853Y-102546366D01*
X150490628Y-102618756D01*
X150556350Y-102603516D01*
X150639218Y-102588276D01*
X150735420Y-102624471D01*
X150780188Y-102712101D01*
X150780188Y-103112151D01*
X150783045Y-103177874D01*
X150801143Y-103228356D01*
X150852578Y-103265504D01*
X150949733Y-103277886D01*
X151081178Y-103245501D01*
X151115468Y-103163586D01*
X151115468Y-102655904D01*
X151239293Y-102655904D01*
X151253819Y-102757821D01*
X151297395Y-102829259D01*
X151425983Y-102885456D01*
X151877468Y-102885456D01*
X151814603Y-102974991D01*
X151688873Y-103011186D01*
X151590289Y-103005471D01*
X151515518Y-102988326D01*
X151494563Y-102980706D01*
X151418363Y-102959751D01*
X151313588Y-103045476D01*
X151288823Y-103133106D01*
X151314183Y-103207282D01*
X151390264Y-103260265D01*
X151517066Y-103292054D01*
X151694588Y-103302651D01*
X151827700Y-103290507D01*
X151945095Y-103254074D01*
X152042489Y-103197638D01*
X152115593Y-103125486D01*
X152182268Y-103018594D01*
X152222273Y-102903659D01*
X152235608Y-102780681D01*
X152218357Y-102631350D01*
X152166605Y-102503398D01*
X152080350Y-102396823D01*
X151968273Y-102316919D01*
X151839050Y-102268977D01*
X151692683Y-102252996D01*
X151569096Y-102264664D01*
X151463130Y-102299669D01*
X151374786Y-102358009D01*
X151304063Y-102439686D01*
X151255485Y-102543270D01*
X151239293Y-102655904D01*
X151115468Y-102655904D01*
X151115468Y-102439686D01*
X151112610Y-102373963D01*
X151096418Y-102325386D01*
X151045935Y-102286810D01*
X150947828Y-102273951D01*
X150854959Y-102284905D01*
X150804953Y-102317766D01*
X150783998Y-102380631D01*
X150756375Y-102348246D01*
X150679223Y-102296811D01*
X150575400Y-102264426D01*
X150500153Y-102269188D01*
X150433478Y-102285381D01*
X150373470Y-102324433D01*
X150349658Y-102413016D01*
X149682270Y-102413016D01*
X149789588Y-102104406D01*
X149810543Y-102011061D01*
X149792692Y-101972961D01*
X152359433Y-101972961D01*
X152359433Y-103110246D01*
X152362290Y-103175969D01*
X152380388Y-103224546D01*
X152434919Y-103263122D01*
X152541360Y-103275981D01*
X152644469Y-103252645D01*
X152688998Y-103182636D01*
X152784724Y-103251216D01*
X152911883Y-103274076D01*
X153022796Y-103257460D01*
X153126936Y-103207613D01*
X153224303Y-103124534D01*
X153302620Y-103019335D01*
X153349610Y-102903130D01*
X153365273Y-102775919D01*
X153350409Y-102655904D01*
X153470048Y-102655904D01*
X153484574Y-102757821D01*
X153528150Y-102829259D01*
X153656738Y-102885456D01*
X154108223Y-102885456D01*
X154045358Y-102974991D01*
X153919628Y-103011186D01*
X153821044Y-103005471D01*
X153746273Y-102988326D01*
X153725318Y-102980706D01*
X153649118Y-102959751D01*
X153544343Y-103045476D01*
X153519578Y-103133106D01*
X153544938Y-103207282D01*
X153621019Y-103260265D01*
X153747821Y-103292054D01*
X153925343Y-103302651D01*
X154058455Y-103290507D01*
X154175850Y-103254074D01*
X154273244Y-103197638D01*
X154346348Y-103125486D01*
X154413023Y-103018594D01*
X154453028Y-102903659D01*
X154466363Y-102780681D01*
X154451949Y-102655904D01*
X154561613Y-102655904D01*
X154576139Y-102757821D01*
X154619715Y-102829259D01*
X154748303Y-102885456D01*
X155199788Y-102885456D01*
X155136923Y-102974991D01*
X155011193Y-103011186D01*
X154912609Y-103005471D01*
X154837838Y-102988326D01*
X154816883Y-102980706D01*
X154740683Y-102959751D01*
X154635908Y-103045476D01*
X154611143Y-103133106D01*
X154636503Y-103207282D01*
X154712584Y-103260265D01*
X154839386Y-103292054D01*
X155016908Y-103302651D01*
X155150020Y-103290507D01*
X155267415Y-103254074D01*
X155364809Y-103197638D01*
X155437913Y-103125486D01*
X155504588Y-103018594D01*
X155544593Y-102903659D01*
X155557928Y-102780681D01*
X155540677Y-102631350D01*
X155488925Y-102503398D01*
X155402670Y-102396823D01*
X155290593Y-102316919D01*
X155161370Y-102268977D01*
X155015003Y-102252996D01*
X154891416Y-102264664D01*
X154785450Y-102299669D01*
X154697106Y-102358009D01*
X154626383Y-102439686D01*
X154577805Y-102543270D01*
X154561613Y-102655904D01*
X154451949Y-102655904D01*
X154449112Y-102631350D01*
X154397360Y-102503398D01*
X154311105Y-102396823D01*
X154199028Y-102316919D01*
X154069805Y-102268977D01*
X153923438Y-102252996D01*
X153799851Y-102264664D01*
X153693885Y-102299669D01*
X153605541Y-102358009D01*
X153534818Y-102439686D01*
X153486240Y-102543270D01*
X153470048Y-102655904D01*
X153350409Y-102655904D01*
X153349504Y-102648601D01*
X153302196Y-102532078D01*
X153223350Y-102426351D01*
X153125666Y-102342743D01*
X153021844Y-102292578D01*
X152911883Y-102275856D01*
X152786629Y-102299669D01*
X152692808Y-102371106D01*
X152692808Y-102051066D01*
X155653178Y-102051066D01*
X155664608Y-102148221D01*
X155704613Y-102198703D01*
X155755095Y-102215848D01*
X155822723Y-102218706D01*
X156405653Y-102218706D01*
X156405653Y-102411111D01*
X156030368Y-102411111D01*
X155962740Y-102413968D01*
X155912258Y-102432066D01*
X155875110Y-102483977D01*
X155862728Y-102582561D01*
X155880825Y-102688765D01*
X155935118Y-102740676D01*
X156032273Y-102750201D01*
X156405653Y-102750201D01*
X156405653Y-103110246D01*
X156408510Y-103176921D01*
X156426608Y-103226451D01*
X156477090Y-103265027D01*
X156575198Y-103277886D01*
X156680925Y-103259789D01*
X156731408Y-103205496D01*
X156742838Y-103108341D01*
X156742838Y-103105484D01*
X157329578Y-103105484D01*
X157398158Y-103221689D01*
X157514363Y-103289316D01*
X157630568Y-103220736D01*
X157840118Y-103009281D01*
X158051573Y-103220736D01*
X158166825Y-103289316D01*
X158283030Y-103221689D01*
X158352563Y-103105484D01*
X158283983Y-102988326D01*
X158072528Y-102774966D01*
X158190527Y-102655904D01*
X158428763Y-102655904D01*
X158443289Y-102757821D01*
X158486865Y-102829259D01*
X158615453Y-102885456D01*
X159066938Y-102885456D01*
X159004073Y-102974991D01*
X158878343Y-103011186D01*
X158779759Y-103005471D01*
X158704988Y-102988326D01*
X158684033Y-102980706D01*
X158607833Y-102959751D01*
X158503058Y-103045476D01*
X158478293Y-103133106D01*
X158503653Y-103207282D01*
X158579734Y-103260265D01*
X158706536Y-103292054D01*
X158884058Y-103302651D01*
X159017170Y-103290507D01*
X159134565Y-103254074D01*
X159231959Y-103197638D01*
X159305063Y-103125486D01*
X159314569Y-103110246D01*
X159548903Y-103110246D01*
X159551760Y-103175969D01*
X159569858Y-103224546D01*
X159624389Y-103263122D01*
X159730830Y-103275981D01*
X159833939Y-103252645D01*
X159878468Y-103182636D01*
X159974194Y-103251216D01*
X160101353Y-103274076D01*
X160212266Y-103257460D01*
X160316406Y-103207613D01*
X160413773Y-103124534D01*
X160424410Y-103110246D01*
X160688093Y-103110246D01*
X160690950Y-103175969D01*
X160707143Y-103224546D01*
X160757625Y-103263122D01*
X160855733Y-103275981D01*
X160962413Y-103258360D01*
X161011943Y-103205496D01*
X161023373Y-103108341D01*
X161023373Y-102773061D01*
X161068140Y-102651141D01*
X161188155Y-102607326D01*
X161310075Y-102653046D01*
X161356748Y-102773061D01*
X161356748Y-103110246D01*
X161359605Y-103175969D01*
X161377703Y-103224546D01*
X161426757Y-103263122D01*
X161524388Y-103275981D01*
X161621067Y-103263122D01*
X161671073Y-103224546D01*
X161687265Y-103174064D01*
X161690040Y-103110246D01*
X161842523Y-103110246D01*
X161845380Y-103176921D01*
X161863478Y-103226451D01*
X161913960Y-103265027D01*
X162012068Y-103277886D01*
X162117795Y-103259789D01*
X162168278Y-103205496D01*
X162179708Y-103108341D01*
X162179708Y-102049161D01*
X162176850Y-101983438D01*
X162158753Y-101932956D01*
X162108270Y-101894380D01*
X162010163Y-101881521D01*
X161903959Y-101899142D01*
X161852048Y-101952006D01*
X161842523Y-102051066D01*
X161842523Y-103110246D01*
X161690040Y-103110246D01*
X161690123Y-103108341D01*
X161690123Y-102433971D01*
X161687265Y-102370153D01*
X161669168Y-102321576D01*
X161619162Y-102285857D01*
X161522483Y-102273951D01*
X161428662Y-102284905D01*
X161379608Y-102317766D01*
X161360558Y-102395871D01*
X161326268Y-102357771D01*
X161274833Y-102317766D01*
X161131958Y-102273951D01*
X161012049Y-102290143D01*
X160906321Y-102338721D01*
X160814775Y-102419683D01*
X160744396Y-102523929D01*
X160702169Y-102642357D01*
X160688093Y-102774966D01*
X160688093Y-103110246D01*
X160424410Y-103110246D01*
X160492090Y-103019335D01*
X160539080Y-102903130D01*
X160554743Y-102775919D01*
X160538974Y-102648601D01*
X160491666Y-102532078D01*
X160412820Y-102426351D01*
X160315136Y-102342743D01*
X160211314Y-102292578D01*
X160101353Y-102275856D01*
X159976099Y-102299669D01*
X159882278Y-102371106D01*
X159882278Y-101971056D01*
X159879420Y-101905333D01*
X159862275Y-101855803D01*
X159811793Y-101816751D01*
X159715590Y-101805321D01*
X159619388Y-101816751D01*
X159568905Y-101856756D01*
X159551760Y-101907238D01*
X159548903Y-101972961D01*
X159548903Y-103110246D01*
X159314569Y-103110246D01*
X159371738Y-103018594D01*
X159411743Y-102903659D01*
X159425078Y-102780681D01*
X159407827Y-102631350D01*
X159356075Y-102503398D01*
X159269820Y-102396823D01*
X159157743Y-102316919D01*
X159028520Y-102268977D01*
X158882153Y-102252996D01*
X158758566Y-102264664D01*
X158652600Y-102299669D01*
X158564256Y-102358009D01*
X158493533Y-102439686D01*
X158444955Y-102543270D01*
X158428763Y-102655904D01*
X158190527Y-102655904D01*
X158283983Y-102561606D01*
X158352563Y-102444448D01*
X158283030Y-102327291D01*
X158166825Y-102258711D01*
X158051573Y-102327291D01*
X157840118Y-102540651D01*
X157630568Y-102327291D01*
X157514363Y-102258711D01*
X157398158Y-102327291D01*
X157329578Y-102444448D01*
X157398158Y-102561606D01*
X157609613Y-102774966D01*
X157398158Y-102988326D01*
X157329578Y-103105484D01*
X156742838Y-103105484D01*
X156742838Y-102049161D01*
X156706643Y-101916763D01*
X156569483Y-101881521D01*
X155818913Y-101881521D01*
X155753190Y-101884378D01*
X155703660Y-101902476D01*
X155664608Y-101953911D01*
X155653178Y-102051066D01*
X152692808Y-102051066D01*
X152692808Y-101971056D01*
X152689950Y-101905333D01*
X152672805Y-101855803D01*
X152622323Y-101816751D01*
X152526120Y-101805321D01*
X152429918Y-101816751D01*
X152379435Y-101856756D01*
X152362290Y-101907238D01*
X152359433Y-101972961D01*
X149792692Y-101972961D01*
X149778634Y-101942957D01*
X149682908Y-101891046D01*
X149582895Y-101871996D01*
X149514315Y-101902476D01*
X149471453Y-101995821D01*
X149261903Y-102632091D01*
X149054258Y-102005346D01*
X149016634Y-101937718D01*
X148957103Y-101894856D01*
X148878045Y-101881521D01*
X148787558Y-101912953D01*
X148734218Y-101974866D01*
X148515143Y-102635901D01*
X148305593Y-101995821D01*
X148280828Y-101931051D01*
X148245585Y-101890093D01*
X148181768Y-101870091D01*
X148092233Y-101889141D01*
X147996507Y-101942481D01*
X147964598Y-102011061D01*
X147859823Y-102011061D01*
X147859823Y-101971056D01*
X147856965Y-101905333D01*
X147840773Y-101856756D01*
X147790290Y-101818180D01*
X147692183Y-101805321D01*
X147595980Y-101818180D01*
X147547403Y-101856756D01*
X147529305Y-101907238D01*
X147526448Y-101972961D01*
X147526448Y-102393966D01*
X147423102Y-102306812D01*
X147303563Y-102277761D01*
X147183654Y-102293848D01*
X147077926Y-102342108D01*
X146986380Y-102422541D01*
X146916001Y-102526258D01*
X146873774Y-102644368D01*
X146859698Y-102776871D01*
X146859698Y-103112151D01*
X146624176Y-103112151D01*
X146682533Y-103018594D01*
X146722538Y-102903659D01*
X146735873Y-102780681D01*
X146718622Y-102631350D01*
X146666870Y-102503398D01*
X146580615Y-102396823D01*
X146468538Y-102316919D01*
X146339315Y-102268977D01*
X146192948Y-102252996D01*
X146069361Y-102264664D01*
X145963395Y-102299669D01*
X145875051Y-102358009D01*
X145804328Y-102439686D01*
X145755750Y-102543270D01*
X145739558Y-102655904D01*
X145629894Y-102655904D01*
X145627057Y-102631350D01*
X145575305Y-102503398D01*
X145489050Y-102396823D01*
X145376973Y-102316919D01*
X145247750Y-102268977D01*
X145101383Y-102252996D01*
X144977796Y-102264664D01*
X144871830Y-102299669D01*
X144783486Y-102358009D01*
X144712763Y-102439686D01*
X144664185Y-102543270D01*
X144647993Y-102655904D01*
X144524168Y-102655904D01*
X144524168Y-101969151D01*
X144521310Y-101903428D01*
X144505118Y-101852946D01*
X144454635Y-101814370D01*
X144356528Y-101801511D01*
X144262230Y-101814370D01*
X144211748Y-101852946D01*
X144193650Y-101904381D01*
X144190793Y-101971056D01*
X144190793Y-102853071D01*
X144179363Y-102939749D01*
X144128880Y-102957846D01*
X144076493Y-102960704D01*
X144044108Y-102976896D01*
X144006008Y-103112151D01*
X143191775Y-103112151D01*
X143183779Y-103101370D01*
X143133898Y-103018149D01*
X143092414Y-102930438D01*
X143059727Y-102839084D01*
X143036152Y-102744966D01*
X143021915Y-102648990D01*
X143017154Y-102552081D01*
X143021915Y-102455172D01*
X143036152Y-102359196D01*
X143059727Y-102265078D01*
X143092414Y-102173724D01*
X143133898Y-102086013D01*
X143183779Y-102002792D01*
X143241578Y-101924860D01*
X143306736Y-101852968D01*
X143378628Y-101787810D01*
X143456560Y-101730011D01*
X143539782Y-101680130D01*
X143627492Y-101638646D01*
X143718846Y-101605959D01*
X143812964Y-101582384D01*
X143908940Y-101568147D01*
X144005849Y-101563386D01*
X162179867Y-101563386D01*
X162276776Y-101568147D01*
G37*
G36*
X152986178Y-102661619D02*
G01*
X153031898Y-102776871D01*
X152982368Y-102891171D01*
X152862353Y-102942606D01*
X152745195Y-102891171D01*
X152698523Y-102777824D01*
X152743290Y-102662571D01*
X152864258Y-102609231D01*
X152986178Y-102661619D01*
G37*
G36*
X145229018Y-102604469D02*
G01*
X145289978Y-102712101D01*
X145049948Y-102712101D01*
X144977558Y-102651141D01*
X145010895Y-102580656D01*
X145106145Y-102553986D01*
X145229018Y-102604469D01*
G37*
G36*
X146320583Y-102604469D02*
G01*
X146381543Y-102712101D01*
X146141513Y-102712101D01*
X146069123Y-102651141D01*
X146102460Y-102580656D01*
X146197710Y-102553986D01*
X146320583Y-102604469D01*
G37*
G36*
X159009788Y-102604469D02*
G01*
X159070748Y-102712101D01*
X158830718Y-102712101D01*
X158758328Y-102651141D01*
X158791665Y-102580656D01*
X158886915Y-102553986D01*
X159009788Y-102604469D01*
G37*
G36*
X154051073Y-102604469D02*
G01*
X154112033Y-102712101D01*
X153872003Y-102712101D01*
X153799613Y-102651141D01*
X153832950Y-102580656D01*
X153928200Y-102553986D01*
X154051073Y-102604469D01*
G37*
G36*
X160175648Y-102661619D02*
G01*
X160221368Y-102776871D01*
X160171838Y-102891171D01*
X160051823Y-102942606D01*
X159934665Y-102891171D01*
X159887993Y-102777824D01*
X159932760Y-102662571D01*
X160053728Y-102609231D01*
X160175648Y-102661619D01*
G37*
G36*
X155142638Y-102604469D02*
G01*
X155203598Y-102712101D01*
X154963568Y-102712101D01*
X154891178Y-102651141D01*
X154924515Y-102580656D01*
X155019765Y-102553986D01*
X155142638Y-102604469D01*
G37*
G36*
X156278460Y-104126584D02*
G01*
X156371662Y-104140409D01*
X156463060Y-104163303D01*
X156551774Y-104195046D01*
X156636949Y-104235331D01*
X156717766Y-104283770D01*
X156793445Y-104339898D01*
X156863259Y-104403174D01*
X156926535Y-104472987D01*
X156982662Y-104548667D01*
X157031102Y-104629484D01*
X157071387Y-104714659D01*
X157103129Y-104803373D01*
X157126023Y-104894771D01*
X157139849Y-104987973D01*
X157144472Y-105082081D01*
X157139849Y-105176189D01*
X157126023Y-105269391D01*
X157103129Y-105360789D01*
X157071387Y-105449503D01*
X157031102Y-105534678D01*
X156982662Y-105615495D01*
X156926535Y-105691175D01*
X156863259Y-105760988D01*
X156793445Y-105824264D01*
X156717766Y-105880392D01*
X156636949Y-105928831D01*
X156551774Y-105969116D01*
X156463060Y-106000859D01*
X156371662Y-106023753D01*
X156278460Y-106037578D01*
X156184352Y-106042201D01*
X150061364Y-106042201D01*
X149967256Y-106037578D01*
X149874054Y-106023753D01*
X149782656Y-106000859D01*
X149693942Y-105969116D01*
X149608767Y-105928831D01*
X149527950Y-105880392D01*
X149452271Y-105824264D01*
X149382457Y-105760988D01*
X149319181Y-105691175D01*
X149263054Y-105615495D01*
X149261333Y-105612624D01*
X150061523Y-105612624D01*
X150073906Y-105708826D01*
X150114863Y-105758356D01*
X150232973Y-105781216D01*
X150977828Y-105781216D01*
X151095938Y-105729781D01*
X151145468Y-105609766D01*
X151127609Y-105510944D01*
X151074031Y-105420219D01*
X150995211Y-105339732D01*
X150901628Y-105271629D01*
X150800663Y-105210192D01*
X150699698Y-105149709D01*
X150606115Y-105085653D01*
X150602213Y-105082081D01*
X151240718Y-105082081D01*
X151250005Y-105245554D01*
X151277866Y-105391167D01*
X151324300Y-105518921D01*
X151389308Y-105628816D01*
X151455269Y-105698349D01*
X151542661Y-105754546D01*
X151648626Y-105791694D01*
X151770308Y-105804076D01*
X151892466Y-105791455D01*
X151999861Y-105753594D01*
X152088919Y-105697158D01*
X152156071Y-105628816D01*
X152207267Y-105547377D01*
X152248463Y-105451651D01*
X152279155Y-105337563D01*
X152297570Y-105213738D01*
X152303708Y-105080176D01*
X152298734Y-104959314D01*
X152283811Y-104850729D01*
X152258941Y-104754421D01*
X152211554Y-104633692D01*
X152158928Y-104542013D01*
X152141985Y-104523916D01*
X152379908Y-104523916D01*
X152408483Y-104615356D01*
X152934263Y-105682156D01*
X152998081Y-105749784D01*
X153086663Y-105775501D01*
X153105713Y-105775501D01*
X153196201Y-105749784D01*
X153260018Y-105682156D01*
X153295696Y-105609766D01*
X153890573Y-105609766D01*
X153908194Y-105715494D01*
X153961058Y-105765976D01*
X154060118Y-105777406D01*
X154814498Y-105777406D01*
X154920226Y-105759309D01*
X154970708Y-105705016D01*
X154978328Y-105640246D01*
X155086913Y-105640246D01*
X155116441Y-105706921D01*
X155205023Y-105762166D01*
X155303131Y-105788836D01*
X155364091Y-105770739D01*
X155399333Y-105733591D01*
X155424310Y-105679193D01*
X155473840Y-105564258D01*
X155547923Y-105388786D01*
X155606978Y-105392596D01*
X155847008Y-105392596D01*
X155847008Y-105607861D01*
X155849866Y-105673584D01*
X155867963Y-105724066D01*
X155918446Y-105762642D01*
X156016553Y-105775501D01*
X156122281Y-105757880D01*
X156172763Y-105705016D01*
X156184193Y-105605956D01*
X156184193Y-104548681D01*
X156181336Y-104482958D01*
X156163238Y-104432476D01*
X156112756Y-104393900D01*
X156014648Y-104381041D01*
X155603168Y-104381041D01*
X155492466Y-104394588D01*
X155383881Y-104435228D01*
X155277413Y-104502961D01*
X155207881Y-104572493D01*
X155151683Y-104662981D01*
X155114536Y-104769661D01*
X155102153Y-104887771D01*
X155118028Y-105022814D01*
X155165653Y-105140924D01*
X155245028Y-105242101D01*
X155212008Y-105320206D01*
X155168828Y-105419901D01*
X155115488Y-105541186D01*
X155086913Y-105640246D01*
X154978328Y-105640246D01*
X154982138Y-105607861D01*
X154982138Y-104548681D01*
X154945943Y-104416283D01*
X154808783Y-104381041D01*
X154058213Y-104381041D01*
X153992491Y-104383898D01*
X153942008Y-104401996D01*
X153903432Y-104452478D01*
X153890573Y-104550586D01*
X153908194Y-104656313D01*
X153961058Y-104706796D01*
X154060118Y-104718226D01*
X154644953Y-104718226D01*
X154644953Y-104910631D01*
X154267763Y-104910631D01*
X154202041Y-104913488D01*
X154151558Y-104931586D01*
X154112982Y-104982068D01*
X154100123Y-105080176D01*
X154118221Y-105185904D01*
X154172513Y-105236386D01*
X154271573Y-105247816D01*
X154644953Y-105247816D01*
X154644953Y-105440221D01*
X154058213Y-105440221D01*
X153992491Y-105443079D01*
X153942008Y-105461176D01*
X153903432Y-105511659D01*
X153890573Y-105609766D01*
X153295696Y-105609766D01*
X153785798Y-104615356D01*
X153814373Y-104523916D01*
X153786274Y-104460098D01*
X153701978Y-104401996D01*
X153605776Y-104369611D01*
X153555293Y-104377231D01*
X153522908Y-104403901D01*
X153491476Y-104454383D01*
X153465996Y-104507723D01*
X153418133Y-104612498D01*
X153356935Y-104747039D01*
X153291451Y-104889676D01*
X153225728Y-105032313D01*
X153163816Y-105166854D01*
X153116905Y-105268533D01*
X153096188Y-105312586D01*
X152715188Y-104478196D01*
X152688518Y-104421046D01*
X152604698Y-104369611D01*
X152492303Y-104401996D01*
X152408007Y-104460098D01*
X152379908Y-104523916D01*
X152141985Y-104523916D01*
X152092491Y-104471052D01*
X152003671Y-104412473D01*
X151895800Y-104373183D01*
X151772213Y-104360086D01*
X151649102Y-104372945D01*
X151542661Y-104411521D01*
X151455031Y-104469147D01*
X151388356Y-104539156D01*
X151337635Y-104622023D01*
X151297868Y-104718226D01*
X151266118Y-104834854D01*
X151247068Y-104956139D01*
X151240718Y-105082081D01*
X150602213Y-105082081D01*
X150527296Y-105013501D01*
X150473717Y-104934920D01*
X150455858Y-104851576D01*
X150469193Y-104802998D01*
X150498721Y-104751563D01*
X150549203Y-104714416D01*
X150644453Y-104697271D01*
X150750181Y-104742038D01*
X150800663Y-104830621D01*
X150808283Y-104874436D01*
X150808283Y-104885866D01*
X150811141Y-104948731D01*
X150829238Y-104996356D01*
X150880673Y-105030646D01*
X150977828Y-105042076D01*
X151084032Y-105023978D01*
X151135943Y-104969686D01*
X151145468Y-104872531D01*
X151129699Y-104745002D01*
X151082391Y-104626574D01*
X151003546Y-104517248D01*
X150899194Y-104429936D01*
X150775369Y-104377548D01*
X150632071Y-104360086D01*
X150488666Y-104377760D01*
X150364524Y-104430783D01*
X150259643Y-104519153D01*
X150180268Y-104630173D01*
X150132643Y-104751140D01*
X150116768Y-104882056D01*
X150128674Y-104987783D01*
X150164393Y-105087796D01*
X150216781Y-105175426D01*
X150278693Y-105244006D01*
X150412043Y-105349257D01*
X150530153Y-105413551D01*
X150577778Y-105432601D01*
X150577778Y-105442126D01*
X150229163Y-105442126D01*
X150117721Y-105460224D01*
X150072953Y-105515469D01*
X150061523Y-105612624D01*
X149261333Y-105612624D01*
X149214614Y-105534678D01*
X149174329Y-105449503D01*
X149142587Y-105360789D01*
X149119693Y-105269391D01*
X149105867Y-105176189D01*
X149101244Y-105082081D01*
X149105867Y-104987973D01*
X149119693Y-104894771D01*
X149142587Y-104803373D01*
X149174329Y-104714659D01*
X149214614Y-104629484D01*
X149263054Y-104548667D01*
X149319181Y-104472987D01*
X149382457Y-104403174D01*
X149452271Y-104339898D01*
X149527950Y-104283770D01*
X149608767Y-104235331D01*
X149693942Y-104195046D01*
X149782656Y-104163303D01*
X149874054Y-104140409D01*
X149967256Y-104126584D01*
X150061364Y-104121961D01*
X156184352Y-104121961D01*
X156278460Y-104126584D01*
G37*
G36*
X151857224Y-104721262D02*
G01*
X151917946Y-104793235D01*
X151954379Y-104913191D01*
X151966523Y-105081128D01*
X151954498Y-105249066D01*
X151918422Y-105369022D01*
X151858295Y-105440995D01*
X151774118Y-105464986D01*
X151688274Y-105441650D01*
X151626957Y-105371641D01*
X151590166Y-105254960D01*
X151577903Y-105091606D01*
X151577903Y-105080176D01*
X151590047Y-104912655D01*
X151626481Y-104792997D01*
X151687202Y-104721203D01*
X151772213Y-104697271D01*
X151857224Y-104721262D01*
G37*
G36*
X155847008Y-105055411D02*
G01*
X155603168Y-105055411D01*
X155492678Y-105013501D01*
X155437433Y-104887771D01*
X155492678Y-104761088D01*
X155606978Y-104718226D01*
X155847008Y-104718226D01*
X155847008Y-105055411D01*
G37*
M02*
