%FSLAX45Y45*%
G04 Gerber Fmt 4.5, Leading zero omitted, Abs format (unit mm)*
G04 Created by KiCad (PCBNEW (6.0.5)) date 2022-06-02 14:19:27*
%MOMM*%
%LPD*%
G01*
G04 APERTURE LIST*
%TA.AperFunction,Profile*%
%ADD10C,0.050000*%
%TD*%
%ADD11C,0.200000*%
%ADD12C,0.040000*%
G04 APERTURE END LIST*
D10*
X14982686Y-11640505D02*
G75*
G03*
X15041386Y-11601208I9704J48995D01*
G01*
X17109292Y-9845208D02*
G75*
G03*
X17059286Y-9795208I-50002J-2D01*
G01*
X15974986Y-8197608D02*
X16021186Y-8216808D01*
X14336986Y-10948508D02*
X14124886Y-11160708D01*
X14750387Y-11154104D02*
G75*
G03*
X14685085Y-11181209I-19098J-46206D01*
G01*
X14590386Y-8003908D02*
X14551886Y-7910908D01*
X16021186Y-11523608D02*
G75*
G03*
X16048286Y-11458308I-19096J46198D01*
G01*
X13931286Y-10118808D02*
X13941086Y-10167808D01*
X17040286Y-9602407D02*
G75*
G03*
X17079686Y-9543608I-9696J49097D01*
G01*
X13812586Y-10780108D02*
X14061986Y-10613408D01*
X14240086Y-11560408D02*
G75*
G03*
X14497987Y-11698256I1069194J1690188D01*
G01*
X16281588Y-10877810D02*
G75*
G03*
X16281486Y-10948509I35302J-35400D01*
G01*
X13674686Y-8717808D02*
X13590986Y-8661908D01*
X13358086Y-9431108D02*
X13259386Y-9411508D01*
X16288486Y-8359708D02*
X16330086Y-8387408D01*
X15577086Y-11601208D02*
X15518586Y-11307008D01*
X14018788Y-11054610D02*
G75*
G03*
X14018786Y-11125408I35402J-35400D01*
G01*
X17260486Y-10309308D02*
X17359186Y-10328908D01*
X16048286Y-8282108D02*
X15933486Y-8559308D01*
X16943886Y-8717808D02*
G75*
G03*
X16758365Y-8491763I-1634606J-1152402D01*
G01*
X16620186Y-9246008D02*
X16897386Y-9131208D01*
X13860186Y-8491808D02*
X13788986Y-8420608D01*
X17279986Y-10211208D02*
X17378686Y-10230908D01*
X15234286Y-11620208D02*
X15234286Y-11320208D01*
X15557886Y-11248207D02*
G75*
G03*
X15518686Y-11307009I9804J-49003D01*
G01*
X15359286Y-11869609D02*
G75*
G03*
X15650312Y-11840944I-50006J1999419D01*
G01*
X16556586Y-10613408D02*
X16805986Y-10780108D01*
X13931292Y-10118807D02*
G75*
G03*
X13872485Y-10079608I-49002J-9803D01*
G01*
X14336988Y-8862610D02*
G75*
G03*
X14337085Y-8791908I-35298J35400D01*
G01*
X14240086Y-11560408D02*
X14184186Y-11644108D01*
X16473286Y-9002308D02*
X16722686Y-8835608D01*
X14025386Y-9311308D02*
X14006286Y-9357508D01*
X15384292Y-11320208D02*
G75*
G03*
X15334286Y-11270208I-50002J-2D01*
G01*
X17059286Y-9945206D02*
G75*
G03*
X17109286Y-9895208I4J49996D01*
G01*
X16612292Y-9357506D02*
G75*
G03*
X16677587Y-9384608I46198J19096D01*
G01*
X16316890Y-8897904D02*
G75*
G03*
X16387586Y-8898008I35400J35294D01*
G01*
X13859286Y-9945208D02*
X13559286Y-9945208D01*
X16378486Y-8180008D02*
X16434386Y-8096308D01*
X13859688Y-8349906D02*
G75*
G03*
X13789086Y-8420708I-35298J-35404D01*
G01*
X16288489Y-8359704D02*
G75*
G03*
X16219286Y-8373508I-27699J-41506D01*
G01*
X15359286Y-11869608D02*
X15359286Y-11970208D01*
X14510689Y-11020404D02*
G75*
G03*
X14441385Y-11034109I-27799J-41506D01*
G01*
X14006292Y-10382906D02*
G75*
G03*
X13940985Y-10355808I-46202J-19104D01*
G01*
X15665686Y-11277708D02*
X15724286Y-11571908D01*
X17137286Y-9058908D02*
X17230286Y-9020408D01*
X15684986Y-11630708D02*
X15635886Y-11640508D01*
X16281586Y-8791908D02*
X16493686Y-8579708D01*
X16517593Y-8151913D02*
G75*
G03*
X16434386Y-8096308I-41603J27803D01*
G01*
X16677586Y-10355808D02*
X16954786Y-10470608D01*
X17040286Y-9602408D02*
X16746086Y-9660908D01*
X13940987Y-9384604D02*
G75*
G03*
X14006286Y-9357508I19103J46194D01*
G01*
X14968286Y-11840908D02*
G75*
G03*
X15259306Y-11869568I341004J1970708D01*
G01*
X16593186Y-10429108D02*
X16612286Y-10382908D01*
X16746086Y-10079508D02*
X17040286Y-10138008D01*
X14933586Y-8109708D02*
X14982686Y-8099908D01*
X13239887Y-10230913D02*
G75*
G03*
X13259486Y-10328908I9803J-48997D01*
G01*
X13872486Y-9660908D02*
X13578286Y-9602408D01*
X13548786Y-10245908D02*
X13538986Y-10196808D01*
X16461686Y-11504808D02*
X16517586Y-11588508D01*
X16461686Y-8235608D02*
X16517586Y-8151908D01*
X14796586Y-8567208D02*
X14750386Y-8586308D01*
X15099991Y-11307009D02*
G75*
G03*
X15060686Y-11248108I-49101J9799D01*
G01*
X14156886Y-8235608D02*
X14100986Y-8151908D01*
X17079591Y-10196809D02*
G75*
G03*
X17040286Y-10138108I-49001J9699D01*
G01*
X13895886Y-8835608D02*
X14145286Y-9002308D01*
X16954786Y-9269808D02*
G75*
G03*
X16981886Y-9204508I-19096J46198D01*
G01*
X15259286Y-7870808D02*
X15259286Y-7770208D01*
X16758888Y-11390506D02*
G75*
G03*
X16829486Y-11319708I35302J35396D01*
G01*
X16943886Y-11022608D02*
X17027586Y-11078508D01*
X16021186Y-11523608D02*
X15974986Y-11542808D01*
X13860186Y-8491808D02*
G75*
G03*
X13674672Y-8717856I1449094J-1378392D01*
G01*
X16177191Y-11034205D02*
G75*
G03*
X16107986Y-11020408I-41501J-27705D01*
G01*
X13930886Y-8421108D02*
X13859686Y-8349908D01*
X16387586Y-10842508D02*
G75*
G03*
X16316986Y-10842508I-35300J-35300D01*
G01*
X17175586Y-9151308D02*
X17268586Y-9112808D01*
X15518586Y-8433408D02*
X15577086Y-8139208D01*
X14643587Y-11542804D02*
G75*
G03*
X14708886Y-11515708I19103J46194D01*
G01*
X15041492Y-8139207D02*
G75*
G03*
X14982686Y-8099808I-49102J-9703D01*
G01*
X16716786Y-9513808D02*
X17010986Y-9455208D01*
X16459489Y-10668810D02*
G75*
G03*
X16473186Y-10738109I41501J-27800D01*
G01*
X16316886Y-8897908D02*
X16281586Y-8862608D01*
X15259286Y-7870808D02*
G75*
G03*
X14968260Y-7899472I50004J-1999412D01*
G01*
X13209286Y-9820212D02*
G75*
G03*
X13209286Y-9920208I4J-49998D01*
G01*
X16120586Y-11698208D02*
G75*
G03*
X16378480Y-11560361I-811306J1828008D01*
G01*
X14497986Y-11698208D02*
X14459486Y-11791208D01*
X13578286Y-10138007D02*
G75*
G03*
X13538886Y-10196808I9704J-49103D01*
G01*
X14948593Y-7800807D02*
G75*
G03*
X14850586Y-7820408I-49003J-9803D01*
G01*
X17137286Y-10681508D02*
X17230286Y-10720008D01*
X16461686Y-11504808D02*
G75*
G03*
X16687731Y-11319287I-1152406J1634608D01*
G01*
X13349988Y-10627614D02*
G75*
G03*
X13388386Y-10720008I19202J-46196D01*
G01*
X16746086Y-10079505D02*
G75*
G03*
X16687186Y-10118808I-9797J-49105D01*
G01*
X16981886Y-10535908D02*
X16962686Y-10582108D01*
X14933586Y-8109707D02*
G75*
G03*
X14894386Y-8168508I9804J-49003D01*
G01*
X15933486Y-11181108D02*
X16048286Y-11458308D01*
X16281588Y-8791910D02*
G75*
G03*
X16281586Y-8862508I35302J-35300D01*
G01*
X16677486Y-10167808D02*
X16687286Y-10118808D01*
X14552287Y-8692309D02*
G75*
G03*
X14566085Y-8622907I-27797J41599D01*
G01*
X17027587Y-11078507D02*
G75*
G03*
X17083186Y-10995308I27803J41597D01*
G01*
X14025390Y-9311310D02*
G75*
G03*
X13998285Y-9246008I-46200J19100D01*
G01*
X13538986Y-9543608D02*
X13548786Y-9494508D01*
X16759286Y-9795208D02*
X17059286Y-9795208D01*
X13481286Y-10681508D02*
X13388286Y-10720008D01*
X16677587Y-10355804D02*
G75*
G03*
X16612286Y-10382908I-19098J-46206D01*
G01*
X16378486Y-8180008D02*
G75*
G03*
X16120585Y-8042160I-1069196J-1690192D01*
G01*
X15384292Y-8120208D02*
G75*
G03*
X15334286Y-8070208I-50002J-2D01*
G01*
X17010986Y-10285208D02*
X16716786Y-10226608D01*
X14685086Y-8559308D02*
X14570286Y-8282108D01*
X13590987Y-8661907D02*
G75*
G03*
X13535386Y-8745108I-27797J-41603D01*
G01*
X13721186Y-9131208D02*
X13998386Y-9246008D01*
X15234292Y-8420208D02*
G75*
G03*
X15284286Y-8470208I49998J-2D01*
G01*
X13619085Y-8801008D02*
G75*
G03*
X13481238Y-9058909I1690195J-1069192D01*
G01*
X15334286Y-11670206D02*
G75*
G03*
X15384286Y-11620208I4J49996D01*
G01*
X16792091Y-8849405D02*
G75*
G03*
X16722686Y-8835608I-41601J-27805D01*
G01*
X13998386Y-10494408D02*
X13721186Y-10609208D01*
X16493686Y-11160708D02*
G75*
G03*
X16564486Y-11160708I35400J35400D01*
G01*
X15909692Y-11515706D02*
G75*
G03*
X15974986Y-11542808I46198J19096D01*
G01*
X13338586Y-9529208D02*
G75*
G03*
X13309925Y-9820229I1970714J-341002D01*
G01*
X15794890Y-8501910D02*
G75*
G03*
X15821986Y-8567208I46200J-19100D01*
G01*
X16687686Y-8421108D02*
G75*
G03*
X16461638Y-8235594I-1378396J-1449092D01*
G01*
X13663786Y-10470608D02*
X13940986Y-10355808D01*
X15284286Y-8070208D02*
X15334286Y-8070208D01*
X13812587Y-10780109D02*
G75*
G03*
X13798686Y-10849408I27703J-41601D01*
G01*
X15518591Y-8433409D02*
G75*
G03*
X15557886Y-8492308I49099J-9801D01*
G01*
X17268588Y-9112814D02*
G75*
G03*
X17230186Y-9020408I-19198J46204D01*
G01*
X16687292Y-9621607D02*
G75*
G03*
X16746087Y-9660808I48998J9797D01*
G01*
X15650286Y-7899509D02*
G75*
G03*
X15359265Y-7870848I-341006J-1970711D01*
G01*
X15606886Y-8502005D02*
G75*
G03*
X15665786Y-8462707I9804J49095D01*
G01*
X16281586Y-10877808D02*
X16316886Y-10842508D01*
X17308686Y-9820208D02*
G75*
G03*
X17280022Y-9529182I-1999416J-50002D01*
G01*
X14124886Y-8579708D02*
G75*
G03*
X14054086Y-8579708I-35400J-35400D01*
G01*
X15767995Y-7820310D02*
G75*
G03*
X15669986Y-7800908I-49005J9700D01*
G01*
X13358085Y-10309308D02*
G75*
G03*
X13442974Y-10589146I1951215J439108D01*
G01*
X16962692Y-9158306D02*
G75*
G03*
X16897386Y-9131208I-46202J-19104D01*
G01*
X16805986Y-8960308D02*
X16556586Y-9127008D01*
X14459494Y-11791212D02*
G75*
G03*
X14551886Y-11829408I46196J-19098D01*
G01*
X16999486Y-8801008D02*
X17083186Y-8745108D01*
X15748386Y-7919008D02*
X15767986Y-7820308D01*
X14288486Y-8387408D02*
X14330086Y-8359708D01*
X17175586Y-10589108D02*
X17268586Y-10627608D01*
X15112588Y-9685210D02*
G75*
G03*
X15112623Y-10055247I196702J-185000D01*
G01*
X13655892Y-10582106D02*
G75*
G03*
X13721186Y-10609208I46198J19096D01*
G01*
X14823690Y-11238510D02*
G75*
G03*
X14796586Y-11173208I-46200J19100D01*
G01*
X13481286Y-9058908D02*
X13388286Y-9020408D01*
X14441391Y-8706205D02*
G75*
G03*
X14510586Y-8720008I41499J27695D01*
G01*
X15748386Y-11821409D02*
G75*
G03*
X16028224Y-11736519I-439106J1951209D01*
G01*
X13901786Y-10226607D02*
G75*
G03*
X13940986Y-10167808I-9796J48997D01*
G01*
X14894286Y-11571908D02*
X14952886Y-11277708D01*
X16819786Y-10849408D02*
X16792086Y-10891008D01*
X13338586Y-10211208D02*
X13239886Y-10230908D01*
X16677491Y-10167809D02*
G75*
G03*
X16716787Y-10226708I49099J-9801D01*
G01*
X13619086Y-10939408D02*
X13535386Y-10995308D01*
X14330089Y-11380704D02*
G75*
G03*
X14399286Y-11366908I27701J41494D01*
G01*
X16387586Y-10842508D02*
X16599786Y-11054608D01*
X14952886Y-8462708D02*
X14894286Y-8168508D01*
X16330086Y-11353008D02*
X16288486Y-11380708D01*
X16709292Y-9895208D02*
G75*
G03*
X16759287Y-9945208I49998J-2D01*
G01*
X14968286Y-7899508D02*
X14948586Y-7800808D01*
X13388286Y-9020408D02*
G75*
G03*
X13350086Y-9112808I-19096J-46202D01*
G01*
X14156886Y-11504808D02*
X14100986Y-11588508D01*
X16564390Y-8579704D02*
G75*
G03*
X16493686Y-8579808I-35300J-35406D01*
G01*
X13909292Y-9845208D02*
G75*
G03*
X13859285Y-9795208I-50002J-2D01*
G01*
X17109286Y-9845208D02*
X17109286Y-9895208D01*
X15868186Y-8586308D02*
X15821986Y-8567208D01*
X15112586Y-10055208D02*
X15505986Y-10055208D01*
X16709286Y-9895208D02*
X16709286Y-9845208D01*
X14230986Y-8897908D02*
X14018786Y-8685808D01*
X16758386Y-11248608D02*
G75*
G03*
X16943900Y-11022560I-1449096J1378398D01*
G01*
X14570286Y-11458308D02*
X14685086Y-11181108D01*
X16943886Y-8717808D02*
X17027586Y-8661908D01*
X16066286Y-11048108D02*
X16107886Y-11020408D01*
X15359286Y-7770208D02*
G75*
G03*
X15259286Y-7770208I-50000J0D01*
G01*
X15112586Y-9685208D02*
X15505986Y-9685208D01*
X14145287Y-10738109D02*
G75*
G03*
X14159086Y-10668908I-27697J41499D01*
G01*
X14796586Y-8567208D02*
G75*
G03*
X14823685Y-8501907I-19096J46198D01*
G01*
X16829592Y-8420614D02*
G75*
G03*
X16758786Y-8350008I-35402J35304D01*
G01*
X16999486Y-10939408D02*
X17083186Y-10995308D01*
X15234292Y-11620208D02*
G75*
G03*
X15284286Y-11670208I49998J-2D01*
G01*
X14131386Y-10627208D02*
X14159086Y-10668808D01*
X16716786Y-9513807D02*
G75*
G03*
X16677586Y-9572608I9804J-49003D01*
G01*
X15384286Y-11320208D02*
X15384286Y-11620208D01*
X14018786Y-8615108D02*
X14054186Y-8579708D01*
X14054186Y-11160708D02*
X14018786Y-11125308D01*
X16028186Y-8003908D02*
G75*
G03*
X15748350Y-7919025I-718896J-1866292D01*
G01*
X14336986Y-8862608D02*
X14301686Y-8897908D01*
X14952892Y-8462707D02*
G75*
G03*
X15011686Y-8501908I48998J9797D01*
G01*
X13930886Y-11319308D02*
G75*
G03*
X14156934Y-11504822I1378394J1449088D01*
G01*
X14131391Y-10627205D02*
G75*
G03*
X14061985Y-10613409I-41601J-27805D01*
G01*
X17079586Y-10196808D02*
X17069786Y-10245908D01*
X14330086Y-11380708D02*
X14288486Y-11353008D01*
X15284286Y-8070206D02*
G75*
G03*
X15234286Y-8120208I4J-50004D01*
G01*
X17308686Y-9820208D02*
X17409286Y-9820208D01*
X14597386Y-8216808D02*
X14643586Y-8197608D01*
X13674685Y-11022608D02*
G75*
G03*
X13860206Y-11248653I1634605J1152408D01*
G01*
X16028186Y-11736508D02*
X16066686Y-11829508D01*
X16219186Y-11366908D02*
X16052486Y-11117508D01*
X16599788Y-11125310D02*
G75*
G03*
X16599686Y-11054608I-35398J35300D01*
G01*
X16120586Y-8042208D02*
X16159086Y-7949208D01*
X13636690Y-9204510D02*
G75*
G03*
X13663786Y-9269808I46200J-19100D01*
G01*
X14054190Y-11160704D02*
G75*
G03*
X14124886Y-11160608I35300J35394D01*
G01*
X16066287Y-11048109D02*
G75*
G03*
X16052486Y-11117509I27803J-41601D01*
G01*
X13721187Y-9131204D02*
G75*
G03*
X13655886Y-9158308I-19098J-46206D01*
G01*
X16434390Y-11644105D02*
G75*
G03*
X16517586Y-11588508I41600J27795D01*
G01*
X16599786Y-11125308D02*
X16564386Y-11160708D01*
X13930886Y-11319308D02*
X13859686Y-11390508D01*
X13860186Y-11248608D02*
X13788986Y-11319808D01*
X16556589Y-10613404D02*
G75*
G03*
X16487186Y-10627208I-27799J-41606D01*
G01*
X13674686Y-11022608D02*
X13590986Y-11078508D01*
X15259286Y-11970208D02*
G75*
G03*
X15359286Y-11970208I50000J0D01*
G01*
X15284286Y-11270206D02*
G75*
G03*
X15234286Y-11320209I4J-50004D01*
G01*
X16052489Y-8622910D02*
G75*
G03*
X16066286Y-8692308I41601J-27800D01*
G01*
X15748386Y-11821408D02*
X15767986Y-11920108D01*
X16107889Y-8720004D02*
G75*
G03*
X16177186Y-8706307I27801J41494D01*
G01*
X13509292Y-9895208D02*
G75*
G03*
X13559286Y-9945208I49998J-2D01*
G01*
X17069786Y-9494508D02*
X17079586Y-9543608D01*
X13619086Y-8801008D02*
X13535386Y-8745108D01*
X16722686Y-10904808D02*
X16473286Y-10738108D01*
X15650286Y-7899508D02*
X15669986Y-7800808D01*
X16954786Y-9269808D02*
X16677586Y-9384608D01*
X13655886Y-10582108D02*
X13636686Y-10535908D01*
X15041486Y-8139208D02*
X15099986Y-8433408D01*
X13309886Y-9920208D02*
X13209286Y-9920208D01*
X14301686Y-10842508D02*
X14336986Y-10877808D01*
X13941086Y-9572608D02*
X13931286Y-9621608D01*
X17010987Y-10285205D02*
G75*
G03*
X17069886Y-10245908I9804J49095D01*
G01*
X13548792Y-10245907D02*
G75*
G03*
X13607586Y-10285108I48998J9797D01*
G01*
X16687686Y-11319308D02*
X16758886Y-11390508D01*
X16473287Y-9002309D02*
G75*
G03*
X16459486Y-9071508I27703J-41501D01*
G01*
X14497986Y-8042208D02*
X14459486Y-7949208D01*
X14750386Y-11154108D02*
X14796586Y-11173208D01*
X13636686Y-9204508D02*
X13655886Y-9158308D01*
X14145286Y-10738108D02*
X13895886Y-10904808D01*
X16219191Y-11366905D02*
G75*
G03*
X16288486Y-11380808I41599J27695D01*
G01*
X16758386Y-11248608D02*
X16829586Y-11319808D01*
X16897386Y-10609208D02*
X16620186Y-10494408D01*
X15557886Y-11248208D02*
X15606886Y-11238408D01*
X15821986Y-11173208D02*
G75*
G03*
X15794886Y-11238509I19104J-46202D01*
G01*
X14597386Y-8216808D02*
G75*
G03*
X14570286Y-8282108I19104J-46202D01*
G01*
X14018786Y-11054608D02*
X14230986Y-10842508D01*
X17137286Y-9058908D02*
G75*
G03*
X16999438Y-8801014I-1828006J-811302D01*
G01*
X13309886Y-9920208D02*
G75*
G03*
X13338549Y-10211234I1999414J49998D01*
G01*
X16897388Y-10609204D02*
G75*
G03*
X16962686Y-10582108I19103J46194D01*
G01*
X14708892Y-8224706D02*
G75*
G03*
X14643586Y-8197608I-46202J-19104D01*
G01*
X13535390Y-10995315D02*
G75*
G03*
X13590986Y-11078508I27800J-41595D01*
G01*
X16687286Y-9621608D02*
X16677486Y-9572608D01*
X13442986Y-9151308D02*
X13349986Y-9112808D01*
X14982686Y-11640508D02*
X14933586Y-11630708D01*
X14850595Y-11920110D02*
G75*
G03*
X14948586Y-11939508I48995J-9700D01*
G01*
X16177186Y-11034208D02*
X16343886Y-11283608D01*
X16487191Y-9113205D02*
G75*
G03*
X16556586Y-9127008I41599J27795D01*
G01*
X16159094Y-7949212D02*
G75*
G03*
X16066686Y-7911008I-46204J19102D01*
G01*
X14685092Y-8559306D02*
G75*
G03*
X14750486Y-8586308I46198J19196D01*
G01*
X17279986Y-10211208D02*
G75*
G03*
X17308646Y-9920188I-1970706J340998D01*
G01*
X14894291Y-11571909D02*
G75*
G03*
X14933586Y-11630808I49099J-9801D01*
G01*
X13559286Y-9795208D02*
X13859286Y-9795208D01*
X16805987Y-8960309D02*
G75*
G03*
X16819886Y-8891008I-27697J41599D01*
G01*
X16564386Y-8579708D02*
X16599786Y-8615108D01*
X17279986Y-9529208D02*
X17378686Y-9509508D01*
X13259385Y-9411510D02*
G75*
G03*
X13239986Y-9509508I-9695J-49000D01*
G01*
X13607586Y-9455208D02*
X13901786Y-9513808D01*
X17409286Y-9920212D02*
G75*
G03*
X17409286Y-9820208I4J50002D01*
G01*
X15821986Y-11173208D02*
X15868186Y-11154108D01*
X13578286Y-10138008D02*
X13872486Y-10079508D01*
X15724286Y-8168508D02*
X15665686Y-8462708D01*
X13940986Y-9384608D02*
X13663786Y-9269808D01*
X13663786Y-10470608D02*
G75*
G03*
X13636686Y-10535908I19104J-46202D01*
G01*
X15724291Y-8168509D02*
G75*
G03*
X15684986Y-8109608I-49101J9799D01*
G01*
X16120586Y-11698208D02*
X16159086Y-11791208D01*
X16599788Y-8685810D02*
G75*
G03*
X16599786Y-8615008I-35398J35400D01*
G01*
X16599786Y-8685808D02*
X16387586Y-8897908D01*
X13788992Y-11319814D02*
G75*
G03*
X13859786Y-11390408I35398J-35296D01*
G01*
X16066692Y-11829506D02*
G75*
G03*
X16159086Y-11791108I46198J19196D01*
G01*
X14497986Y-8042208D02*
G75*
G03*
X14240092Y-8180055I811304J-1828002D01*
G01*
X15974987Y-8197604D02*
G75*
G03*
X15909686Y-8224708I-19098J-46206D01*
G01*
X15909686Y-11515708D02*
X15794886Y-11238508D01*
X14184190Y-8096305D02*
G75*
G03*
X14100986Y-8151908I-41600J-27805D01*
G01*
X14301690Y-10842504D02*
G75*
G03*
X14230985Y-10842409I-35400J-35306D01*
G01*
X15606886Y-8502008D02*
X15557886Y-8492208D01*
X13798786Y-8891008D02*
X13826486Y-8849408D01*
X14552286Y-8692308D02*
X14510686Y-8720008D01*
X14590385Y-11736509D02*
G75*
G03*
X14870222Y-11821391I718895J1866299D01*
G01*
X17359185Y-10328910D02*
G75*
G03*
X17378586Y-10230908I9705J49000D01*
G01*
X15505988Y-10055210D02*
G75*
G03*
X15505949Y-9685169I-196698J185000D01*
G01*
X16052486Y-8622908D02*
X16219186Y-8373508D01*
X14566086Y-11117508D02*
X14399386Y-11366908D01*
X17069792Y-9494507D02*
G75*
G03*
X17010986Y-9455308I-49002J-9803D01*
G01*
X15359286Y-7870808D02*
X15359286Y-7770208D01*
X16722689Y-10904804D02*
G75*
G03*
X16792086Y-10891008I27801J41594D01*
G01*
X16343889Y-8456810D02*
G75*
G03*
X16330086Y-8387408I-41599J27800D01*
G01*
X16962686Y-9158308D02*
X16981886Y-9204508D01*
X14510686Y-11020408D02*
X14552286Y-11048108D01*
X14823686Y-11238508D02*
X14708886Y-11515708D01*
X13559286Y-9795206D02*
G75*
G03*
X13509286Y-9845208I4J-50004D01*
G01*
X14061989Y-9127004D02*
G75*
G03*
X14131386Y-9113208I27801J41594D01*
G01*
X14399391Y-8373505D02*
G75*
G03*
X14330086Y-8359608I-41601J-27705D01*
G01*
X16687686Y-8421108D02*
X16758886Y-8349908D01*
X14643586Y-11542808D02*
X14597386Y-11523608D01*
X16593190Y-10429110D02*
G75*
G03*
X16620287Y-10494408I46200J-19100D01*
G01*
X16459486Y-10668808D02*
X16487186Y-10627208D01*
X15011686Y-11238405D02*
G75*
G03*
X14952786Y-11277709I-9797J-49105D01*
G01*
X15234286Y-8420208D02*
X15234286Y-8120208D01*
X16981890Y-10535910D02*
G75*
G03*
X16954786Y-10470608I-46200J19100D01*
G01*
X14968286Y-11840908D02*
X14948586Y-11939608D01*
X14570290Y-11458310D02*
G75*
G03*
X14597386Y-11523608I46200J-19100D01*
G01*
X15635886Y-8099908D02*
X15684986Y-8109708D01*
X13481285Y-10681508D02*
G75*
G03*
X13619133Y-10939402I1828005J811308D01*
G01*
X14708886Y-8224708D02*
X14823686Y-8501908D01*
X16759286Y-9795206D02*
G75*
G03*
X16709286Y-9845208I4J-50004D01*
G01*
X13538991Y-9543609D02*
G75*
G03*
X13578286Y-9602308I48999J-9701D01*
G01*
X14156886Y-8235609D02*
G75*
G03*
X13930840Y-8421129I1152404J-1634611D01*
G01*
X13509286Y-9895208D02*
X13509286Y-9845208D01*
X15684986Y-11630707D02*
G75*
G03*
X15724186Y-11571908I-9796J48997D01*
G01*
X14159089Y-9071610D02*
G75*
G03*
X14145385Y-9002308I-41499J27800D01*
G01*
X14006286Y-10382908D02*
X14025386Y-10429108D01*
X14590386Y-11736508D02*
X14551886Y-11829508D01*
X15794886Y-8501908D02*
X15909686Y-8224708D01*
X16028186Y-8003908D02*
X16066686Y-7910908D01*
X17059286Y-9945208D02*
X16759286Y-9945208D01*
X14100993Y-11588513D02*
G75*
G03*
X14184186Y-11644108I41597J-27797D01*
G01*
X13895889Y-8835604D02*
G75*
G03*
X13826486Y-8849408I-27799J-41606D01*
G01*
X13607586Y-9455205D02*
G75*
G03*
X13548686Y-9494508I-9797J-49105D01*
G01*
X13338586Y-9529208D02*
X13239886Y-9509508D01*
X14336988Y-10948510D02*
G75*
G03*
X14336986Y-10877908I-35298J35300D01*
G01*
X17083190Y-8745115D02*
G75*
G03*
X17027586Y-8661908I-27800J41605D01*
G01*
X16493686Y-11160708D02*
X16281586Y-10948508D01*
X15060686Y-8492208D02*
X15011686Y-8502008D01*
X17260486Y-9431108D02*
X17359186Y-9411508D01*
X15665692Y-11277707D02*
G75*
G03*
X15606886Y-11238508I-49002J-9803D01*
G01*
X16792086Y-8849408D02*
X16819786Y-8891008D01*
X14870186Y-7919008D02*
X14850586Y-7820308D01*
X13309886Y-9820208D02*
X13209286Y-9820208D01*
X15868187Y-8586304D02*
G75*
G03*
X15933486Y-8559207I19103J46194D01*
G01*
X16048290Y-8282110D02*
G75*
G03*
X16021186Y-8216808I-46200J19100D01*
G01*
X13901786Y-10226608D02*
X13607586Y-10285208D01*
X13826491Y-10891005D02*
G75*
G03*
X13895886Y-10904808I41599J27795D01*
G01*
X16819789Y-10849410D02*
G75*
G03*
X16805986Y-10780208I-41499J27700D01*
G01*
X13872486Y-9660905D02*
G75*
G03*
X13931386Y-9621608I9804J49095D01*
G01*
X15933492Y-11181106D02*
G75*
G03*
X15868086Y-11154108I-46202J-19204D01*
G01*
X16378486Y-11560408D02*
X16434386Y-11644108D01*
X14159086Y-9071608D02*
X14131386Y-9113208D01*
X15060686Y-8492207D02*
G75*
G03*
X15099886Y-8433407I-9796J48997D01*
G01*
X15650286Y-11840908D02*
X15669986Y-11939608D01*
X14288487Y-8387409D02*
G75*
G03*
X14274686Y-8456808I27803J-41601D01*
G01*
X16999486Y-10939408D02*
G75*
G03*
X17137334Y-10681507I-1690196J1069198D01*
G01*
X14274689Y-11283610D02*
G75*
G03*
X14288486Y-11353008I41601J-27800D01*
G01*
X16107886Y-8720008D02*
X16066286Y-8692308D01*
X16620186Y-9246008D02*
G75*
G03*
X16593186Y-9311408I19204J-46202D01*
G01*
X13826486Y-10891008D02*
X13798786Y-10849408D01*
X13909286Y-9845208D02*
X13909286Y-9895208D01*
X14061986Y-9127008D02*
X13812586Y-8960308D01*
X14018788Y-8615110D02*
G75*
G03*
X14018886Y-8685808I35402J-35300D01*
G01*
X17175586Y-10589108D02*
G75*
G03*
X17260469Y-10309272I-1866296J718898D01*
G01*
X15669993Y-11939607D02*
G75*
G03*
X15767986Y-11920008I48997J9797D01*
G01*
X13941091Y-9572609D02*
G75*
G03*
X13901785Y-9513708I-49101J9799D01*
G01*
X13442986Y-9151308D02*
G75*
G03*
X13358103Y-9431144I1866294J-718902D01*
G01*
X14870186Y-11821408D02*
X14850586Y-11920108D01*
X16758386Y-8491808D02*
X16829586Y-8420608D01*
X14551892Y-7910906D02*
G75*
G03*
X14459486Y-7949308I-46202J-19204D01*
G01*
X14274686Y-11283608D02*
X14441386Y-11034208D01*
X15334286Y-8470208D02*
X15284286Y-8470208D01*
X15259286Y-11869608D02*
X15259286Y-11970208D01*
X17378687Y-9509513D02*
G75*
G03*
X17359086Y-9411508I-9797J49003D01*
G01*
X14230986Y-8897908D02*
G75*
G03*
X14301586Y-8897908I35300J35300D01*
G01*
X16330087Y-11353009D02*
G75*
G03*
X16343886Y-11283608I-27797J41599D01*
G01*
X16487186Y-9113208D02*
X16459486Y-9071608D01*
X13798789Y-8891010D02*
G75*
G03*
X13812586Y-8960208I41501J-27700D01*
G01*
X14441386Y-8706208D02*
X14274686Y-8456808D01*
X15384286Y-8120208D02*
X15384286Y-8420208D01*
X13998386Y-10494408D02*
G75*
G03*
X14025386Y-10429008I-19196J46198D01*
G01*
X17260485Y-9431108D02*
G75*
G03*
X17175597Y-9151270I-1951215J-439102D01*
G01*
X15011686Y-11238408D02*
X15060686Y-11248208D01*
X13358086Y-10309308D02*
X13259386Y-10328908D01*
X14870186Y-7919008D02*
G75*
G03*
X14590348Y-8003897I439104J-1951212D01*
G01*
X15334286Y-8470206D02*
G75*
G03*
X15384286Y-8420207I4J49996D01*
G01*
X15635886Y-8099905D02*
G75*
G03*
X15577186Y-8139208I-9697J-49005D01*
G01*
X14399386Y-8373508D02*
X14566086Y-8622908D01*
X17308686Y-9920208D02*
X17409286Y-9920208D01*
X15099986Y-11307008D02*
X15041486Y-11601208D01*
X16343886Y-8456808D02*
X16177186Y-8706208D01*
X14566089Y-11117510D02*
G75*
G03*
X14552286Y-11048108I-41599J27800D01*
G01*
X14240086Y-8180008D02*
X14184186Y-8096308D01*
X13442986Y-10589108D02*
X13349986Y-10627608D01*
X14124886Y-8579708D02*
X14336986Y-8791908D01*
X15284286Y-11270208D02*
X15334286Y-11270208D01*
X16612286Y-9357508D02*
X16593186Y-9311308D01*
X15334286Y-11670208D02*
X15284286Y-11670208D01*
X15577092Y-11601207D02*
G75*
G03*
X15635886Y-11640608I49098J9697D01*
G01*
X17230286Y-10720008D02*
G75*
G03*
X17268486Y-10627608I19104J46198D01*
G01*
X13859286Y-9945206D02*
G75*
G03*
X13909286Y-9895208I4J49996D01*
G01*
D11*
D12*
X14908286Y-9850208D02*
X14948286Y-9890208D01*
X14948286Y-9850208D02*
X14908286Y-9890208D01*
X15670286Y-9850208D02*
X15710286Y-9890208D01*
X15710286Y-9850208D02*
X15670286Y-9890208D01*
D11*
X13414411Y-12333184D02*
X13414411Y-12133184D01*
X13462030Y-12133184D01*
X13490601Y-12142708D01*
X13509649Y-12161756D01*
X13519173Y-12180803D01*
X13528697Y-12218898D01*
X13528697Y-12247470D01*
X13519173Y-12285565D01*
X13509649Y-12304613D01*
X13490601Y-12323660D01*
X13462030Y-12333184D01*
X13414411Y-12333184D01*
X13614411Y-12333184D02*
X13614411Y-12199851D01*
X13614411Y-12237946D02*
X13623935Y-12218898D01*
X13633458Y-12209375D01*
X13652506Y-12199851D01*
X13671554Y-12199851D01*
X13738220Y-12333184D02*
X13738220Y-12199851D01*
X13738220Y-12133184D02*
X13728697Y-12142708D01*
X13738220Y-12152232D01*
X13747744Y-12142708D01*
X13738220Y-12133184D01*
X13738220Y-12152232D01*
X13862030Y-12333184D02*
X13842982Y-12323660D01*
X13833458Y-12304613D01*
X13833458Y-12133184D01*
X13966792Y-12333184D02*
X13947744Y-12323660D01*
X13938220Y-12304613D01*
X13938220Y-12133184D01*
X14195363Y-12333184D02*
X14195363Y-12133184D01*
X14262030Y-12276041D01*
X14328697Y-12133184D01*
X14328697Y-12333184D01*
X14509649Y-12333184D02*
X14509649Y-12228422D01*
X14500125Y-12209375D01*
X14481078Y-12199851D01*
X14442982Y-12199851D01*
X14423935Y-12209375D01*
X14509649Y-12323660D02*
X14490601Y-12333184D01*
X14442982Y-12333184D01*
X14423935Y-12323660D01*
X14414411Y-12304613D01*
X14414411Y-12285565D01*
X14423935Y-12266518D01*
X14442982Y-12256994D01*
X14490601Y-12256994D01*
X14509649Y-12247470D01*
X14604887Y-12199851D02*
X14604887Y-12399851D01*
X14604887Y-12209375D02*
X14623935Y-12199851D01*
X14662030Y-12199851D01*
X14681078Y-12209375D01*
X14690601Y-12218898D01*
X14700125Y-12237946D01*
X14700125Y-12295089D01*
X14690601Y-12314137D01*
X14681078Y-12323660D01*
X14662030Y-12333184D01*
X14623935Y-12333184D01*
X14604887Y-12323660D01*
X14785839Y-12314137D02*
X14795363Y-12323660D01*
X14785839Y-12333184D01*
X14776316Y-12323660D01*
X14785839Y-12314137D01*
X14785839Y-12333184D01*
X14785839Y-12209375D02*
X14795363Y-12218898D01*
X14785839Y-12228422D01*
X14776316Y-12218898D01*
X14785839Y-12209375D01*
X14785839Y-12228422D01*
D12*
X13116792Y-12642708D02*
X13156792Y-12682708D01*
X13156792Y-12642708D02*
X13116792Y-12682708D01*
D11*
X13452506Y-12553184D02*
X13471554Y-12553184D01*
X13490601Y-12562708D01*
X13500125Y-12572232D01*
X13509649Y-12591279D01*
X13519173Y-12629375D01*
X13519173Y-12676994D01*
X13509649Y-12715089D01*
X13500125Y-12734137D01*
X13490601Y-12743660D01*
X13471554Y-12753184D01*
X13452506Y-12753184D01*
X13433458Y-12743660D01*
X13423935Y-12734137D01*
X13414411Y-12715089D01*
X13404887Y-12676994D01*
X13404887Y-12629375D01*
X13414411Y-12591279D01*
X13423935Y-12572232D01*
X13433458Y-12562708D01*
X13452506Y-12553184D01*
X13604887Y-12734137D02*
X13614411Y-12743660D01*
X13604887Y-12753184D01*
X13595363Y-12743660D01*
X13604887Y-12734137D01*
X13604887Y-12753184D01*
X13785839Y-12619851D02*
X13785839Y-12753184D01*
X13738220Y-12543660D02*
X13690601Y-12686518D01*
X13814411Y-12686518D01*
X13928697Y-12553184D02*
X13947744Y-12553184D01*
X13966792Y-12562708D01*
X13976316Y-12572232D01*
X13985839Y-12591279D01*
X13995363Y-12629375D01*
X13995363Y-12676994D01*
X13985839Y-12715089D01*
X13976316Y-12734137D01*
X13966792Y-12743660D01*
X13947744Y-12753184D01*
X13928697Y-12753184D01*
X13909649Y-12743660D01*
X13900125Y-12734137D01*
X13890601Y-12715089D01*
X13881078Y-12676994D01*
X13881078Y-12629375D01*
X13890601Y-12591279D01*
X13900125Y-12572232D01*
X13909649Y-12562708D01*
X13928697Y-12553184D01*
X14119173Y-12553184D02*
X14138220Y-12553184D01*
X14157268Y-12562708D01*
X14166792Y-12572232D01*
X14176316Y-12591279D01*
X14185839Y-12629375D01*
X14185839Y-12676994D01*
X14176316Y-12715089D01*
X14166792Y-12734137D01*
X14157268Y-12743660D01*
X14138220Y-12753184D01*
X14119173Y-12753184D01*
X14100125Y-12743660D01*
X14090601Y-12734137D01*
X14081078Y-12715089D01*
X14071554Y-12676994D01*
X14071554Y-12629375D01*
X14081078Y-12591279D01*
X14090601Y-12572232D01*
X14100125Y-12562708D01*
X14119173Y-12553184D01*
X14271554Y-12753184D02*
X14271554Y-12619851D01*
X14271554Y-12638898D02*
X14281078Y-12629375D01*
X14300125Y-12619851D01*
X14328697Y-12619851D01*
X14347744Y-12629375D01*
X14357268Y-12648422D01*
X14357268Y-12753184D01*
X14357268Y-12648422D02*
X14366792Y-12629375D01*
X14385839Y-12619851D01*
X14414411Y-12619851D01*
X14433458Y-12629375D01*
X14442982Y-12648422D01*
X14442982Y-12753184D01*
X14538220Y-12753184D02*
X14538220Y-12619851D01*
X14538220Y-12638898D02*
X14547744Y-12629375D01*
X14566792Y-12619851D01*
X14595363Y-12619851D01*
X14614411Y-12629375D01*
X14623935Y-12648422D01*
X14623935Y-12753184D01*
X14623935Y-12648422D02*
X14633458Y-12629375D01*
X14652506Y-12619851D01*
X14681078Y-12619851D01*
X14700125Y-12629375D01*
X14709649Y-12648422D01*
X14709649Y-12753184D01*
X15100125Y-12543660D02*
X14928697Y-12800803D01*
X15357268Y-12553184D02*
X15376316Y-12553184D01*
X15395363Y-12562708D01*
X15404887Y-12572232D01*
X15414411Y-12591279D01*
X15423935Y-12629375D01*
X15423935Y-12676994D01*
X15414411Y-12715089D01*
X15404887Y-12734137D01*
X15395363Y-12743660D01*
X15376316Y-12753184D01*
X15357268Y-12753184D01*
X15338220Y-12743660D01*
X15328697Y-12734137D01*
X15319173Y-12715089D01*
X15309649Y-12676994D01*
X15309649Y-12629375D01*
X15319173Y-12591279D01*
X15328697Y-12572232D01*
X15338220Y-12562708D01*
X15357268Y-12553184D01*
X15509649Y-12734137D02*
X15519173Y-12743660D01*
X15509649Y-12753184D01*
X15500125Y-12743660D01*
X15509649Y-12734137D01*
X15509649Y-12753184D01*
X15642982Y-12553184D02*
X15662030Y-12553184D01*
X15681078Y-12562708D01*
X15690601Y-12572232D01*
X15700125Y-12591279D01*
X15709649Y-12629375D01*
X15709649Y-12676994D01*
X15700125Y-12715089D01*
X15690601Y-12734137D01*
X15681078Y-12743660D01*
X15662030Y-12753184D01*
X15642982Y-12753184D01*
X15623935Y-12743660D01*
X15614411Y-12734137D01*
X15604887Y-12715089D01*
X15595363Y-12676994D01*
X15595363Y-12629375D01*
X15604887Y-12591279D01*
X15614411Y-12572232D01*
X15623935Y-12562708D01*
X15642982Y-12553184D01*
X15900125Y-12753184D02*
X15785839Y-12753184D01*
X15842982Y-12753184D02*
X15842982Y-12553184D01*
X15823935Y-12581756D01*
X15804887Y-12600803D01*
X15785839Y-12610327D01*
X16081078Y-12553184D02*
X15985839Y-12553184D01*
X15976316Y-12648422D01*
X15985839Y-12638898D01*
X16004887Y-12629375D01*
X16052506Y-12629375D01*
X16071554Y-12638898D01*
X16081078Y-12648422D01*
X16090601Y-12667470D01*
X16090601Y-12715089D01*
X16081078Y-12734137D01*
X16071554Y-12743660D01*
X16052506Y-12753184D01*
X16004887Y-12753184D01*
X15985839Y-12743660D01*
X15976316Y-12734137D01*
X16157268Y-12553184D02*
X16290601Y-12553184D01*
X16204887Y-12753184D01*
X16357268Y-12553184D02*
X16357268Y-12591279D01*
X16433458Y-12553184D02*
X16433458Y-12591279D01*
X16728697Y-12829375D02*
X16719173Y-12819851D01*
X16700125Y-12791279D01*
X16690601Y-12772232D01*
X16681078Y-12743660D01*
X16671554Y-12696041D01*
X16671554Y-12657946D01*
X16681078Y-12610327D01*
X16690601Y-12581756D01*
X16700125Y-12562708D01*
X16719173Y-12534137D01*
X16728697Y-12524613D01*
X16795363Y-12572232D02*
X16804887Y-12562708D01*
X16823935Y-12553184D01*
X16871554Y-12553184D01*
X16890601Y-12562708D01*
X16900125Y-12572232D01*
X16909649Y-12591279D01*
X16909649Y-12610327D01*
X16900125Y-12638898D01*
X16785840Y-12753184D01*
X16909649Y-12753184D01*
X17147744Y-12753184D02*
X17147744Y-12553184D01*
X17233459Y-12753184D02*
X17233459Y-12648422D01*
X17223935Y-12629375D01*
X17204887Y-12619851D01*
X17176316Y-12619851D01*
X17157268Y-12629375D01*
X17147744Y-12638898D01*
X17357268Y-12753184D02*
X17338220Y-12743660D01*
X17328697Y-12734137D01*
X17319173Y-12715089D01*
X17319173Y-12657946D01*
X17328697Y-12638898D01*
X17338220Y-12629375D01*
X17357268Y-12619851D01*
X17385840Y-12619851D01*
X17404887Y-12629375D01*
X17414411Y-12638898D01*
X17423935Y-12657946D01*
X17423935Y-12715089D01*
X17414411Y-12734137D01*
X17404887Y-12743660D01*
X17385840Y-12753184D01*
X17357268Y-12753184D01*
X17538220Y-12753184D02*
X17519173Y-12743660D01*
X17509649Y-12724613D01*
X17509649Y-12553184D01*
X17690601Y-12743660D02*
X17671554Y-12753184D01*
X17633459Y-12753184D01*
X17614411Y-12743660D01*
X17604887Y-12724613D01*
X17604887Y-12648422D01*
X17614411Y-12629375D01*
X17633459Y-12619851D01*
X17671554Y-12619851D01*
X17690601Y-12629375D01*
X17700125Y-12648422D01*
X17700125Y-12667470D01*
X17604887Y-12686518D01*
X17776316Y-12743660D02*
X17795363Y-12753184D01*
X17833459Y-12753184D01*
X17852506Y-12743660D01*
X17862030Y-12724613D01*
X17862030Y-12715089D01*
X17852506Y-12696041D01*
X17833459Y-12686518D01*
X17804887Y-12686518D01*
X17785840Y-12676994D01*
X17776316Y-12657946D01*
X17776316Y-12648422D01*
X17785840Y-12629375D01*
X17804887Y-12619851D01*
X17833459Y-12619851D01*
X17852506Y-12629375D01*
X17928697Y-12829375D02*
X17938220Y-12819851D01*
X17957268Y-12791279D01*
X17966792Y-12772232D01*
X17976316Y-12743660D01*
X17985840Y-12696041D01*
X17985840Y-12657946D01*
X17976316Y-12610327D01*
X17966792Y-12581756D01*
X17957268Y-12562708D01*
X17938220Y-12534137D01*
X17928697Y-12524613D01*
M02*
