G04 #@! TF.GenerationSoftware,KiCad,Pcbnew,(6.0.5)*
G04 #@! TF.CreationDate,2022-06-02T14:12:23-07:00*
G04 #@! TF.ProjectId,feederFloor,66656564-6572-4466-9c6f-6f722e6b6963,rev?*
G04 #@! TF.SameCoordinates,Original*
G04 #@! TF.FileFunction,Copper,L2,Bot*
G04 #@! TF.FilePolarity,Positive*
%FSLAX46Y46*%
G04 Gerber Fmt 4.6, Leading zero omitted, Abs format (unit mm)*
G04 Created by KiCad (PCBNEW (6.0.5)) date 2022-06-02 14:12:23*
%MOMM*%
%LPD*%
G01*
G04 APERTURE LIST*
G04 #@! TA.AperFunction,ComponentPad*
%ADD10C,5.700000*%
G04 #@! TD*
G04 #@! TA.AperFunction,ComponentPad*
%ADD11R,1.727200X1.727200*%
G04 #@! TD*
G04 #@! TA.AperFunction,ComponentPad*
%ADD12O,1.727200X1.727200*%
G04 #@! TD*
G04 #@! TA.AperFunction,ViaPad*
%ADD13C,0.800000*%
G04 #@! TD*
G04 APERTURE END LIST*
D10*
X191700000Y-41350000D03*
D11*
X190500000Y-57200000D03*
D12*
X193040000Y-57200000D03*
X190500000Y-54660000D03*
X193040000Y-54660000D03*
X190500000Y-52120000D03*
X193040000Y-52120000D03*
D13*
X195020000Y-49560000D03*
X187230000Y-33560000D03*
X186580000Y-24180000D03*
X196510000Y-33560000D03*
G04 #@! TA.AperFunction,Conductor*
G36*
X197933621Y-20528502D02*
G01*
X197980114Y-20582158D01*
X197991500Y-20634500D01*
X197991500Y-62265500D01*
X197971498Y-62333621D01*
X197917842Y-62380114D01*
X197865500Y-62391500D01*
X185634500Y-62391500D01*
X185566379Y-62371498D01*
X185519886Y-62317842D01*
X185508500Y-62265500D01*
X185508500Y-58108269D01*
X189128401Y-58108269D01*
X189128771Y-58115090D01*
X189134295Y-58165952D01*
X189137921Y-58181204D01*
X189183076Y-58301654D01*
X189191614Y-58317249D01*
X189268115Y-58419324D01*
X189280676Y-58431885D01*
X189382751Y-58508386D01*
X189398346Y-58516924D01*
X189518794Y-58562078D01*
X189534049Y-58565705D01*
X189584914Y-58571231D01*
X189591728Y-58571600D01*
X190227885Y-58571600D01*
X190243124Y-58567125D01*
X190244329Y-58565735D01*
X190246000Y-58558052D01*
X190246000Y-58553484D01*
X190754000Y-58553484D01*
X190758475Y-58568723D01*
X190759865Y-58569928D01*
X190767548Y-58571599D01*
X191408269Y-58571599D01*
X191415090Y-58571229D01*
X191465952Y-58565705D01*
X191481204Y-58562079D01*
X191601654Y-58516924D01*
X191617249Y-58508386D01*
X191719324Y-58431885D01*
X191731885Y-58419324D01*
X191808386Y-58317249D01*
X191816924Y-58301654D01*
X191852041Y-58207981D01*
X191894683Y-58151217D01*
X191961245Y-58126517D01*
X192030593Y-58141725D01*
X192065263Y-58169716D01*
X192073674Y-58179427D01*
X192081032Y-58186633D01*
X192246606Y-58324095D01*
X192255053Y-58330010D01*
X192440859Y-58438586D01*
X192450146Y-58443036D01*
X192651198Y-58519810D01*
X192661091Y-58522684D01*
X192768248Y-58544485D01*
X192782300Y-58543290D01*
X192786000Y-58532945D01*
X192786000Y-58532229D01*
X193294000Y-58532229D01*
X193298064Y-58546071D01*
X193311479Y-58548105D01*
X193321025Y-58546882D01*
X193331095Y-58544742D01*
X193537225Y-58482900D01*
X193546832Y-58479134D01*
X193740076Y-58384464D01*
X193748934Y-58379185D01*
X193924141Y-58254211D01*
X193932003Y-58247567D01*
X194084445Y-58095656D01*
X194091122Y-58087811D01*
X194216702Y-57913047D01*
X194222013Y-57904208D01*
X194317358Y-57711292D01*
X194321156Y-57701699D01*
X194383716Y-57495791D01*
X194385893Y-57485721D01*
X194387705Y-57471960D01*
X194385493Y-57457778D01*
X194372336Y-57454000D01*
X193312115Y-57454000D01*
X193296876Y-57458475D01*
X193295671Y-57459865D01*
X193294000Y-57467548D01*
X193294000Y-58532229D01*
X192786000Y-58532229D01*
X192786000Y-57472115D01*
X192781525Y-57456876D01*
X192780135Y-57455671D01*
X192772452Y-57454000D01*
X190772115Y-57454000D01*
X190756876Y-57458475D01*
X190755671Y-57459865D01*
X190754000Y-57467548D01*
X190754000Y-58553484D01*
X190246000Y-58553484D01*
X190246000Y-57472115D01*
X190241525Y-57456876D01*
X190240135Y-57455671D01*
X190232452Y-57454000D01*
X189146516Y-57454000D01*
X189131277Y-57458475D01*
X189130072Y-57459865D01*
X189128401Y-57467548D01*
X189128401Y-58108269D01*
X185508500Y-58108269D01*
X185508500Y-54626362D01*
X189123609Y-54626362D01*
X189123906Y-54631514D01*
X189123906Y-54631518D01*
X189129618Y-54730578D01*
X189136597Y-54851614D01*
X189137734Y-54856660D01*
X189137735Y-54856666D01*
X189158984Y-54950952D01*
X189186200Y-55071720D01*
X189188142Y-55076502D01*
X189188143Y-55076506D01*
X189224822Y-55166835D01*
X189271086Y-55280769D01*
X189388975Y-55473147D01*
X189392355Y-55477049D01*
X189460734Y-55555987D01*
X189534413Y-55641045D01*
X189534414Y-55641046D01*
X189536702Y-55643687D01*
X189536157Y-55644159D01*
X189568850Y-55702576D01*
X189564525Y-55773440D01*
X189522573Y-55830717D01*
X189490246Y-55848624D01*
X189398346Y-55883076D01*
X189382751Y-55891614D01*
X189280676Y-55968115D01*
X189268115Y-55980676D01*
X189191614Y-56082751D01*
X189183076Y-56098346D01*
X189137922Y-56218794D01*
X189134295Y-56234049D01*
X189128769Y-56284914D01*
X189128400Y-56291728D01*
X189128400Y-56927885D01*
X189132875Y-56943124D01*
X189134265Y-56944329D01*
X189141948Y-56946000D01*
X194372367Y-56946000D01*
X194385898Y-56942027D01*
X194387203Y-56932947D01*
X194344133Y-56761477D01*
X194340813Y-56751726D01*
X194254999Y-56554365D01*
X194250133Y-56545290D01*
X194133239Y-56364601D01*
X194126947Y-56356430D01*
X193982113Y-56197260D01*
X193974580Y-56190234D01*
X193805691Y-56056855D01*
X193797104Y-56051150D01*
X193778082Y-56040649D01*
X193728111Y-55990216D01*
X193713340Y-55920773D01*
X193738457Y-55854368D01*
X193765801Y-55827768D01*
X193928667Y-55711596D01*
X194088487Y-55552333D01*
X194220150Y-55369105D01*
X194320118Y-55166835D01*
X194385708Y-54950952D01*
X194415158Y-54727256D01*
X194416802Y-54660000D01*
X194398315Y-54435132D01*
X194343349Y-54216304D01*
X194253380Y-54009391D01*
X194205282Y-53935043D01*
X194133634Y-53824291D01*
X194133632Y-53824288D01*
X194130826Y-53819951D01*
X193978977Y-53653071D01*
X193974926Y-53649872D01*
X193974922Y-53649868D01*
X193805966Y-53516434D01*
X193805962Y-53516432D01*
X193801911Y-53513232D01*
X193778535Y-53500328D01*
X193728564Y-53449896D01*
X193713792Y-53380453D01*
X193738908Y-53314047D01*
X193766259Y-53287441D01*
X193924455Y-53174601D01*
X193924459Y-53174597D01*
X193928667Y-53171596D01*
X194088487Y-53012333D01*
X194220150Y-52829105D01*
X194320118Y-52626835D01*
X194385708Y-52410952D01*
X194415158Y-52187256D01*
X194416802Y-52120000D01*
X194398315Y-51895132D01*
X194343349Y-51676304D01*
X194253380Y-51469391D01*
X194205282Y-51395043D01*
X194133634Y-51284291D01*
X194133632Y-51284288D01*
X194130826Y-51279951D01*
X193978977Y-51113071D01*
X193974926Y-51109872D01*
X193974922Y-51109868D01*
X193805966Y-50976434D01*
X193805962Y-50976432D01*
X193801911Y-50973232D01*
X193604383Y-50864191D01*
X193391698Y-50788876D01*
X193341297Y-50779898D01*
X193174657Y-50750214D01*
X193174653Y-50750214D01*
X193169569Y-50749308D01*
X193097574Y-50748429D01*
X192949129Y-50746615D01*
X192949127Y-50746615D01*
X192943959Y-50746552D01*
X192720929Y-50780680D01*
X192506468Y-50850777D01*
X192306335Y-50954960D01*
X192302202Y-50958063D01*
X192302199Y-50958065D01*
X192277734Y-50976434D01*
X192125905Y-51090430D01*
X191970024Y-51253550D01*
X191967112Y-51257819D01*
X191967106Y-51257827D01*
X191873503Y-51395043D01*
X191818592Y-51440046D01*
X191748067Y-51448217D01*
X191684320Y-51416963D01*
X191663623Y-51392479D01*
X191593634Y-51284291D01*
X191593632Y-51284288D01*
X191590826Y-51279951D01*
X191438977Y-51113071D01*
X191434926Y-51109872D01*
X191434922Y-51109868D01*
X191265966Y-50976434D01*
X191265962Y-50976432D01*
X191261911Y-50973232D01*
X191064383Y-50864191D01*
X190851698Y-50788876D01*
X190801297Y-50779898D01*
X190634657Y-50750214D01*
X190634653Y-50750214D01*
X190629569Y-50749308D01*
X190557574Y-50748429D01*
X190409129Y-50746615D01*
X190409127Y-50746615D01*
X190403959Y-50746552D01*
X190180929Y-50780680D01*
X189966468Y-50850777D01*
X189766335Y-50954960D01*
X189762202Y-50958063D01*
X189762199Y-50958065D01*
X189737734Y-50976434D01*
X189585905Y-51090430D01*
X189430024Y-51253550D01*
X189302878Y-51439940D01*
X189300704Y-51444624D01*
X189300702Y-51444627D01*
X189229402Y-51598231D01*
X189207881Y-51644593D01*
X189147585Y-51862013D01*
X189123609Y-52086362D01*
X189123906Y-52091514D01*
X189123906Y-52091518D01*
X189129618Y-52190578D01*
X189136597Y-52311614D01*
X189137734Y-52316660D01*
X189137735Y-52316666D01*
X189158984Y-52410952D01*
X189186200Y-52531720D01*
X189188142Y-52536502D01*
X189188143Y-52536506D01*
X189224822Y-52626835D01*
X189271086Y-52740769D01*
X189388975Y-52933147D01*
X189536702Y-53103687D01*
X189710299Y-53247810D01*
X189714751Y-53250412D01*
X189714756Y-53250415D01*
X189764069Y-53279231D01*
X189812792Y-53330870D01*
X189825863Y-53400653D01*
X189799131Y-53466425D01*
X189768595Y-53493783D01*
X189766335Y-53494960D01*
X189585905Y-53630430D01*
X189430024Y-53793550D01*
X189302878Y-53979940D01*
X189300704Y-53984624D01*
X189300702Y-53984627D01*
X189229402Y-54138231D01*
X189207881Y-54184593D01*
X189147585Y-54402013D01*
X189123609Y-54626362D01*
X185508500Y-54626362D01*
X185508500Y-41338259D01*
X188336587Y-41338259D01*
X188354992Y-41701574D01*
X188355529Y-41704929D01*
X188355530Y-41704935D01*
X188395211Y-41952670D01*
X188412527Y-42060777D01*
X188508519Y-42411664D01*
X188641845Y-42750133D01*
X188643428Y-42753148D01*
X188809362Y-43069206D01*
X188809367Y-43069214D01*
X188810946Y-43072222D01*
X188812840Y-43075040D01*
X188812845Y-43075049D01*
X189005419Y-43361628D01*
X189013843Y-43374165D01*
X189248163Y-43652428D01*
X189274899Y-43677977D01*
X189508702Y-43901405D01*
X189508709Y-43901411D01*
X189511165Y-43903758D01*
X189799771Y-44125214D01*
X189802689Y-44126988D01*
X190107692Y-44312433D01*
X190107697Y-44312436D01*
X190110607Y-44314205D01*
X190113695Y-44315651D01*
X190113694Y-44315651D01*
X190436952Y-44467077D01*
X190436962Y-44467081D01*
X190440036Y-44468521D01*
X190443254Y-44469623D01*
X190443257Y-44469624D01*
X190780981Y-44585253D01*
X190780989Y-44585255D01*
X190784204Y-44586356D01*
X191139084Y-44666332D01*
X191192123Y-44672375D01*
X191497144Y-44707128D01*
X191497152Y-44707128D01*
X191500527Y-44707513D01*
X191503931Y-44707531D01*
X191503934Y-44707531D01*
X191702058Y-44708568D01*
X191864303Y-44709418D01*
X191867689Y-44709068D01*
X191867691Y-44709068D01*
X192222765Y-44672375D01*
X192222774Y-44672374D01*
X192226157Y-44672024D01*
X192229490Y-44671310D01*
X192229493Y-44671309D01*
X192339895Y-44647641D01*
X192581856Y-44595768D01*
X192927239Y-44481544D01*
X192930323Y-44480138D01*
X192930332Y-44480135D01*
X193255171Y-44332096D01*
X193258265Y-44330686D01*
X193302276Y-44304554D01*
X193568128Y-44146704D01*
X193568132Y-44146701D01*
X193571063Y-44144961D01*
X193861973Y-43926539D01*
X194127592Y-43677977D01*
X194364813Y-43402182D01*
X194472983Y-43244794D01*
X194568931Y-43105190D01*
X194568936Y-43105182D01*
X194570861Y-43102381D01*
X194572473Y-43099387D01*
X194572478Y-43099379D01*
X194741703Y-42785092D01*
X194743325Y-42782080D01*
X194880188Y-42445027D01*
X194979850Y-42095164D01*
X195041143Y-41736583D01*
X195043285Y-41701574D01*
X195063241Y-41375278D01*
X195063351Y-41373481D01*
X195063433Y-41350000D01*
X195043760Y-40986751D01*
X194984972Y-40627752D01*
X194887756Y-40277202D01*
X194883331Y-40266081D01*
X194754508Y-39942365D01*
X194753249Y-39939201D01*
X194722690Y-39881485D01*
X194584624Y-39620723D01*
X194584620Y-39620716D01*
X194583025Y-39617704D01*
X194581118Y-39614888D01*
X194581113Y-39614879D01*
X194380985Y-39319292D01*
X194379075Y-39316471D01*
X194143785Y-39039027D01*
X193879908Y-38788617D01*
X193590530Y-38568170D01*
X193587618Y-38566413D01*
X193587613Y-38566410D01*
X193281951Y-38382023D01*
X193281945Y-38382020D01*
X193279036Y-38380265D01*
X192949071Y-38227100D01*
X192604494Y-38110467D01*
X192595234Y-38108414D01*
X192520485Y-38091843D01*
X192249336Y-38031731D01*
X192120217Y-38017476D01*
X191891133Y-37992184D01*
X191891128Y-37992184D01*
X191887752Y-37991811D01*
X191884353Y-37991805D01*
X191884352Y-37991805D01*
X191712762Y-37991506D01*
X191523972Y-37991176D01*
X191388831Y-38005618D01*
X191165634Y-38029471D01*
X191165628Y-38029472D01*
X191162250Y-38029833D01*
X190806820Y-38107330D01*
X190461838Y-38222759D01*
X190131340Y-38374771D01*
X189819192Y-38561588D01*
X189529046Y-38781023D01*
X189264296Y-39030511D01*
X189028040Y-39307132D01*
X188823040Y-39607651D01*
X188651694Y-39928552D01*
X188650419Y-39931724D01*
X188650417Y-39931728D01*
X188648626Y-39936185D01*
X188516009Y-40266081D01*
X188417569Y-40616290D01*
X188357528Y-40975082D01*
X188336587Y-41338259D01*
X185508500Y-41338259D01*
X185508500Y-20634500D01*
X185528502Y-20566379D01*
X185582158Y-20519886D01*
X185634500Y-20508500D01*
X197865500Y-20508500D01*
X197933621Y-20528502D01*
G37*
G04 #@! TD.AperFunction*
M02*
