%FSLAX45Y45*%
G04 Gerber Fmt 4.5, Leading zero omitted, Abs format (unit mm)*
G04 Created by KiCad (PCBNEW (6.0.5)) date 2022-06-02 14:14:24*
%MOMM*%
%LPD*%
G01*
G04 APERTURE LIST*
%TA.AperFunction,Profile*%
%ADD10C,0.050000*%
%TD*%
%ADD11C,0.200000*%
%ADD12C,0.040000*%
%ADD13C,0.101600*%
%ADD14C,0.530000*%
G04 APERTURE END LIST*
D10*
X18500000Y-2000000D02*
X18500000Y-6290000D01*
X19850000Y-2000000D02*
X18500000Y-2000000D01*
X18500000Y-6290000D02*
X19850000Y-6290000D01*
X19850000Y-6290000D02*
X19850000Y-2000000D01*
D11*
D12*
X18638000Y-2398000D02*
X18678000Y-2438000D01*
X18678000Y-2398000D02*
X18638000Y-2438000D01*
X18703000Y-3336000D02*
X18743000Y-3376000D01*
X18743000Y-3336000D02*
X18703000Y-3376000D01*
X19482000Y-4936000D02*
X19522000Y-4976000D01*
X19522000Y-4936000D02*
X19482000Y-4976000D01*
X19631000Y-3336000D02*
X19671000Y-3376000D01*
X19671000Y-3336000D02*
X19631000Y-3376000D01*
D13*
X19100800Y-5212000D02*
G75*
G03*
X19100800Y-5212000I-50800J0D01*
G01*
X19100800Y-5466000D02*
G75*
G03*
X19100800Y-5466000I-50800J0D01*
G01*
X19100800Y-5720000D02*
G75*
G03*
X19100800Y-5720000I-50800J0D01*
G01*
X19354800Y-5212000D02*
G75*
G03*
X19354800Y-5212000I-50800J0D01*
G01*
X19354800Y-5466000D02*
G75*
G03*
X19354800Y-5466000I-50800J0D01*
G01*
X19354800Y-5720000D02*
G75*
G03*
X19354800Y-5720000I-50800J0D01*
G01*
D14*
X19170000Y-3870000D02*
X19170000Y-4400000D01*
X18905000Y-4135000D02*
X19435000Y-4135000D01*
D11*
X18755119Y-6602976D02*
X18755119Y-6402976D01*
X18802738Y-6402976D01*
X18831310Y-6412500D01*
X18850357Y-6431548D01*
X18859881Y-6450595D01*
X18869405Y-6488690D01*
X18869405Y-6517262D01*
X18859881Y-6555357D01*
X18850357Y-6574405D01*
X18831310Y-6593452D01*
X18802738Y-6602976D01*
X18755119Y-6602976D01*
X18955119Y-6602976D02*
X18955119Y-6469643D01*
X18955119Y-6507738D02*
X18964643Y-6488690D01*
X18974167Y-6479167D01*
X18993214Y-6469643D01*
X19012262Y-6469643D01*
X19078929Y-6602976D02*
X19078929Y-6469643D01*
X19078929Y-6402976D02*
X19069405Y-6412500D01*
X19078929Y-6422024D01*
X19088452Y-6412500D01*
X19078929Y-6402976D01*
X19078929Y-6422024D01*
X19202738Y-6602976D02*
X19183690Y-6593452D01*
X19174167Y-6574405D01*
X19174167Y-6402976D01*
X19307500Y-6602976D02*
X19288452Y-6593452D01*
X19278929Y-6574405D01*
X19278929Y-6402976D01*
X19536071Y-6602976D02*
X19536071Y-6402976D01*
X19602738Y-6545833D01*
X19669405Y-6402976D01*
X19669405Y-6602976D01*
X19850357Y-6602976D02*
X19850357Y-6498214D01*
X19840833Y-6479167D01*
X19821786Y-6469643D01*
X19783690Y-6469643D01*
X19764643Y-6479167D01*
X19850357Y-6593452D02*
X19831310Y-6602976D01*
X19783690Y-6602976D01*
X19764643Y-6593452D01*
X19755119Y-6574405D01*
X19755119Y-6555357D01*
X19764643Y-6536309D01*
X19783690Y-6526786D01*
X19831310Y-6526786D01*
X19850357Y-6517262D01*
X19945595Y-6469643D02*
X19945595Y-6669643D01*
X19945595Y-6479167D02*
X19964643Y-6469643D01*
X20002738Y-6469643D01*
X20021786Y-6479167D01*
X20031310Y-6488690D01*
X20040833Y-6507738D01*
X20040833Y-6564881D01*
X20031310Y-6583928D01*
X20021786Y-6593452D01*
X20002738Y-6602976D01*
X19964643Y-6602976D01*
X19945595Y-6593452D01*
X20126548Y-6583928D02*
X20136071Y-6593452D01*
X20126548Y-6602976D01*
X20117024Y-6593452D01*
X20126548Y-6583928D01*
X20126548Y-6602976D01*
X20126548Y-6479167D02*
X20136071Y-6488690D01*
X20126548Y-6498214D01*
X20117024Y-6488690D01*
X20126548Y-6479167D01*
X20126548Y-6498214D01*
D12*
X18457500Y-6912500D02*
X18497500Y-6952500D01*
X18497500Y-6912500D02*
X18457500Y-6952500D01*
D11*
X18793214Y-6822976D02*
X18812262Y-6822976D01*
X18831310Y-6832500D01*
X18840833Y-6842024D01*
X18850357Y-6861071D01*
X18859881Y-6899167D01*
X18859881Y-6946786D01*
X18850357Y-6984881D01*
X18840833Y-7003928D01*
X18831310Y-7013452D01*
X18812262Y-7022976D01*
X18793214Y-7022976D01*
X18774167Y-7013452D01*
X18764643Y-7003928D01*
X18755119Y-6984881D01*
X18745595Y-6946786D01*
X18745595Y-6899167D01*
X18755119Y-6861071D01*
X18764643Y-6842024D01*
X18774167Y-6832500D01*
X18793214Y-6822976D01*
X18945595Y-7003928D02*
X18955119Y-7013452D01*
X18945595Y-7022976D01*
X18936071Y-7013452D01*
X18945595Y-7003928D01*
X18945595Y-7022976D01*
X19126548Y-6889643D02*
X19126548Y-7022976D01*
X19078929Y-6813452D02*
X19031310Y-6956309D01*
X19155119Y-6956309D01*
X19269405Y-6822976D02*
X19288452Y-6822976D01*
X19307500Y-6832500D01*
X19317024Y-6842024D01*
X19326548Y-6861071D01*
X19336071Y-6899167D01*
X19336071Y-6946786D01*
X19326548Y-6984881D01*
X19317024Y-7003928D01*
X19307500Y-7013452D01*
X19288452Y-7022976D01*
X19269405Y-7022976D01*
X19250357Y-7013452D01*
X19240833Y-7003928D01*
X19231310Y-6984881D01*
X19221786Y-6946786D01*
X19221786Y-6899167D01*
X19231310Y-6861071D01*
X19240833Y-6842024D01*
X19250357Y-6832500D01*
X19269405Y-6822976D01*
X19459881Y-6822976D02*
X19478929Y-6822976D01*
X19497976Y-6832500D01*
X19507500Y-6842024D01*
X19517024Y-6861071D01*
X19526548Y-6899167D01*
X19526548Y-6946786D01*
X19517024Y-6984881D01*
X19507500Y-7003928D01*
X19497976Y-7013452D01*
X19478929Y-7022976D01*
X19459881Y-7022976D01*
X19440833Y-7013452D01*
X19431310Y-7003928D01*
X19421786Y-6984881D01*
X19412262Y-6946786D01*
X19412262Y-6899167D01*
X19421786Y-6861071D01*
X19431310Y-6842024D01*
X19440833Y-6832500D01*
X19459881Y-6822976D01*
X19612262Y-7022976D02*
X19612262Y-6889643D01*
X19612262Y-6908690D02*
X19621786Y-6899167D01*
X19640833Y-6889643D01*
X19669405Y-6889643D01*
X19688452Y-6899167D01*
X19697976Y-6918214D01*
X19697976Y-7022976D01*
X19697976Y-6918214D02*
X19707500Y-6899167D01*
X19726548Y-6889643D01*
X19755119Y-6889643D01*
X19774167Y-6899167D01*
X19783690Y-6918214D01*
X19783690Y-7022976D01*
X19878929Y-7022976D02*
X19878929Y-6889643D01*
X19878929Y-6908690D02*
X19888452Y-6899167D01*
X19907500Y-6889643D01*
X19936071Y-6889643D01*
X19955119Y-6899167D01*
X19964643Y-6918214D01*
X19964643Y-7022976D01*
X19964643Y-6918214D02*
X19974167Y-6899167D01*
X19993214Y-6889643D01*
X20021786Y-6889643D01*
X20040833Y-6899167D01*
X20050357Y-6918214D01*
X20050357Y-7022976D01*
X20440833Y-6813452D02*
X20269405Y-7070595D01*
X20697976Y-6822976D02*
X20717024Y-6822976D01*
X20736071Y-6832500D01*
X20745595Y-6842024D01*
X20755119Y-6861071D01*
X20764643Y-6899167D01*
X20764643Y-6946786D01*
X20755119Y-6984881D01*
X20745595Y-7003928D01*
X20736071Y-7013452D01*
X20717024Y-7022976D01*
X20697976Y-7022976D01*
X20678929Y-7013452D01*
X20669405Y-7003928D01*
X20659881Y-6984881D01*
X20650357Y-6946786D01*
X20650357Y-6899167D01*
X20659881Y-6861071D01*
X20669405Y-6842024D01*
X20678929Y-6832500D01*
X20697976Y-6822976D01*
X20850357Y-7003928D02*
X20859881Y-7013452D01*
X20850357Y-7022976D01*
X20840833Y-7013452D01*
X20850357Y-7003928D01*
X20850357Y-7022976D01*
X20983690Y-6822976D02*
X21002738Y-6822976D01*
X21021786Y-6832500D01*
X21031310Y-6842024D01*
X21040833Y-6861071D01*
X21050357Y-6899167D01*
X21050357Y-6946786D01*
X21040833Y-6984881D01*
X21031310Y-7003928D01*
X21021786Y-7013452D01*
X21002738Y-7022976D01*
X20983690Y-7022976D01*
X20964643Y-7013452D01*
X20955119Y-7003928D01*
X20945595Y-6984881D01*
X20936071Y-6946786D01*
X20936071Y-6899167D01*
X20945595Y-6861071D01*
X20955119Y-6842024D01*
X20964643Y-6832500D01*
X20983690Y-6822976D01*
X21240833Y-7022976D02*
X21126548Y-7022976D01*
X21183690Y-7022976D02*
X21183690Y-6822976D01*
X21164643Y-6851548D01*
X21145595Y-6870595D01*
X21126548Y-6880119D01*
X21421786Y-6822976D02*
X21326548Y-6822976D01*
X21317024Y-6918214D01*
X21326548Y-6908690D01*
X21345595Y-6899167D01*
X21393214Y-6899167D01*
X21412262Y-6908690D01*
X21421786Y-6918214D01*
X21431310Y-6937262D01*
X21431310Y-6984881D01*
X21421786Y-7003928D01*
X21412262Y-7013452D01*
X21393214Y-7022976D01*
X21345595Y-7022976D01*
X21326548Y-7013452D01*
X21317024Y-7003928D01*
X21497976Y-6822976D02*
X21631310Y-6822976D01*
X21545595Y-7022976D01*
X21697976Y-6822976D02*
X21697976Y-6861071D01*
X21774167Y-6822976D02*
X21774167Y-6861071D01*
X22069405Y-7099167D02*
X22059881Y-7089643D01*
X22040833Y-7061071D01*
X22031310Y-7042024D01*
X22021786Y-7013452D01*
X22012262Y-6965833D01*
X22012262Y-6927738D01*
X22021786Y-6880119D01*
X22031310Y-6851548D01*
X22040833Y-6832500D01*
X22059881Y-6803928D01*
X22069405Y-6794405D01*
X22231310Y-6889643D02*
X22231310Y-7022976D01*
X22183690Y-6813452D02*
X22136071Y-6956309D01*
X22259881Y-6956309D01*
X22488452Y-7022976D02*
X22488452Y-6822976D01*
X22574167Y-7022976D02*
X22574167Y-6918214D01*
X22564643Y-6899167D01*
X22545595Y-6889643D01*
X22517024Y-6889643D01*
X22497976Y-6899167D01*
X22488452Y-6908690D01*
X22697976Y-7022976D02*
X22678928Y-7013452D01*
X22669405Y-7003928D01*
X22659881Y-6984881D01*
X22659881Y-6927738D01*
X22669405Y-6908690D01*
X22678928Y-6899167D01*
X22697976Y-6889643D01*
X22726548Y-6889643D01*
X22745595Y-6899167D01*
X22755119Y-6908690D01*
X22764643Y-6927738D01*
X22764643Y-6984881D01*
X22755119Y-7003928D01*
X22745595Y-7013452D01*
X22726548Y-7022976D01*
X22697976Y-7022976D01*
X22878928Y-7022976D02*
X22859881Y-7013452D01*
X22850357Y-6994405D01*
X22850357Y-6822976D01*
X23031309Y-7013452D02*
X23012262Y-7022976D01*
X22974167Y-7022976D01*
X22955119Y-7013452D01*
X22945595Y-6994405D01*
X22945595Y-6918214D01*
X22955119Y-6899167D01*
X22974167Y-6889643D01*
X23012262Y-6889643D01*
X23031309Y-6899167D01*
X23040833Y-6918214D01*
X23040833Y-6937262D01*
X22945595Y-6956309D01*
X23117024Y-7013452D02*
X23136071Y-7022976D01*
X23174167Y-7022976D01*
X23193214Y-7013452D01*
X23202738Y-6994405D01*
X23202738Y-6984881D01*
X23193214Y-6965833D01*
X23174167Y-6956309D01*
X23145595Y-6956309D01*
X23126548Y-6946786D01*
X23117024Y-6927738D01*
X23117024Y-6918214D01*
X23126548Y-6899167D01*
X23145595Y-6889643D01*
X23174167Y-6889643D01*
X23193214Y-6899167D01*
X23269405Y-7099167D02*
X23278928Y-7089643D01*
X23297976Y-7061071D01*
X23307500Y-7042024D01*
X23317024Y-7013452D01*
X23326548Y-6965833D01*
X23326548Y-6927738D01*
X23317024Y-6880119D01*
X23307500Y-6851548D01*
X23297976Y-6832500D01*
X23278928Y-6803928D01*
X23269405Y-6794405D01*
D13*
X18497500Y-7196500D02*
G75*
G03*
X18497500Y-7196500I-50800J0D01*
G01*
D11*
X18859881Y-7286976D02*
X18745595Y-7286976D01*
X18802738Y-7286976D02*
X18802738Y-7086976D01*
X18783690Y-7115548D01*
X18764643Y-7134595D01*
X18745595Y-7144119D01*
X18945595Y-7267928D02*
X18955119Y-7277452D01*
X18945595Y-7286976D01*
X18936071Y-7277452D01*
X18945595Y-7267928D01*
X18945595Y-7286976D01*
X19078929Y-7086976D02*
X19097976Y-7086976D01*
X19117024Y-7096500D01*
X19126548Y-7106024D01*
X19136071Y-7125071D01*
X19145595Y-7163167D01*
X19145595Y-7210786D01*
X19136071Y-7248881D01*
X19126548Y-7267928D01*
X19117024Y-7277452D01*
X19097976Y-7286976D01*
X19078929Y-7286976D01*
X19059881Y-7277452D01*
X19050357Y-7267928D01*
X19040833Y-7248881D01*
X19031310Y-7210786D01*
X19031310Y-7163167D01*
X19040833Y-7125071D01*
X19050357Y-7106024D01*
X19059881Y-7096500D01*
X19078929Y-7086976D01*
X19336071Y-7286976D02*
X19221786Y-7286976D01*
X19278929Y-7286976D02*
X19278929Y-7086976D01*
X19259881Y-7115548D01*
X19240833Y-7134595D01*
X19221786Y-7144119D01*
X19507500Y-7086976D02*
X19469405Y-7086976D01*
X19450357Y-7096500D01*
X19440833Y-7106024D01*
X19421786Y-7134595D01*
X19412262Y-7172690D01*
X19412262Y-7248881D01*
X19421786Y-7267928D01*
X19431310Y-7277452D01*
X19450357Y-7286976D01*
X19488452Y-7286976D01*
X19507500Y-7277452D01*
X19517024Y-7267928D01*
X19526548Y-7248881D01*
X19526548Y-7201262D01*
X19517024Y-7182214D01*
X19507500Y-7172690D01*
X19488452Y-7163167D01*
X19450357Y-7163167D01*
X19431310Y-7172690D01*
X19421786Y-7182214D01*
X19412262Y-7201262D01*
X19612262Y-7286976D02*
X19612262Y-7153643D01*
X19612262Y-7172690D02*
X19621786Y-7163167D01*
X19640833Y-7153643D01*
X19669405Y-7153643D01*
X19688452Y-7163167D01*
X19697976Y-7182214D01*
X19697976Y-7286976D01*
X19697976Y-7182214D02*
X19707500Y-7163167D01*
X19726548Y-7153643D01*
X19755119Y-7153643D01*
X19774167Y-7163167D01*
X19783690Y-7182214D01*
X19783690Y-7286976D01*
X19878929Y-7286976D02*
X19878929Y-7153643D01*
X19878929Y-7172690D02*
X19888452Y-7163167D01*
X19907500Y-7153643D01*
X19936071Y-7153643D01*
X19955119Y-7163167D01*
X19964643Y-7182214D01*
X19964643Y-7286976D01*
X19964643Y-7182214D02*
X19974167Y-7163167D01*
X19993214Y-7153643D01*
X20021786Y-7153643D01*
X20040833Y-7163167D01*
X20050357Y-7182214D01*
X20050357Y-7286976D01*
X20440833Y-7077452D02*
X20269405Y-7334595D01*
X20697976Y-7086976D02*
X20717024Y-7086976D01*
X20736071Y-7096500D01*
X20745595Y-7106024D01*
X20755119Y-7125071D01*
X20764643Y-7163167D01*
X20764643Y-7210786D01*
X20755119Y-7248881D01*
X20745595Y-7267928D01*
X20736071Y-7277452D01*
X20717024Y-7286976D01*
X20697976Y-7286976D01*
X20678929Y-7277452D01*
X20669405Y-7267928D01*
X20659881Y-7248881D01*
X20650357Y-7210786D01*
X20650357Y-7163167D01*
X20659881Y-7125071D01*
X20669405Y-7106024D01*
X20678929Y-7096500D01*
X20697976Y-7086976D01*
X20850357Y-7267928D02*
X20859881Y-7277452D01*
X20850357Y-7286976D01*
X20840833Y-7277452D01*
X20850357Y-7267928D01*
X20850357Y-7286976D01*
X20983690Y-7086976D02*
X21002738Y-7086976D01*
X21021786Y-7096500D01*
X21031310Y-7106024D01*
X21040833Y-7125071D01*
X21050357Y-7163167D01*
X21050357Y-7210786D01*
X21040833Y-7248881D01*
X21031310Y-7267928D01*
X21021786Y-7277452D01*
X21002738Y-7286976D01*
X20983690Y-7286976D01*
X20964643Y-7277452D01*
X20955119Y-7267928D01*
X20945595Y-7248881D01*
X20936071Y-7210786D01*
X20936071Y-7163167D01*
X20945595Y-7125071D01*
X20955119Y-7106024D01*
X20964643Y-7096500D01*
X20983690Y-7086976D01*
X21221786Y-7153643D02*
X21221786Y-7286976D01*
X21174167Y-7077452D02*
X21126548Y-7220309D01*
X21250357Y-7220309D01*
X21364643Y-7086976D02*
X21383690Y-7086976D01*
X21402738Y-7096500D01*
X21412262Y-7106024D01*
X21421786Y-7125071D01*
X21431310Y-7163167D01*
X21431310Y-7210786D01*
X21421786Y-7248881D01*
X21412262Y-7267928D01*
X21402738Y-7277452D01*
X21383690Y-7286976D01*
X21364643Y-7286976D01*
X21345595Y-7277452D01*
X21336071Y-7267928D01*
X21326548Y-7248881D01*
X21317024Y-7210786D01*
X21317024Y-7163167D01*
X21326548Y-7125071D01*
X21336071Y-7106024D01*
X21345595Y-7096500D01*
X21364643Y-7086976D01*
X21555119Y-7086976D02*
X21574167Y-7086976D01*
X21593214Y-7096500D01*
X21602738Y-7106024D01*
X21612262Y-7125071D01*
X21621786Y-7163167D01*
X21621786Y-7210786D01*
X21612262Y-7248881D01*
X21602738Y-7267928D01*
X21593214Y-7277452D01*
X21574167Y-7286976D01*
X21555119Y-7286976D01*
X21536071Y-7277452D01*
X21526548Y-7267928D01*
X21517024Y-7248881D01*
X21507500Y-7210786D01*
X21507500Y-7163167D01*
X21517024Y-7125071D01*
X21526548Y-7106024D01*
X21536071Y-7096500D01*
X21555119Y-7086976D01*
X21697976Y-7086976D02*
X21697976Y-7125071D01*
X21774167Y-7086976D02*
X21774167Y-7125071D01*
X22069405Y-7363167D02*
X22059881Y-7353643D01*
X22040833Y-7325071D01*
X22031310Y-7306024D01*
X22021786Y-7277452D01*
X22012262Y-7229833D01*
X22012262Y-7191738D01*
X22021786Y-7144119D01*
X22031310Y-7115548D01*
X22040833Y-7096500D01*
X22059881Y-7067928D01*
X22069405Y-7058405D01*
X22231310Y-7086976D02*
X22193214Y-7086976D01*
X22174167Y-7096500D01*
X22164643Y-7106024D01*
X22145595Y-7134595D01*
X22136071Y-7172690D01*
X22136071Y-7248881D01*
X22145595Y-7267928D01*
X22155119Y-7277452D01*
X22174167Y-7286976D01*
X22212262Y-7286976D01*
X22231310Y-7277452D01*
X22240833Y-7267928D01*
X22250357Y-7248881D01*
X22250357Y-7201262D01*
X22240833Y-7182214D01*
X22231310Y-7172690D01*
X22212262Y-7163167D01*
X22174167Y-7163167D01*
X22155119Y-7172690D01*
X22145595Y-7182214D01*
X22136071Y-7201262D01*
X22488452Y-7286976D02*
X22488452Y-7086976D01*
X22574167Y-7286976D02*
X22574167Y-7182214D01*
X22564643Y-7163167D01*
X22545595Y-7153643D01*
X22517024Y-7153643D01*
X22497976Y-7163167D01*
X22488452Y-7172690D01*
X22697976Y-7286976D02*
X22678928Y-7277452D01*
X22669405Y-7267928D01*
X22659881Y-7248881D01*
X22659881Y-7191738D01*
X22669405Y-7172690D01*
X22678928Y-7163167D01*
X22697976Y-7153643D01*
X22726548Y-7153643D01*
X22745595Y-7163167D01*
X22755119Y-7172690D01*
X22764643Y-7191738D01*
X22764643Y-7248881D01*
X22755119Y-7267928D01*
X22745595Y-7277452D01*
X22726548Y-7286976D01*
X22697976Y-7286976D01*
X22878928Y-7286976D02*
X22859881Y-7277452D01*
X22850357Y-7258405D01*
X22850357Y-7086976D01*
X23031309Y-7277452D02*
X23012262Y-7286976D01*
X22974167Y-7286976D01*
X22955119Y-7277452D01*
X22945595Y-7258405D01*
X22945595Y-7182214D01*
X22955119Y-7163167D01*
X22974167Y-7153643D01*
X23012262Y-7153643D01*
X23031309Y-7163167D01*
X23040833Y-7182214D01*
X23040833Y-7201262D01*
X22945595Y-7220309D01*
X23117024Y-7277452D02*
X23136071Y-7286976D01*
X23174167Y-7286976D01*
X23193214Y-7277452D01*
X23202738Y-7258405D01*
X23202738Y-7248881D01*
X23193214Y-7229833D01*
X23174167Y-7220309D01*
X23145595Y-7220309D01*
X23126548Y-7210786D01*
X23117024Y-7191738D01*
X23117024Y-7182214D01*
X23126548Y-7163167D01*
X23145595Y-7153643D01*
X23174167Y-7153643D01*
X23193214Y-7163167D01*
X23269405Y-7363167D02*
X23278928Y-7353643D01*
X23297976Y-7325071D01*
X23307500Y-7306024D01*
X23317024Y-7277452D01*
X23326548Y-7229833D01*
X23326548Y-7191738D01*
X23317024Y-7144119D01*
X23307500Y-7115548D01*
X23297976Y-7096500D01*
X23278928Y-7067928D01*
X23269405Y-7058405D01*
X18397500Y-7360500D02*
X18397500Y-7560500D01*
X18297500Y-7460500D02*
X18497500Y-7460500D01*
X18850357Y-7350976D02*
X18755119Y-7350976D01*
X18745595Y-7446214D01*
X18755119Y-7436690D01*
X18774167Y-7427167D01*
X18821786Y-7427167D01*
X18840833Y-7436690D01*
X18850357Y-7446214D01*
X18859881Y-7465262D01*
X18859881Y-7512881D01*
X18850357Y-7531928D01*
X18840833Y-7541452D01*
X18821786Y-7550976D01*
X18774167Y-7550976D01*
X18755119Y-7541452D01*
X18745595Y-7531928D01*
X18945595Y-7531928D02*
X18955119Y-7541452D01*
X18945595Y-7550976D01*
X18936071Y-7541452D01*
X18945595Y-7531928D01*
X18945595Y-7550976D01*
X19021786Y-7350976D02*
X19145595Y-7350976D01*
X19078929Y-7427167D01*
X19107500Y-7427167D01*
X19126548Y-7436690D01*
X19136071Y-7446214D01*
X19145595Y-7465262D01*
X19145595Y-7512881D01*
X19136071Y-7531928D01*
X19126548Y-7541452D01*
X19107500Y-7550976D01*
X19050357Y-7550976D01*
X19031310Y-7541452D01*
X19021786Y-7531928D01*
X19269405Y-7350976D02*
X19288452Y-7350976D01*
X19307500Y-7360500D01*
X19317024Y-7370024D01*
X19326548Y-7389071D01*
X19336071Y-7427167D01*
X19336071Y-7474786D01*
X19326548Y-7512881D01*
X19317024Y-7531928D01*
X19307500Y-7541452D01*
X19288452Y-7550976D01*
X19269405Y-7550976D01*
X19250357Y-7541452D01*
X19240833Y-7531928D01*
X19231310Y-7512881D01*
X19221786Y-7474786D01*
X19221786Y-7427167D01*
X19231310Y-7389071D01*
X19240833Y-7370024D01*
X19250357Y-7360500D01*
X19269405Y-7350976D01*
X19459881Y-7350976D02*
X19478929Y-7350976D01*
X19497976Y-7360500D01*
X19507500Y-7370024D01*
X19517024Y-7389071D01*
X19526548Y-7427167D01*
X19526548Y-7474786D01*
X19517024Y-7512881D01*
X19507500Y-7531928D01*
X19497976Y-7541452D01*
X19478929Y-7550976D01*
X19459881Y-7550976D01*
X19440833Y-7541452D01*
X19431310Y-7531928D01*
X19421786Y-7512881D01*
X19412262Y-7474786D01*
X19412262Y-7427167D01*
X19421786Y-7389071D01*
X19431310Y-7370024D01*
X19440833Y-7360500D01*
X19459881Y-7350976D01*
X19612262Y-7550976D02*
X19612262Y-7417643D01*
X19612262Y-7436690D02*
X19621786Y-7427167D01*
X19640833Y-7417643D01*
X19669405Y-7417643D01*
X19688452Y-7427167D01*
X19697976Y-7446214D01*
X19697976Y-7550976D01*
X19697976Y-7446214D02*
X19707500Y-7427167D01*
X19726548Y-7417643D01*
X19755119Y-7417643D01*
X19774167Y-7427167D01*
X19783690Y-7446214D01*
X19783690Y-7550976D01*
X19878929Y-7550976D02*
X19878929Y-7417643D01*
X19878929Y-7436690D02*
X19888452Y-7427167D01*
X19907500Y-7417643D01*
X19936071Y-7417643D01*
X19955119Y-7427167D01*
X19964643Y-7446214D01*
X19964643Y-7550976D01*
X19964643Y-7446214D02*
X19974167Y-7427167D01*
X19993214Y-7417643D01*
X20021786Y-7417643D01*
X20040833Y-7427167D01*
X20050357Y-7446214D01*
X20050357Y-7550976D01*
X20440833Y-7341452D02*
X20269405Y-7598595D01*
X20697976Y-7350976D02*
X20717024Y-7350976D01*
X20736071Y-7360500D01*
X20745595Y-7370024D01*
X20755119Y-7389071D01*
X20764643Y-7427167D01*
X20764643Y-7474786D01*
X20755119Y-7512881D01*
X20745595Y-7531928D01*
X20736071Y-7541452D01*
X20717024Y-7550976D01*
X20697976Y-7550976D01*
X20678929Y-7541452D01*
X20669405Y-7531928D01*
X20659881Y-7512881D01*
X20650357Y-7474786D01*
X20650357Y-7427167D01*
X20659881Y-7389071D01*
X20669405Y-7370024D01*
X20678929Y-7360500D01*
X20697976Y-7350976D01*
X20850357Y-7531928D02*
X20859881Y-7541452D01*
X20850357Y-7550976D01*
X20840833Y-7541452D01*
X20850357Y-7531928D01*
X20850357Y-7550976D01*
X20936071Y-7370024D02*
X20945595Y-7360500D01*
X20964643Y-7350976D01*
X21012262Y-7350976D01*
X21031310Y-7360500D01*
X21040833Y-7370024D01*
X21050357Y-7389071D01*
X21050357Y-7408119D01*
X21040833Y-7436690D01*
X20926548Y-7550976D01*
X21050357Y-7550976D01*
X21174167Y-7350976D02*
X21193214Y-7350976D01*
X21212262Y-7360500D01*
X21221786Y-7370024D01*
X21231310Y-7389071D01*
X21240833Y-7427167D01*
X21240833Y-7474786D01*
X21231310Y-7512881D01*
X21221786Y-7531928D01*
X21212262Y-7541452D01*
X21193214Y-7550976D01*
X21174167Y-7550976D01*
X21155119Y-7541452D01*
X21145595Y-7531928D01*
X21136071Y-7512881D01*
X21126548Y-7474786D01*
X21126548Y-7427167D01*
X21136071Y-7389071D01*
X21145595Y-7370024D01*
X21155119Y-7360500D01*
X21174167Y-7350976D01*
X21355119Y-7436690D02*
X21336071Y-7427167D01*
X21326548Y-7417643D01*
X21317024Y-7398595D01*
X21317024Y-7389071D01*
X21326548Y-7370024D01*
X21336071Y-7360500D01*
X21355119Y-7350976D01*
X21393214Y-7350976D01*
X21412262Y-7360500D01*
X21421786Y-7370024D01*
X21431310Y-7389071D01*
X21431310Y-7398595D01*
X21421786Y-7417643D01*
X21412262Y-7427167D01*
X21393214Y-7436690D01*
X21355119Y-7436690D01*
X21336071Y-7446214D01*
X21326548Y-7455738D01*
X21317024Y-7474786D01*
X21317024Y-7512881D01*
X21326548Y-7531928D01*
X21336071Y-7541452D01*
X21355119Y-7550976D01*
X21393214Y-7550976D01*
X21412262Y-7541452D01*
X21421786Y-7531928D01*
X21431310Y-7512881D01*
X21431310Y-7474786D01*
X21421786Y-7455738D01*
X21412262Y-7446214D01*
X21393214Y-7436690D01*
X21497976Y-7350976D02*
X21631310Y-7350976D01*
X21545595Y-7550976D01*
X21697976Y-7350976D02*
X21697976Y-7389071D01*
X21774167Y-7350976D02*
X21774167Y-7389071D01*
X22069405Y-7627167D02*
X22059881Y-7617643D01*
X22040833Y-7589071D01*
X22031310Y-7570024D01*
X22021786Y-7541452D01*
X22012262Y-7493833D01*
X22012262Y-7455738D01*
X22021786Y-7408119D01*
X22031310Y-7379548D01*
X22040833Y-7360500D01*
X22059881Y-7331928D01*
X22069405Y-7322405D01*
X22250357Y-7550976D02*
X22136071Y-7550976D01*
X22193214Y-7550976D02*
X22193214Y-7350976D01*
X22174167Y-7379548D01*
X22155119Y-7398595D01*
X22136071Y-7408119D01*
X22488452Y-7550976D02*
X22488452Y-7350976D01*
X22574167Y-7550976D02*
X22574167Y-7446214D01*
X22564643Y-7427167D01*
X22545595Y-7417643D01*
X22517024Y-7417643D01*
X22497976Y-7427167D01*
X22488452Y-7436690D01*
X22697976Y-7550976D02*
X22678928Y-7541452D01*
X22669405Y-7531928D01*
X22659881Y-7512881D01*
X22659881Y-7455738D01*
X22669405Y-7436690D01*
X22678928Y-7427167D01*
X22697976Y-7417643D01*
X22726548Y-7417643D01*
X22745595Y-7427167D01*
X22755119Y-7436690D01*
X22764643Y-7455738D01*
X22764643Y-7512881D01*
X22755119Y-7531928D01*
X22745595Y-7541452D01*
X22726548Y-7550976D01*
X22697976Y-7550976D01*
X22878928Y-7550976D02*
X22859881Y-7541452D01*
X22850357Y-7522405D01*
X22850357Y-7350976D01*
X23031309Y-7541452D02*
X23012262Y-7550976D01*
X22974167Y-7550976D01*
X22955119Y-7541452D01*
X22945595Y-7522405D01*
X22945595Y-7446214D01*
X22955119Y-7427167D01*
X22974167Y-7417643D01*
X23012262Y-7417643D01*
X23031309Y-7427167D01*
X23040833Y-7446214D01*
X23040833Y-7465262D01*
X22945595Y-7484309D01*
X23107500Y-7627167D02*
X23117024Y-7617643D01*
X23136071Y-7589071D01*
X23145595Y-7570024D01*
X23155119Y-7541452D01*
X23164643Y-7493833D01*
X23164643Y-7455738D01*
X23155119Y-7408119D01*
X23145595Y-7379548D01*
X23136071Y-7360500D01*
X23117024Y-7331928D01*
X23107500Y-7322405D01*
M02*
